<svg id="Слой_1" data-name="Слой 1" xmlns="http://www.w3.org/2000/svg" viewBox="0 0 100 66.32"><g id="Тарировка"><path d="M49.05,12a1.14,1.14,0,0,1-.3-.8,1,1,0,0,1,.9-1.1h.1a.1.1,0,0,1,.1-.1,1.1,1.1,0,1,1,0,2.2h0A.79.79,0,0,1,49.05,12Zm0,2.3h1.7v11h-1.6Z"/><circle cx="50.15" cy="17.6" r="14.5" style="fill:none;stroke:#000;stroke-linecap:round;stroke-linejoin:round"/></g><path d="M40.11,51.17v11.2h-1V51.17Z"/><path d="M48.26,57v5.37h-.95V57.14c0-1.7-.44-2.46-1.55-2.46s-1.94,1-1.94,2.6v5.09h-.94V54h.78l.16,1A2.4,2.4,0,0,1,46,53.78C47.36,53.78,48.26,54.69,48.26,57Z"/><path d="M52.14,53.27V54H54v.87H52.14v7.53H51.2V54.84H49.92V54H51.2v-.7a2.36,2.36,0,0,1,2.51-2.69h.45v.86h-.45C52.72,51.44,52.14,52,52.14,53.27Z"/><path d="M55.66,59.52v-2.7c0-2,1.12-3,2.8-3s2.81,1.07,2.81,3v2.7c0,2-1.13,3-2.81,3S55.66,61.49,55.66,59.52Zm4.64,0v-2.7c0-1.46-.7-2.11-1.84-2.11s-1.84.65-1.84,2.11v2.7c0,1.46.71,2.12,1.84,2.12S60.3,61,60.3,59.52Z"/></svg>