<svg id="Слой_1" data-name="Слой 1" xmlns="http://www.w3.org/2000/svg" viewBox="0 0 100 66.32"><polygon points="66.84 23.8 43.38 23.8 43.38 30.31 27.74 16.63 43.38 2.94 43.38 9.46 66.84 9.46 66.84 23.8" style="fill:none;stroke:#1d1d1b;stroke-miterlimit:10"/><path d="M11.82,51.92H7.71V62.19h-1V51h5.11Z"/><path d="M10.84,61.34c1,0,1.17-1.36,1.28-3s.13-2.94.16-4.51H16.6v8.4h-.94v-7.5H13.21c0,1.24-.11,2.84-.16,3.76-.14,2.53-.71,3.81-2.21,3.81Z"/><path d="M24.24,56.38v5.81h-.82l-.08-.78a2.27,2.27,0,0,1-1.94,1,2.45,2.45,0,0,1-2.65-2.57c0-1.62,1-2.52,2.88-2.52h1.66V56.4c0-1.23-.58-1.89-1.66-1.89A1.53,1.53,0,0,0,20,56H19a2.44,2.44,0,0,1,2.66-2.38A2.49,2.49,0,0,1,24.24,56.38Zm-.95,3.44V58.17h-1.7c-1.23,0-1.88.58-1.88,1.65s.75,1.64,1.84,1.64A1.6,1.6,0,0,0,23.29,59.82Z"/><path d="M32,59.78c0,1.52-.94,2.41-2.74,2.41H26.82V53.8H29c1.64,0,2.56.87,2.56,2.25a2.12,2.12,0,0,1-1,1.69A2.21,2.21,0,0,1,32,59.78Zm-4.26-2.39H29c1.09,0,1.63-.51,1.63-1.34S30.11,54.7,29,54.7H27.75Zm3.32,2.39c0-1-.6-1.49-1.81-1.49H27.75v3h1.51C30.47,61.3,31.07,60.75,31.07,59.78Z"/><path d="M39.16,53.79v8.4h-.94v-3.9H35v3.9h-1v-8.4h1v3.6h3.2v-3.6Z"/><path d="M41.54,59.34v-2.7c0-2,1.12-3,2.8-3s2.81,1.07,2.81,3v2.7c0,2-1.12,3-2.81,3S41.54,61.31,41.54,59.34Zm4.65,0v-2.7c0-1.46-.71-2.11-1.85-2.11s-1.84.65-1.84,2.11v2.7c0,1.46.71,2.12,1.84,2.12S46.19,60.8,46.19,59.34Z"/><path d="M55,59.62A2.67,2.67,0,0,1,52,62.35c-1.63,0-2.7-1.07-2.7-3V56.59c0-1.92,1.09-3,2.72-3a2.68,2.68,0,0,1,2.8,3v1.86H50.28v.91c0,1.41.67,2.06,1.78,2.06A1.74,1.74,0,0,0,54,59.62Zm-4.67-3v1H53.9v-1c0-1.41-.69-2.06-1.84-2.06S50.28,55.18,50.28,56.59Z"/><path d="M67.85,53.79v8.4h-.91V57.57c0-.82.06-1.43.08-2.07h0c-.22.64-.46,1.31-.74,1.93L65.08,60h-1L63,57.42c-.27-.62-.51-1.29-.74-1.93h0c0,.64.08,1.25.08,2.07v4.62h-.91v-8.4h1L64,57.61c.18.45.37.89.54,1.33h0c.17-.44.37-.88.54-1.33l1.71-3.82Z"/><path d="M75.87,59.62a2.68,2.68,0,0,1-2.93,2.73c-1.64,0-2.71-1.07-2.71-3V56.59c0-1.92,1.09-3,2.72-3a2.68,2.68,0,0,1,2.8,3v1.86H71.19v.91c0,1.41.68,2.06,1.78,2.06a1.74,1.74,0,0,0,2-1.8Zm-4.68-3v1h3.62v-1c0-1.41-.69-2.06-1.84-2.06S71.19,55.18,71.19,56.59Z"/><path d="M83.21,53.79v8.4h-.94v-3.9H79.06v3.9h-.94v-8.4h.94v3.6h3.21v-3.6Z"/><path d="M93.67,56.62v2.71c0,2-1.07,3-2.7,3s-2.71-1.07-2.71-3v-1H86.74v3.86H85.8v-8.4h.94v3.63h1.52v-.8c0-1.95,1.08-3,2.71-3S93.67,54.67,93.67,56.62Zm-1,0c0-1.44-.65-2.09-1.74-2.09s-1.74.65-1.74,2.09v2.71c0,1.44.65,2.09,1.74,2.09s1.74-.65,1.74-2.09Z"/></svg>