<svg xmlns="http://www.w3.org/2000/svg" viewBox="0 0 300 165"><defs><style>.cls-1{fill:#fff;}.cls-2{fill:none;stroke:#fff;stroke-miterlimit:10;}</style></defs><title>ingeneer_inverse</title><g id="Слой_1" data-name="Слой 1"><path class="cls-1" d="M80.1,113.48h2v6.12c0,.55,0,1.22-.06,2s-.09,1.47-.16,2l.06,0c.47-1.22.8-2.05,1-2.48l3.4-7.72h2.06v14h-2v-6.1c0-.53,0-1.21,0-2s.08-1.5.13-2.08l-.06,0c-.4,1.11-.73,2-1,2.58l-3.38,7.66h-2Z"/><path class="cls-1" d="M97.68,116.94v10.54H95.74V123H92.8v4.5H90.86V116.94H92.8v4.24h2.94v-4.24Z"/><path class="cls-1" d="M106.7,123l-.6.68v3.84h-1.86v-3.82l-.62-.7L101,127.48H98.78l3.64-6-3.26-4.52h2.26l1.56,2.4q.9,1.44,1.26,2v-4.44h1.86v4.44q.36-.6,1.26-2l1.56-2.4h2.26l-3.26,4.52,3.62,6h-2.18Z"/><path class="cls-1" d="M119.28,124.18a4,4,0,0,1-1.13,2.6,3.67,3.67,0,0,1-2.65.92,3.36,3.36,0,0,1-2.62-1,4.13,4.13,0,0,1-1-2.92V120.6a4,4,0,0,1,1-2.89,3.49,3.49,0,0,1,2.65-1,3.6,3.6,0,0,1,2.71,1,4,4,0,0,1,1,2.89v2.34h-5.38v.8a2.4,2.4,0,0,0,.43,1.58,1.52,1.52,0,0,0,1.25.52,1.75,1.75,0,0,0,1.25-.39,2.11,2.11,0,0,0,.53-1.27Zm-5-5.17a2.39,2.39,0,0,0-.44,1.57v.9h3.46v-.9c0-1.38-.59-2.08-1.76-2.08A1.56,1.56,0,0,0,114.3,119Z"/><path class="cls-1" d="M128.06,116.94v10.54h-1.94V123h-2.94v4.5h-1.94V116.94h1.94v4.24h2.94v-4.24Z"/><path class="cls-1" d="M137.5,124.18a4,4,0,0,1-1.13,2.6,3.67,3.67,0,0,1-2.65.92,3.36,3.36,0,0,1-2.62-1,4.13,4.13,0,0,1-1-2.92V120.6a4,4,0,0,1,1-2.89,3.49,3.49,0,0,1,2.65-1,3.6,3.6,0,0,1,2.71,1,4,4,0,0,1,1,2.89v2.34h-5.38v.8a2.4,2.4,0,0,0,.43,1.58,1.52,1.52,0,0,0,1.25.52,1.75,1.75,0,0,0,1.25-.39,2.11,2.11,0,0,0,.53-1.27Zm-5-5.17a2.39,2.39,0,0,0-.44,1.57v.9h3.46v-.9c0-1.38-.59-2.08-1.76-2.08A1.56,1.56,0,0,0,132.52,119Z"/><path class="cls-1" d="M145.82,117.79a4.51,4.51,0,0,1,.92,3v2.9a4.41,4.41,0,0,1-.91,3,3,3,0,0,1-2.45,1.07,2.78,2.78,0,0,1-1.11-.22,2.5,2.5,0,0,1-.91-.62v4.2h-1.9V116.92h1.4l.14,1a3.2,3.2,0,0,1,1.05-.86,2.92,2.92,0,0,1,1.33-.34A3.05,3.05,0,0,1,145.82,117.79Zm-1.06,3c0-1.5-.57-2.26-1.7-2.26a1.51,1.51,0,0,0-1.24.57,2.6,2.6,0,0,0-.46,1.67v2.92a2.61,2.61,0,0,0,.45,1.63,1.47,1.47,0,0,0,1.25.59,1.52,1.52,0,0,0,1.28-.54,2.73,2.73,0,0,0,.42-1.68Z"/><path class="cls-1" d="M155.48,116.94v10.54h-1.94V123H150.6v4.5h-1.94V116.94h1.94v4.24h2.94v-4.24Z"/><path class="cls-1" d="M158.55,126.68a4.12,4.12,0,0,1-1-3v-3a4.14,4.14,0,0,1,1-3,4.08,4.08,0,0,1,5.44,0,4.14,4.14,0,0,1,1,3v3a4.12,4.12,0,0,1-1,3,4.08,4.08,0,0,1-5.44,0Zm4.47-3v-3c0-1.41-.59-2.12-1.76-2.12s-1.74.71-1.74,2.12v3c0,1.41.58,2.12,1.74,2.12S163,125.13,163,123.72Z"/><path class="cls-1" d="M174.18,124.18a4,4,0,0,1-1.13,2.6,3.67,3.67,0,0,1-2.65.92,3.36,3.36,0,0,1-2.62-1,4.13,4.13,0,0,1-1-2.92V120.6a4,4,0,0,1,1-2.89,3.49,3.49,0,0,1,2.65-1,3.6,3.6,0,0,1,2.71,1,4,4,0,0,1,1,2.89v2.34h-5.38v.8a2.4,2.4,0,0,0,.43,1.58,1.52,1.52,0,0,0,1.25.52,1.75,1.75,0,0,0,1.25-.39,2.11,2.11,0,0,0,.53-1.27Zm-5-5.17a2.39,2.39,0,0,0-.44,1.57v.9h3.46v-.9c0-1.38-.59-2.08-1.76-2.08A1.56,1.56,0,0,0,169.2,119Z"/><path class="cls-1" d="M189.22,116.94v10.54h-1.8V123.3c0-.57,0-1.34.08-2.3l0-.8-.1,0c-.32,1.07-.61,1.95-.86,2.64l-.86,2h-1.78l-.86-2-.56-1.7-.3-.94-.1,0,0,.8c.05,1,.08,1.73.08,2.3v4.18h-1.8V116.94h1.94l1.62,3.8a20.13,20.13,0,0,1,.8,2.2h.06c.11-.32.32-.9.64-1.76l.16-.44,1.62-3.8Z"/><path class="cls-1" d="M198.68,124.18a4,4,0,0,1-1.13,2.6,3.67,3.67,0,0,1-2.65.92,3.36,3.36,0,0,1-2.62-1,4.13,4.13,0,0,1-1-2.92V120.6a4,4,0,0,1,1-2.89,3.49,3.49,0,0,1,2.65-1,3.6,3.6,0,0,1,2.71,1,4,4,0,0,1,1,2.89v2.34h-5.38v.8a2.4,2.4,0,0,0,.43,1.58,1.52,1.52,0,0,0,1.25.52,1.75,1.75,0,0,0,1.25-.39,2.11,2.11,0,0,0,.53-1.27Zm-5-5.17a2.39,2.39,0,0,0-.44,1.57v.9h3.46v-.9c0-1.38-.59-2.08-1.76-2.08A1.56,1.56,0,0,0,193.7,119Z"/><path class="cls-1" d="M207.46,116.94v10.54h-1.94V123h-2.94v4.5h-1.94V116.94h1.94v4.24h2.94v-4.24Z"/><path class="cls-1" d="M219.44,117.72a4.2,4.2,0,0,1,1,2.94v3a4.2,4.2,0,0,1-1,3,3.87,3.87,0,0,1-5.28,0,4.2,4.2,0,0,1-1-3V123h-1.54v4.46h-1.88V116.94h1.88v4.26h1.54v-.54a4.2,4.2,0,0,1,1-2.94,3.87,3.87,0,0,1,5.28,0Zm-1,2.94c0-1.4-.55-2.1-1.66-2.1s-1.68.7-1.68,2.1v3c0,1.42.56,2.12,1.68,2.12a1.5,1.5,0,0,0,1.23-.52,2.45,2.45,0,0,0,.43-1.6Z"/></g><g id="главная_страница" data-name="главная страница"><circle class="cls-2" cx="134.5" cy="48.35" r="5"/><circle class="cls-2" cx="150" cy="66.27" r="5"/><circle class="cls-2" cx="165.5" cy="48.35" r="5"/><path class="cls-2" d="M134.5,53.35a4.94,4.94,0,0,1-2.5-.7V77.5a2.5,2.5,0,0,0,5,0V52.65A4.94,4.94,0,0,1,134.5,53.35Z"/><path class="cls-2" d="M134.5,43.35A4.93,4.93,0,0,1,137,44V37.5a2.5,2.5,0,0,0-5,0V44A4.93,4.93,0,0,1,134.5,43.35Z"/><path class="cls-2" d="M150,61.27a4.94,4.94,0,0,1,2.5.7V37.5a2.5,2.5,0,0,0-5,0V62A4.94,4.94,0,0,1,150,61.27Z"/><path class="cls-2" d="M150,71.27a4.93,4.93,0,0,1-2.5-.69V77.5a2.5,2.5,0,0,0,5,0V70.58A4.93,4.93,0,0,1,150,71.27Z"/><path class="cls-2" d="M165.5,43.35A4.93,4.93,0,0,1,168,44V37.5a2.5,2.5,0,0,0-5,0V44A4.93,4.93,0,0,1,165.5,43.35Z"/><path class="cls-2" d="M165.5,53.35a4.94,4.94,0,0,1-2.5-.7V77.5a2.5,2.5,0,0,0,5,0V52.65A4.94,4.94,0,0,1,165.5,53.35Z"/></g></svg>