<svg xmlns="http://www.w3.org/2000/svg" viewBox="0 0 300 165"><defs><style>.cls-1{fill:#fff;}.cls-2,.cls-3,.cls-4{fill:none;stroke:#fff;}.cls-2,.cls-3{stroke-linecap:round;}.cls-2{stroke-linejoin:round;}.cls-3,.cls-4{stroke-miterlimit:10;}</style></defs><title>master_inverse</title><g id="Слой_1" data-name="Слой 1"><path class="cls-1" d="M90.89,113.48v14h-2V122c0-2,.11-3.47.16-4.52l-.08,0c-.26.75-.72,2-1.36,3.68l-1.22,3.18h-2l-1.22-3.18c-.64-1.71-1.09-2.93-1.36-3.68l-.08,0c.08,2,.13,3.45.16,4.52v5.46h-2v-14H82l2.36,5.68c.31.76.65,1.69,1,2.78h.08c.37-1.09.72-2,1-2.78l2.36-5.68Z"/><path class="cls-1" d="M99.34,117.66a4.1,4.1,0,0,1,.87,2.82v7H98.63l-.14-1a2.56,2.56,0,0,1-.93.92,2.73,2.73,0,0,1-1.41.34,3.06,3.06,0,0,1-3.24-3.26,2.93,2.93,0,0,1,1-2.41,4.33,4.33,0,0,1,2.8-.83h1.54v-.76c0-1.29-.51-1.94-1.52-1.94a1.65,1.65,0,0,0-1.09.36,1.51,1.51,0,0,0-.51,1H93.21a3.31,3.31,0,0,1,1-2.39,3.64,3.64,0,0,1,2.54-.87A3.24,3.24,0,0,1,99.34,117.66Zm-1.07,5.2H96.73a2,2,0,0,0-1.38.42,1.51,1.51,0,0,0-.48,1.2,1.48,1.48,0,0,0,.44,1.13,1.77,1.77,0,0,0,1.24.41,1.67,1.67,0,0,0,1.26-.48,1.78,1.78,0,0,0,.46-1.3Z"/><path class="cls-1" d="M103.24,126.69a4,4,0,0,1-.95-2.85v-3.32a4,4,0,0,1,.95-2.83,3.41,3.41,0,0,1,2.61-1,3.52,3.52,0,0,1,2.68,1,4.09,4.09,0,0,1,1,2.84h-1.94c0-1.32-.63-2-1.72-2a1.49,1.49,0,0,0-1.2.5,2.25,2.25,0,0,0-.42,1.48v3.32a2.28,2.28,0,0,0,.42,1.5,1.49,1.49,0,0,0,1.2.5c1.11,0,1.69-.67,1.74-2h1.94a4.08,4.08,0,0,1-1,2.85,3.57,3.57,0,0,1-2.68,1A3.41,3.41,0,0,1,103.24,126.69Z"/><path class="cls-1" d="M117.05,118.76h-2.42v8.72h-1.92v-8.72h-2.4v-1.82h6.74Z"/><path class="cls-1" d="M125.19,124.18a4,4,0,0,1-1.13,2.6,3.71,3.71,0,0,1-2.65.92,3.4,3.4,0,0,1-2.62-1,4.14,4.14,0,0,1-1-2.92V120.6a4,4,0,0,1,1-2.89,3.46,3.46,0,0,1,2.65-1,3.56,3.56,0,0,1,2.71,1,4,4,0,0,1,1,2.89v2.34h-5.38v.8a2.42,2.42,0,0,0,.43,1.58,1.52,1.52,0,0,0,1.25.52,1.75,1.75,0,0,0,1.25-.39,2.11,2.11,0,0,0,.53-1.27Zm-5-5.17a2.37,2.37,0,0,0-.44,1.57v.9h3.46v-.9c0-1.39-.59-2.08-1.76-2.08A1.56,1.56,0,0,0,120.21,119Z"/><path class="cls-1" d="M133.51,117.79a4.51,4.51,0,0,1,.92,3v2.9a4.41,4.41,0,0,1-.91,3,3.06,3.06,0,0,1-2.45,1.07,2.78,2.78,0,0,1-1.11-.22,2.63,2.63,0,0,1-.91-.62v4.2h-1.9V116.92h1.4l.14,1a3.2,3.2,0,0,1,1.05-.86,2.8,2.8,0,0,1,1.33-.34A3,3,0,0,1,133.51,117.79Zm-1.06,3c0-1.51-.57-2.26-1.7-2.26a1.51,1.51,0,0,0-1.24.57,2.6,2.6,0,0,0-.46,1.67v2.92a2.63,2.63,0,0,0,.45,1.63,1.5,1.5,0,0,0,1.25.59,1.52,1.52,0,0,0,1.28-.54,2.73,2.73,0,0,0,.42-1.68Z"/><path class="cls-1" d="M149,113.48v14h-2v-6.14h-4v6.14h-2v-14h2v6h4v-6Z"/><path class="cls-1" d="M157.48,117.66a4.1,4.1,0,0,1,.87,2.82v7h-1.58l-.14-1a2.56,2.56,0,0,1-.93.92,2.73,2.73,0,0,1-1.41.34,3.06,3.06,0,0,1-3.24-3.26,2.93,2.93,0,0,1,1-2.41,4.33,4.33,0,0,1,2.8-.83h1.54v-.76c0-1.29-.51-1.94-1.52-1.94a1.65,1.65,0,0,0-1.09.36,1.51,1.51,0,0,0-.51,1h-1.94a3.31,3.31,0,0,1,1-2.39,3.64,3.64,0,0,1,2.54-.87A3.24,3.24,0,0,1,157.48,117.66Zm-1.07,5.2h-1.54a2,2,0,0,0-1.38.42,1.51,1.51,0,0,0-.48,1.2,1.48,1.48,0,0,0,.44,1.13,1.77,1.77,0,0,0,1.24.41,1.67,1.67,0,0,0,1.26-.48,1.78,1.78,0,0,0,.46-1.3Z"/><path class="cls-1" d="M161.38,126.69a4,4,0,0,1-.95-2.85v-3.32a4,4,0,0,1,.95-2.83,3.41,3.41,0,0,1,2.61-1,3.52,3.52,0,0,1,2.68,1,4.09,4.09,0,0,1,1,2.84h-1.94c0-1.32-.63-2-1.72-2a1.49,1.49,0,0,0-1.2.5,2.25,2.25,0,0,0-.42,1.48v3.32a2.28,2.28,0,0,0,.42,1.5,1.49,1.49,0,0,0,1.2.5c1.11,0,1.69-.67,1.74-2h1.94a4.08,4.08,0,0,1-1,2.85,3.57,3.57,0,0,1-2.68,1A3.41,3.41,0,0,1,161.38,126.69Z"/><path class="cls-1" d="M175.19,118.76h-2.42v8.72h-1.92v-8.72h-2.4v-1.82h6.74Z"/><path class="cls-1" d="M182.89,117.79a4.51,4.51,0,0,1,.92,3v2.9a4.41,4.41,0,0,1-.91,3,3.06,3.06,0,0,1-2.45,1.07,2.78,2.78,0,0,1-1.11-.22,2.63,2.63,0,0,1-.91-.62v4.2h-1.9V116.92h1.4l.14,1a3.2,3.2,0,0,1,1.05-.86,2.8,2.8,0,0,1,1.33-.34A3,3,0,0,1,182.89,117.79Zm-1.06,3c0-1.51-.57-2.26-1.7-2.26a1.51,1.51,0,0,0-1.24.57,2.6,2.6,0,0,0-.46,1.67v2.92a2.63,2.63,0,0,0,.45,1.63,1.5,1.5,0,0,0,1.25.59,1.52,1.52,0,0,0,1.28-.54,2.73,2.73,0,0,0,.42-1.68Z"/><path class="cls-1" d="M186.62,126.68a4.12,4.12,0,0,1-1-3v-3a4.12,4.12,0,0,1,1-3,4.08,4.08,0,0,1,5.44,0,4.12,4.12,0,0,1,1,3v3a4.12,4.12,0,0,1-1,3,4.08,4.08,0,0,1-5.44,0Zm4.47-3v-3c0-1.41-.59-2.12-1.76-2.12s-1.74.71-1.74,2.12v3c0,1.41.58,2.12,1.74,2.12S191.09,125.13,191.09,123.72Z"/><path class="cls-1" d="M195.13,116.94H197v4.44c0,1.19,0,2.16,0,2.92l.06,0c.16-.52.53-1.51,1.1-3l2-4.42h2v10.54h-1.88v-4c0-1.09,0-2.23.1-3.4l-.06,0a14.34,14.34,0,0,1-.48,1.49c-.27.75-.5,1.34-.7,1.75l-2,4.22h-2Zm1.82-2.28a2.48,2.48,0,0,1-.7-1.76h1.38a1.11,1.11,0,0,0,.29.79,1,1,0,0,0,.73.27,1,1,0,0,0,.74-.27,1.08,1.08,0,0,0,.3-.79h1.38a2.51,2.51,0,0,1-.69,1.77,2.63,2.63,0,0,1-3.43,0Z"/><path class="cls-1" d="M207.09,123l-.7.76v3.76h-1.92V116.94h1.92v4.48l1.24-1.94,1.74-2.54h2.3l-3.32,4.5,3.82,6H210Z"/><path class="cls-1" d="M213.29,116.94h1.88v4.44c0,1.19,0,2.16,0,2.92l.06,0c.16-.52.53-1.51,1.1-3l2-4.42h2v10.54h-1.88v-4c0-1.09,0-2.23.1-3.4l-.06,0a14.34,14.34,0,0,1-.48,1.49c-.27.75-.5,1.34-.7,1.75l-2,4.22h-2Z"/></g><g id="главная_страница" data-name="главная страница"><path class="cls-2" d="M163.41,76.69l-14.3-14.31A6.77,6.77,0,0,0,142.89,53a6.66,6.66,0,0,0-3.11.77l3.72,3.72a2,2,0,0,1-2.83,2.83l-3.74-3.74a6.75,6.75,0,0,0,8.66,9.36l14.29,14.29a2.5,2.5,0,0,0,3.53-3.53Z"/><circle class="cls-1" cx="165.07" cy="46.69" r="1.25"/><line class="cls-3" x1="165.07" y1="46.69" x2="168.86" y2="53.25"/><line class="cls-3" x1="165.07" y1="36.2" x2="165.07" y2="46.69"/><path class="cls-4" d="M165.7,58.22a1.73,1.73,0,0,0-1.61-1.85c-1.08-.22-2.18-.34-3.25-.61A1.51,1.51,0,0,1,160,55a33.68,33.68,0,0,1-1.3-3.24,1.47,1.47,0,0,1,.08-1.13c.57-.94,1.27-1.8,1.89-2.72a1.63,1.63,0,0,0-.19-2.42c-.83-.88-1.68-1.74-2.54-2.58a1.72,1.72,0,0,0-2.58-.21c-.89.61-1.74,1.27-2.64,1.84a1.38,1.38,0,0,1-1,.11,34,34,0,0,1-3.41-1.42,1.65,1.65,0,0,1-.75-1c-.25-1-.35-2-.55-3.06-.25-1.19-.73-1.63-1.9-1.67s-2.48,0-3.71,0-1.66.52-1.89,1.68-.44,2.1-.56,3.16a1,1,0,0,1-.83,1,31.8,31.8,0,0,0-3.13,1.31,1,1,0,0,1-1.25-.13c-.81-.65-1.66-1.25-2.51-1.84a1.69,1.69,0,0,0-2.51.13c-.91.85-1.79,1.73-2.64,2.62a1.63,1.63,0,0,0-.19,2.43c.62.91,1.31,1.78,1.89,2.72a1.54,1.54,0,0,1,.08,1.16c-.35,1-.87,2-1.2,3.07a1.26,1.26,0,0,1-1.2,1c-1,.14-1.92.28-2.87.44a1.81,1.81,0,0,0-1.74,2c0,1.17,0,2.34,0,3.52a1.85,1.85,0,0,0,1.81,2.1c1,.19,2.12.34,3.15.59a1.31,1.31,0,0,1,.79.69,32.85,32.85,0,0,1,1.33,3.24,1.49,1.49,0,0,1-.08,1.12c-.56.91-1.24,1.75-1.85,2.63a1.68,1.68,0,0,0,.16,2.51c.83.88,1.68,1.74,2.54,2.58a1.69,1.69,0,0,0,2.58.19,10.36,10.36,0,0,0,1.47-1.06c1.1-1.06,2-.93,3.5-.33a15.86,15.86,0,0,1,1.94.77,1.59,1.59,0,0,1,.71.9c.24,1,.36,2.1.56,3.15.25,1.21.71,1.64,1.89,1.69s2.48,0,3.71,0,1.66-.52,1.89-1.68a10.22,10.22,0,0,0,.34-1.87c0-1.53.74-2.11,2.19-2.63.55-.2,1.06-.46,1.56-.66l-5.25-5.24a9.91,9.91,0,0,1-2.51.28A10.69,10.69,0,1,1,153.91,60a10.86,10.86,0,0,1-.4,2.69l5.21,5.21c.43-.94.79-1.92,1.23-2.85a1.35,1.35,0,0,1,.79-.68c1.07-.25,2.17-.39,3.26-.58a1.76,1.76,0,0,0,1.7-1.88Q165.76,60.08,165.7,58.22Z"/><path class="cls-4" d="M165.07,32.5a14.17,14.17,0,0,0-14,12l.55.22a1.38,1.38,0,0,0,1-.11c.9-.57,1.75-1.23,2.64-1.84a1.72,1.72,0,0,1,2.58.21c.86.84,1.71,1.7,2.54,2.58a1.63,1.63,0,0,1,.19,2.42c-.62.92-1.32,1.78-1.89,2.72a1.47,1.47,0,0,0-.08,1.13A33.68,33.68,0,0,0,160,55a1.51,1.51,0,0,0,.89.74c1.07.27,2.17.39,3.25.61a1.73,1.73,0,0,1,1.61,1.85c0,.88,0,1.76,0,2.64a14.19,14.19,0,0,0-.65-28.36Z"/></g></svg>