<svg id="Слой_1" data-name="Слой 1" xmlns="http://www.w3.org/2000/svg" viewBox="0 0 300 165"><g id="главная_страница" data-name="главная страница"><path d="M163.22,72.85c-.54-.3-1-.52-1.46-.82-.88-.6-1.68-1.6-2.63-1.76s-1.9.69-2.9.89a2.34,2.34,0,0,0-2.15,2.53.28.28,0,0,0,0,.09,11.08,11.08,0,0,1-.34,1.88A1.75,1.75,0,0,1,152,77.38h-3.88c-1.23,0-1.65-.48-1.89-1.68-.21-1-.32-2.12-.57-3.16a1.53,1.53,0,0,0-.7-.89,16.55,16.55,0,0,1-2-.77,2.39,2.39,0,0,0-3.38.19.76.76,0,0,0-.11.14,13.12,13.12,0,0,1-1.47,1,1.69,1.69,0,0,1-2.39,0,1.24,1.24,0,0,1-.19-.21c-.87-.84-1.71-1.7-2.54-2.58a1.68,1.68,0,0,1-.3-2.36.67.67,0,0,1,.14-.15c.61-.88,1.29-1.72,1.85-2.63a1.63,1.63,0,0,0,.08-1.13c-.39-1.1-.84-2.18-1.33-3.24a1.41,1.41,0,0,0-.79-.69c-1-.25-2.1-.39-3.15-.58a1.87,1.87,0,0,1-1.83-1.9,1.49,1.49,0,0,1,0-.21V53a1.81,1.81,0,0,1,1.6-2h.14c1-.16,1.91-.31,2.87-.44a1.28,1.28,0,0,0,1.2-1c.32-1,.85-2,1.2-3.07a1.53,1.53,0,0,0-.09-1.15c-.57-.94-1.26-1.81-1.88-2.73a1.63,1.63,0,0,1,0-2.31l.14-.11c.86-.9,1.74-1.77,2.65-2.62a1.68,1.68,0,0,1,2.37-.26.75.75,0,0,1,.14.12c.85.6,1.7,1.2,2.51,1.84a1,1,0,0,0,1.25.14,33.34,33.34,0,0,1,3.13-1.32,1,1,0,0,0,.83-.95c.12-1.06.36-2.11.56-3.16a1.73,1.73,0,0,1,1.8-1.66l.14,0h3.71c1.24,0,1.65.48,1.9,1.68.2,1,.3,2.06.55,3.06a1.58,1.58,0,0,0,.75,1,33.06,33.06,0,0,0,3.41,1.42,1.42,1.42,0,0,0,1.05-.11c.9-.56,1.75-1.23,2.63-1.83a1.74,1.74,0,0,1,2.46,0l.13.16c.86.85,1.71,1.71,2.54,2.58a1.64,1.64,0,0,1,.3,2.29,1.34,1.34,0,0,0-.11.14c-.62.92-1.32,1.78-1.9,2.72a1.47,1.47,0,0,0-.07,1.13,30,30,0,0,0,1.3,3.24,1.59,1.59,0,0,0,.89.74c1.07.26,2.17.39,3.25.61a1.73,1.73,0,0,1,1.61,1.84h0q.06,1.86,0,3.72a1.77,1.77,0,0,1-1.66,1.87h0c-1.09.18-2.19.33-3.26.58a1.32,1.32,0,0,0-.79.67c-.5,1.06-.87,2.17-1.39,3.22a1.06,1.06,0,0,0,.13,1.26c.64.86,1.24,1.74,1.83,2.64a1.63,1.63,0,0,1-.09,2.3l-.13.12c-.86.89-1.73,1.77-2.64,2.61A8.49,8.49,0,0,1,163.22,72.85Zm-13.13-7.31A10.69,10.69,0,1,0,139.45,54.8v0A10.79,10.79,0,0,0,150.09,65.54Z" style="fill:none;stroke:#fff;stroke-miterlimit:10"/></g><path d="M94.13,127.93H88.85l-1,3.95H85.65l4.68-18.2h2.32l4.68,18.2H95.09Zm-.47-2-1.48-6.17c-.29-1.17-.55-2.7-.65-3.4h-.08c-.1.7-.37,2.23-.65,3.4L89.32,126Z" style="fill:#fff"/><path d="M109.16,123.17V127c0,3.35-1.67,5.2-4.32,5.2a3.87,3.87,0,0,1-2.89-1.3v5.66h-2V118.18h1.54l.2,1.28a4,4,0,0,1,3.15-1.56C107.39,117.9,109.16,119.77,109.16,123.17Zm-2.08,0c0-2.36-1-3.38-2.6-3.38-1.44,0-2.53,1.1-2.53,3.33V127c0,2,1,3.27,2.53,3.27s2.6-1,2.6-3.27Z" style="fill:#fff"/><path d="M122,123.17V127c0,3.35-1.67,5.2-4.32,5.2a3.87,3.87,0,0,1-2.89-1.3v5.66h-2V118.18h1.54l.2,1.28a4,4,0,0,1,3.15-1.56C120.26,117.9,122,119.77,122,123.17Zm-2.08,0c0-2.36-1-3.38-2.6-3.38-1.43,0-2.53,1.1-2.53,3.33V127c0,2,1,3.27,2.53,3.27,1.71,0,2.6-1,2.6-3.27Z" style="fill:#fff"/><path d="M131.36,127.75h2a2.4,2.4,0,0,0,2.67,2.52c1.49,0,2.37-.75,2.37-2,0-3-6.89-2-6.89-6.63,0-2.29,1.69-3.77,4.29-3.77a4.09,4.09,0,0,1,4.39,4.29h-2a2.19,2.19,0,0,0-2.39-2.39c-1.4,0-2.24.73-2.24,1.9,0,2.88,6.9,1.76,6.9,6.63,0,2.34-1.72,3.92-4.4,3.92A4.37,4.37,0,0,1,131.36,127.75Z" style="fill:#fff"/><path d="M152.76,127.65a4.46,4.46,0,0,1-4.87,4.52c-2.78,0-4.55-1.82-4.55-5v-4.29c0-3.17,1.8-5,4.58-5s4.65,1.82,4.65,5v3h-7.15v1.25c0,2.08.94,3,2.53,3,1.74,0,2.54-.78,2.78-2.52Zm-7.34-4.81v1.37h5.13v-1.37c0-2.06-1-3-2.6-3S145.42,120.78,145.42,122.84Z" style="fill:#fff"/><path d="M162,130.12V132h-.86c-2.63,0-4.11-1.66-4.11-4.39v-7.57h-2v-1.87h2V115h2v3.2h2.65v1.87h-2.65v7.57c0,1.63.65,2.47,2.13,2.47Z" style="fill:#fff"/><path d="M170.75,130.12V132h-.86c-2.63,0-4.11-1.66-4.11-4.39v-7.57h-2v-1.87h2V115h2v3.2h2.65v1.87h-2.65v7.57c0,1.63.65,2.47,2.13,2.47Z" style="fill:#fff"/><path d="M173.32,114.38a1.35,1.35,0,0,1,1.43-1.42,1.36,1.36,0,0,1,1.43,1.42,1.38,1.38,0,0,1-1.43,1.41A1.34,1.34,0,0,1,173.32,114.38Zm.42,3.83h2v13.67h-2Z" style="fill:#fff"/><path d="M188.82,123.23v8.65h-2v-8.5c0-2.47-.68-3.56-2.24-3.56s-2.73,1.35-2.73,3.69v8.37h-2V118.21h1.53l.26,1.61a3.83,3.83,0,0,1,3.48-1.95C187.36,117.87,188.82,119.48,188.82,123.23Z" style="fill:#fff"/><path d="M201.61,118.21v14.48c0,2.55-1.74,4.21-4.47,4.21a4.11,4.11,0,0,1-4.47-4.11h2a2.22,2.22,0,0,0,2.47,2.21,2.17,2.17,0,0,0,2.42-2.31v-2.37a3.82,3.82,0,0,1-2.79,1.07c-2.62,0-4.42-1.85-4.42-4.94v-3.38c0-3.33,1.8-5.2,4.37-5.2a3.68,3.68,0,0,1,3.1,1.56l.23-1.22Zm-2.05,8.24v-3.59c0-2-1.07-3-2.45-3-1.69,0-2.68,1-2.68,3.25v3.38c0,2,1,3,2.68,3C198.65,129.47,199.56,128.48,199.56,126.45Z" style="fill:#fff"/><path d="M204.65,127.75h2a2.41,2.41,0,0,0,2.68,2.52c1.48,0,2.36-.75,2.36-2,0-3-6.89-2-6.89-6.63,0-2.29,1.69-3.77,4.29-3.77a4.1,4.1,0,0,1,4.4,4.29h-2a2.21,2.21,0,0,0-2.4-2.39c-1.4,0-2.23.73-2.23,1.9,0,2.88,6.89,1.76,6.89,6.63,0,2.34-1.72,3.92-4.4,3.92A4.38,4.38,0,0,1,204.65,127.75Z" style="fill:#fff"/></svg>