<svg id="Слой_1" data-name="Слой 1" xmlns="http://www.w3.org/2000/svg" viewBox="0 0 300 165"><g id="главная_страница" data-name="главная страница"><circle cx="134.5" cy="45.47" r="5" style="fill:none;stroke:#fff;stroke-miterlimit:10"/><circle cx="150" cy="63.39" r="5" style="fill:none;stroke:#fff;stroke-miterlimit:10"/><circle cx="165.5" cy="45.47" r="5" style="fill:none;stroke:#fff;stroke-miterlimit:10"/><path d="M134.5,50.47a4.91,4.91,0,0,1-2.5-.7V74.62a2.5,2.5,0,0,0,5,0V49.77A4.91,4.91,0,0,1,134.5,50.47Z" style="fill:none;stroke:#fff;stroke-miterlimit:10"/><path d="M134.5,40.47a5,5,0,0,1,2.5.65v-6.5a2.5,2.5,0,0,0-5,0v6.5A5,5,0,0,1,134.5,40.47Z" style="fill:none;stroke:#fff;stroke-miterlimit:10"/><path d="M150,58.39a5,5,0,0,1,2.5.7V34.62a2.5,2.5,0,0,0-5,0v24.5A5,5,0,0,1,150,58.39Z" style="fill:none;stroke:#fff;stroke-miterlimit:10"/><path d="M150,68.39a4.9,4.9,0,0,1-2.5-.69v6.92a2.5,2.5,0,0,0,5,0V67.7A4.9,4.9,0,0,1,150,68.39Z" style="fill:none;stroke:#fff;stroke-miterlimit:10"/><path d="M165.5,40.47a5,5,0,0,1,2.5.65v-6.5a2.5,2.5,0,0,0-5,0v6.5A5,5,0,0,1,165.5,40.47Z" style="fill:none;stroke:#fff;stroke-miterlimit:10"/><path d="M165.5,50.47a4.91,4.91,0,0,1-2.5-.7V74.62a2.5,2.5,0,0,0,5,0V49.77A4.91,4.91,0,0,1,165.5,50.47Z" style="fill:none;stroke:#fff;stroke-miterlimit:10"/></g><path d="M95.52,114.43v18.21H93.41v-8.35c0-2,.08-3.75.19-5.51l-.11,0c-.49,1.38-1.17,3.07-1.82,4.78l-1.9,4.92h-2.1l-1.93-4.92c-.62-1.71-1.32-3.4-1.79-4.78l-.13,0c.1,1.76.18,3.53.18,5.51v8.35H81.89V114.43h2.24l3.15,7.62c.44,1.1,1.09,2.89,1.37,3.83h.11c.31-.94,1-2.73,1.4-3.83l3.15-7.62Z" style="fill:#fff"/><path d="M108.34,123.35v9.29h-1.69l-.16-1.3a3.51,3.51,0,0,1-3.12,1.63,4,4,0,0,1-4.26-4.23c0-2.71,1.84-4.17,4.83-4.17h2.34v-1.19c0-1.8-.75-2.78-2.31-2.78a2.17,2.17,0,0,0-2.39,2.1H99.52c.11-2.49,1.85-4.08,4.5-4.08S108.34,120.39,108.34,123.35Zm-2.06,3.05h-2.36c-1.77,0-2.73.83-2.73,2.36s1,2.31,2.57,2.31a2.31,2.31,0,0,0,2.52-2.41Z" style="fill:#fff"/><path d="M111.92,115.14a1.43,1.43,0,0,1,2.86,0,1.37,1.37,0,0,1-1.43,1.4A1.35,1.35,0,0,1,111.92,115.14Zm.42,3.82h2v13.68h-2Z" style="fill:#fff"/><path d="M127.42,124v8.66h-2v-8.51c0-2.47-.67-3.56-2.23-3.56s-2.73,1.35-2.73,3.69v8.38h-2V119h1.53l.26,1.61a3.84,3.84,0,0,1,3.49-1.95C126,118.62,127.42,120.23,127.42,124Z" style="fill:#fff"/><path d="M137,128.5h2a2.4,2.4,0,0,0,2.68,2.52c1.48,0,2.36-.75,2.36-2,0-3-6.89-2-6.89-6.63,0-2.29,1.69-3.77,4.29-3.77a4.1,4.1,0,0,1,4.4,4.29h-2a2.21,2.21,0,0,0-2.4-2.39c-1.4,0-2.23.73-2.23,1.9,0,2.88,6.89,1.77,6.89,6.63,0,2.34-1.72,3.92-4.4,3.92A4.37,4.37,0,0,1,137,128.5Z" style="fill:#fff"/><path d="M158.36,128.4a4.46,4.46,0,0,1-4.86,4.52c-2.79,0-4.55-1.82-4.55-5v-4.29c0-3.17,1.79-5,4.57-5s4.66,1.82,4.66,5v3H151v1.24c0,2.08.93,3,2.52,3s2.55-.78,2.78-2.52ZM151,123.59V125h5.12v-1.38c0-2.06-1-3-2.6-3S151,121.53,151,123.59Z" style="fill:#fff"/><path d="M167.59,130.87v1.92h-.86c-2.63,0-4.11-1.66-4.11-4.39v-7.57h-2V119h2v-3.2h2V119h2.65v1.87h-2.65v7.57c0,1.64.65,2.47,2.13,2.47Z" style="fill:#fff"/><path d="M176.35,130.87v1.92h-.86c-2.62,0-4.11-1.66-4.11-4.39v-7.57h-2V119h2v-3.2h2V119h2.65v1.87h-2.65v7.57c0,1.64.65,2.47,2.13,2.47Z" style="fill:#fff"/><path d="M178.92,115.14a1.44,1.44,0,0,1,2.87,0,1.38,1.38,0,0,1-1.44,1.4A1.35,1.35,0,0,1,178.92,115.14Zm.42,3.82h2v13.68h-2Z" style="fill:#fff"/><path d="M194.42,124v8.66h-2v-8.51c0-2.47-.67-3.56-2.23-3.56s-2.73,1.35-2.73,3.69v8.38h-2V119h1.53l.26,1.61a3.84,3.84,0,0,1,3.49-1.95C193,118.62,194.42,120.23,194.42,124Z" style="fill:#fff"/><path d="M207.21,119v14.48c0,2.55-1.74,4.21-4.47,4.21a4.11,4.11,0,0,1-4.47-4.1h2a2.22,2.22,0,0,0,2.47,2.21,2.18,2.18,0,0,0,2.42-2.32v-2.37a3.8,3.8,0,0,1-2.78,1.07c-2.63,0-4.42-1.84-4.42-4.94v-3.38c0-3.33,1.79-5.2,4.36-5.2a3.68,3.68,0,0,1,3.1,1.56l.23-1.22Zm-2.05,8.24v-3.59c0-2-1.07-3-2.45-3-1.69,0-2.67,1-2.67,3.25v3.38c0,2,1,3,2.67,3C204.25,130.22,205.16,129.23,205.16,127.2Z" style="fill:#fff"/><path d="M210.25,128.5h2A2.41,2.41,0,0,0,215,131c1.48,0,2.37-.75,2.37-2,0-3-6.89-2-6.89-6.63,0-2.29,1.69-3.77,4.29-3.77a4.09,4.09,0,0,1,4.39,4.29h-2a2.2,2.2,0,0,0-2.39-2.39c-1.41,0-2.24.73-2.24,1.9,0,2.88,6.89,1.77,6.89,6.63,0,2.34-1.72,3.92-4.39,3.92A4.38,4.38,0,0,1,210.25,128.5Z" style="fill:#fff"/></svg>