<svg id="Слой_1" data-name="Слой 1" xmlns="http://www.w3.org/2000/svg" viewBox="0 0 300 165"><g id="главная_страница" data-name="главная страница"><path d="M163.41,75.69l-14.3-14.31A6.77,6.77,0,0,0,142.89,52a6.63,6.63,0,0,0-3.11.77l3.72,3.72a2,2,0,0,1-2.83,2.83l-3.74-3.74a6.75,6.75,0,0,0,8.66,9.36l14.29,14.29a2.5,2.5,0,0,0,3.53-3.53Z" style="fill:none;stroke:#000;stroke-linecap:round;stroke-linejoin:round"/><circle cx="165.07" cy="45.69" r="1.25"/><line x1="165.07" y1="45.69" x2="168.86" y2="52.25" style="fill:none;stroke:#000;stroke-linecap:round;stroke-miterlimit:10"/><line x1="165.07" y1="35.2" x2="165.07" y2="45.69" style="fill:none;stroke:#000;stroke-linecap:round;stroke-miterlimit:10"/><path d="M165.7,57.22a1.73,1.73,0,0,0-1.6-1.85h0c-1.08-.22-2.18-.34-3.25-.61A1.49,1.49,0,0,1,160,54a34.75,34.75,0,0,1-1.3-3.24,1.44,1.44,0,0,1,.08-1.13c.57-.94,1.27-1.8,1.89-2.72a1.63,1.63,0,0,0,0-2.3l-.14-.12c-.83-.88-1.68-1.74-2.54-2.58a1.73,1.73,0,0,0-2.41-.36l-.17.15c-.89.61-1.74,1.27-2.64,1.84a1.39,1.39,0,0,1-1,.11,35,35,0,0,1-3.41-1.42,1.65,1.65,0,0,1-.75-1c-.25-1-.35-2-.55-3.06s-.73-1.63-1.9-1.67-2.48,0-3.71,0-1.66.52-1.89,1.68-.44,2.1-.56,3.16a1,1,0,0,1-.83,1A31.8,31.8,0,0,0,135,43.65a1,1,0,0,1-1.25-.13c-.81-.65-1.66-1.25-2.51-1.84a1.69,1.69,0,0,0-2.39,0l-.12.13c-.91.85-1.79,1.73-2.64,2.62a1.63,1.63,0,0,0-.32,2.28l.13.15c.62.91,1.31,1.78,1.89,2.72a1.51,1.51,0,0,1,.08,1.16c-.35,1-.87,2-1.2,3.07a1.27,1.27,0,0,1-1.2,1c-1,.14-1.92.28-2.87.44a1.81,1.81,0,0,0-1.75,1.87s0,.09,0,.13v3.52a1.84,1.84,0,0,0,1.58,2.08l.23,0c1,.19,2.12.34,3.15.59a1.32,1.32,0,0,1,.79.69,35,35,0,0,1,1.33,3.24,1.5,1.5,0,0,1-.08,1.12c-.56.91-1.24,1.75-1.85,2.63a1.69,1.69,0,0,0,0,2.38l.15.13c.83.88,1.68,1.74,2.54,2.58a1.68,1.68,0,0,0,2.36.38l.22-.19a10.15,10.15,0,0,0,1.47-1.06c1.1-1.06,2-.93,3.5-.33a15.35,15.35,0,0,1,1.94.77,1.59,1.59,0,0,1,.71.9c.24,1,.36,2.1.56,3.15.25,1.21.71,1.64,1.89,1.69s2.48,0,3.71,0,1.66-.52,1.89-1.68a9.92,9.92,0,0,0,.34-1.87c0-1.53.74-2.11,2.19-2.63.55-.2,1.06-.46,1.56-.66l-5.25-5.24a10.07,10.07,0,0,1-2.51.28A10.69,10.69,0,1,1,153.91,59h0a10.67,10.67,0,0,1-.4,2.69l5.21,5.21c.43-.94.79-1.92,1.23-2.85a1.36,1.36,0,0,1,.79-.68c1.07-.25,2.17-.39,3.26-.58A1.75,1.75,0,0,0,165.7,61v-.07Q165.76,59.08,165.7,57.22Z" style="fill:none;stroke:#000;stroke-miterlimit:10"/><path d="M165.07,31.5a14.17,14.17,0,0,0-14,12l.55.22a1.39,1.39,0,0,0,1-.11c.9-.57,1.75-1.23,2.64-1.84a1.71,1.71,0,0,1,2.43,0,1.22,1.22,0,0,1,.15.17c.86.84,1.71,1.7,2.54,2.58a1.63,1.63,0,0,1,.31,2.28l-.12.14c-.62.92-1.32,1.78-1.89,2.72a1.44,1.44,0,0,0-.08,1.13A33.15,33.15,0,0,0,160,54a1.52,1.52,0,0,0,.89.74c1.07.27,2.17.39,3.25.61a1.73,1.73,0,0,1,1.61,1.84h0v2.64a14.19,14.19,0,0,0-.65-28.36Z" style="fill:none;stroke:#000;stroke-miterlimit:10"/></g><path d="M71,127.8h2.16a2.84,2.84,0,0,0,3,3.12A2.69,2.69,0,0,0,79.06,128c0-3.9-7.83-4-7.83-9.36,0-2.57,1.93-4.52,4.87-4.52s4.81,2,4.91,5H78.85c-.08-2-1.14-2.94-2.73-2.94a2.44,2.44,0,0,0-2.73,2.5c0,3.87,7.86,3.79,7.86,9.36a4.82,4.82,0,0,1-5.1,5A4.89,4.89,0,0,1,71,127.8Z"/><path d="M93.46,128.4a4.45,4.45,0,0,1-4.86,4.52c-2.78,0-4.55-1.82-4.55-5v-4.29c0-3.17,1.8-5,4.58-5s4.65,1.82,4.65,5v3H86.13v1.24c0,2.08.94,3,2.52,3,1.75,0,2.55-.78,2.79-2.52Zm-7.33-4.81V125h5.12v-1.38c0-2.06-1-3-2.6-3S86.13,121.53,86.13,123.59Z"/><path d="M102.69,130.87v1.92h-.85c-2.63,0-4.11-1.66-4.11-4.39v-7.57h-2V119h2v-3.2h2V119h2.65v1.87H99.76v7.57c0,1.64.65,2.47,2.13,2.47Z"/><path d="M111.46,130.87v1.92h-.86c-2.63,0-4.11-1.66-4.11-4.39v-7.57h-2V119h2v-3.2h2V119h2.65v1.87h-2.65v7.57c0,1.64.65,2.47,2.13,2.47Z"/><path d="M114,115.14a1.35,1.35,0,0,1,1.43-1.43,1.42,1.42,0,1,1,0,2.83A1.34,1.34,0,0,1,114,115.14Zm.42,3.82h2v13.68h-2Z"/><path d="M129.53,124v8.66h-2v-8.51c0-2.47-.68-3.56-2.24-3.56s-2.73,1.35-2.73,3.69v8.38h-2V119H122l.26,1.61a3.85,3.85,0,0,1,3.48-1.95C128.07,118.62,129.53,120.23,129.53,124Z"/><path d="M142.32,119v14.48c0,2.55-1.74,4.21-4.47,4.21a4.11,4.11,0,0,1-4.48-4.1h2a2.21,2.21,0,0,0,2.47,2.21,2.17,2.17,0,0,0,2.41-2.32v-2.36a3.82,3.82,0,0,1-2.78,1.06c-2.62,0-4.42-1.84-4.42-4.94v-3.38c0-3.33,1.8-5.2,4.37-5.2a3.65,3.65,0,0,1,3.09,1.56l.24-1.22Zm-2.06,8.24v-3.59c0-2-1.06-3-2.44-3-1.69,0-2.68,1-2.68,3.25v3.38c0,2,1,3,2.68,3C139.35,130.22,140.26,129.23,140.26,127.2Z"/><path d="M145.36,128.5h2a2.4,2.4,0,0,0,2.68,2.52c1.48,0,2.36-.75,2.36-2,0-3-6.89-2-6.89-6.63,0-2.29,1.69-3.77,4.29-3.77a4.1,4.1,0,0,1,4.4,4.29h-2a2.19,2.19,0,0,0-2.39-2.39c-1.4,0-2.23.73-2.23,1.9,0,2.88,6.89,1.77,6.89,6.63,0,2.34-1.72,3.92-4.4,3.92A4.37,4.37,0,0,1,145.36,128.5Z"/><path d="M178.67,119l-3.33,13.68H173.1l-1.4-5.85a46,46,0,0,1-.94-5.05h-.08a45.66,45.66,0,0,1-.93,5.05l-1.43,5.85h-2.21L162.78,119h2.13l1.46,6.76c.31,1.48.67,3.67.83,4.52h.08c.15-1,.54-3.19.91-4.81l1.43-6.21h2.18l1.46,6.21c.34,1.62.75,3.83.91,4.81h.08c.13-.85.52-3,.83-4.52l1.45-6.76Z"/><path d="M180.8,115.14a1.35,1.35,0,0,1,1.43-1.43,1.42,1.42,0,1,1,0,2.83A1.34,1.34,0,0,1,180.8,115.14Zm.41,3.82h2.06v13.68h-2.06Z"/><path d="M194.5,130.74v1.9H186v-1.49l5.74-10.32h-5.41V119h7.94v1.46l-5.75,10.32Z"/><path d="M206,123.35v9.29h-1.68l-.16-1.3A3.51,3.51,0,0,1,201,133a4,4,0,0,1-4.27-4.23c0-2.71,1.85-4.16,4.84-4.16h2.34v-1.2c0-1.8-.75-2.78-2.31-2.78a2.18,2.18,0,0,0-2.39,2.1h-2.06c.1-2.49,1.85-4.08,4.5-4.08S206,120.39,206,123.35Zm-2.05,3.05h-2.37c-1.76,0-2.73.83-2.73,2.36s1,2.32,2.58,2.32a2.32,2.32,0,0,0,2.52-2.42Z"/><path d="M216.73,118.83v2.08a4.87,4.87,0,0,0-1.72-.29c-1.82,0-3,1.33-3,3.64v8.38h-2V119h1.53l.29,1.66a3.84,3.84,0,0,1,3.54-2A4.62,4.62,0,0,1,216.73,118.83Z"/><path d="M228.2,113.81v18.83h-1.54l-.21-1.28a3.93,3.93,0,0,1-3.14,1.59c-2.55,0-4.32-1.87-4.32-5.28v-3.85c0-3.35,1.66-5.2,4.32-5.2a3.85,3.85,0,0,1,2.88,1.3v-6.11Zm-2,10c0-2-1-3.28-2.52-3.28s-2.6,1-2.6,3.28v3.85c0,2.34,1,3.35,2.6,3.35,1.43,0,2.52-1.06,2.52-3.32Z"/></svg>