<svg id="Слой_1" data-name="Слой 1" xmlns="http://www.w3.org/2000/svg" viewBox="0 0 300 165"><g id="главная_страница" data-name="главная страница"><path d="M163.13,72.85c-.54-.3-1-.52-1.46-.82-.88-.6-1.68-1.6-2.63-1.76s-1.9.69-2.9.89A2.34,2.34,0,0,0,154,73.69a.28.28,0,0,0,0,.09,11.08,11.08,0,0,1-.34,1.88,1.75,1.75,0,0,1-1.76,1.72H148c-1.23,0-1.65-.48-1.89-1.68-.21-1-.32-2.12-.57-3.16a1.53,1.53,0,0,0-.7-.89,16.55,16.55,0,0,1-2-.77,2.39,2.39,0,0,0-3.38.19.76.76,0,0,0-.11.14,13.12,13.12,0,0,1-1.47,1,1.69,1.69,0,0,1-2.39,0,1.24,1.24,0,0,1-.19-.21c-.87-.84-1.71-1.7-2.54-2.58a1.68,1.68,0,0,1-.3-2.36.67.67,0,0,1,.14-.15c.61-.88,1.29-1.72,1.85-2.63a1.63,1.63,0,0,0,.08-1.13c-.39-1.1-.84-2.18-1.33-3.24a1.41,1.41,0,0,0-.79-.69c-1-.25-2.1-.39-3.15-.58a1.87,1.87,0,0,1-1.83-1.9,1.49,1.49,0,0,1,0-.21V53a1.81,1.81,0,0,1,1.6-2h.14c1-.16,1.91-.31,2.87-.44a1.28,1.28,0,0,0,1.2-1c.32-1,.85-2,1.2-3.07a1.53,1.53,0,0,0-.09-1.15c-.57-.94-1.26-1.81-1.88-2.73a1.63,1.63,0,0,1,0-2.31l.14-.11c.86-.9,1.74-1.77,2.65-2.62a1.68,1.68,0,0,1,2.37-.26.75.75,0,0,1,.14.12c.85.6,1.7,1.2,2.51,1.84a1,1,0,0,0,1.25.14,33.34,33.34,0,0,1,3.13-1.32,1,1,0,0,0,.83-.95c.12-1.06.36-2.11.56-3.16a1.73,1.73,0,0,1,1.8-1.66l.14,0h3.71c1.24,0,1.65.48,1.9,1.68.2,1,.3,2.06.55,3.06a1.58,1.58,0,0,0,.75,1,33.06,33.06,0,0,0,3.41,1.42,1.42,1.42,0,0,0,1.05-.11c.9-.56,1.75-1.23,2.63-1.83a1.74,1.74,0,0,1,2.46,0l.13.16c.86.85,1.71,1.71,2.54,2.58a1.64,1.64,0,0,1,.3,2.29,1.34,1.34,0,0,0-.11.14c-.62.92-1.32,1.78-1.9,2.72a1.47,1.47,0,0,0-.07,1.13,30,30,0,0,0,1.3,3.24,1.59,1.59,0,0,0,.89.74c1.07.26,2.17.39,3.25.61a1.73,1.73,0,0,1,1.61,1.84h0q.06,1.86,0,3.72a1.77,1.77,0,0,1-1.66,1.87h0c-1.09.18-2.19.33-3.26.58a1.32,1.32,0,0,0-.79.67c-.5,1.06-.87,2.17-1.39,3.22a1.06,1.06,0,0,0,.13,1.26c.64.86,1.24,1.74,1.83,2.64a1.63,1.63,0,0,1-.09,2.3l-.13.12c-.86.89-1.73,1.77-2.64,2.61A8.49,8.49,0,0,1,163.13,72.85ZM150,65.54A10.69,10.69,0,1,0,139.36,54.8v0A10.79,10.79,0,0,0,150,65.54Z" style="fill:none;stroke:#fff;stroke-miterlimit:10"/></g><path d="M22.9,113.68v18.2H20.74v-8.24H15v8.24H12.81v-18.2H15v8h5.77v-8Z" style="fill:#fff"/><path d="M35.69,122.6v9.28H34l-.15-1.3a3.49,3.49,0,0,1-3.12,1.64A4,4,0,0,1,26.46,128c0-2.7,1.85-4.16,4.84-4.16h2.34v-1.19c0-1.8-.75-2.78-2.31-2.78a2.19,2.19,0,0,0-2.4,2.1H26.88c.1-2.49,1.85-4.08,4.5-4.08S35.69,119.64,35.69,122.6Zm-2,3H31.27c-1.76,0-2.73.84-2.73,2.37s1,2.31,2.58,2.31a2.31,2.31,0,0,0,2.52-2.41Z" style="fill:#fff"/><path d="M39.36,127.2v-4.39c0-3.15,1.77-4.94,4.52-4.94s4.53,1.79,4.63,4.94H46.43c0-2-1-3-2.55-3s-2.44,1-2.44,3v4.39c0,2,.91,3,2.44,3s2.53-.94,2.6-3h2.06c-.08,3.18-1.85,5-4.66,5S39.36,130.38,39.36,127.2Z" style="fill:#fff"/><path d="M59,120.11H55.74v11.77h-2V120.11H50.46v-1.9H59Z" style="fill:#fff"/><path d="M70.87,123.17V127c0,3.35-1.66,5.2-4.31,5.2a3.85,3.85,0,0,1-2.89-1.3v5.66h-2V118.18H63.2l.21,1.28a4,4,0,0,1,3.15-1.56C69.1,117.9,70.87,119.77,70.87,123.17Zm-2.08,0c0-2.36-1-3.38-2.6-3.38-1.43,0-2.52,1.1-2.52,3.33V127c0,2,1,3.27,2.52,3.27,1.72,0,2.6-1,2.6-3.27Z" style="fill:#fff"/><path d="M74.2,127.13v-4.19c0-3.28,1.84-5.07,4.71-5.07s4.67,1.79,4.67,5.07v4.19c0,3.27-1.82,5.07-4.67,5.07S74.2,130.4,74.2,127.13Zm7.33,0v-4.19c0-2.13-1-3.07-2.62-3.07s-2.63.94-2.63,3.07v4.19c0,2.13,1,3.09,2.63,3.09S81.53,129.26,81.53,127.13Z" style="fill:#fff"/><path d="M87.28,118.21h2V125c0,1,0,2.18,0,3.43l0,0c.23-.62.83-2.13,1.19-3L94,118.21H96v13.67h-2v-6.29c0-1.35,0-2.78.11-4l0,0c-.19.59-.84,2.31-1.33,3.35l-3.43,7H87.28Zm1.38-5.2h1.55c.08,1,.55,1.53,1.46,1.53s1.41-.52,1.46-1.53h1.58a3,3,0,1,1-6,0Z" style="fill:#fff"/><path d="M103.06,125.7l-1,1.11v5.07h-2V118.21h2v6c.62-.86,1.22-1.72,1.82-2.52l2.63-3.51H109l-4.66,5.87,5.31,7.8h-2.42Z" style="fill:#fff"/><path d="M112.05,118.21h2V125c0,1,0,2.18-.06,3.43l.06,0c.23-.62.83-2.13,1.19-3l3.49-7.28h2.08v13.67h-2v-6.29c0-1.35,0-2.78.11-4l-.06,0a34.6,34.6,0,0,1-1.32,3.35l-3.44,7h-2.08Z" style="fill:#fff"/><path d="M134.39,125.7l-1,1.11v5.07h-2V118.21h2v6c.62-.86,1.22-1.72,1.82-2.52l2.63-3.51h2.52l-4.66,5.87,5.31,7.8H138.6Z" style="fill:#fff"/><path d="M142.47,127.13v-4.19c0-3.28,1.85-5.07,4.71-5.07s4.68,1.79,4.68,5.07v4.19c0,3.27-1.82,5.07-4.68,5.07S142.47,130.4,142.47,127.13Zm7.34,0v-4.19c0-2.13-1-3.07-2.63-3.07s-2.63.94-2.63,3.07v4.19c0,2.13,1,3.09,2.63,3.09S149.81,129.26,149.81,127.13Z" style="fill:#fff"/><path d="M164,118.21v13.67H162V125.8h-4.49v6.08h-2V118.21h2v5.67H162v-5.67Z" style="fill:#fff"/><path d="M181.21,123.38v3.33c0,3.41-2.21,5.36-5.14,5.36h-.6v4.49h-2v-4.49h-.6a5,5,0,0,1-5.18-5.36v-3.33c0-3.43,2.21-5.38,5.18-5.38h.6v-4.86h2V118h.6C179,118,181.21,120,181.21,123.38Zm-7.74,6.71V120h-.6c-1.74,0-3.1,1.09-3.1,3.4v3.33c0,2.26,1.36,3.38,3.1,3.38Zm5.69-6.71c0-2.31-1.35-3.4-3.09-3.4h-.6v10.11h.6c1.71,0,3.09-1.12,3.09-3.38Z" style="fill:#fff"/><path d="M184.91,118.21h2V125c0,1,0,2.18,0,3.43l0,0c.23-.62.83-2.13,1.19-3l3.49-7.28h2.08v13.67h-2v-6.29c0-1.35,0-2.78.11-4l-.06,0a34.6,34.6,0,0,1-1.32,3.35l-3.43,7h-2.08Z" style="fill:#fff"/><path d="M204.64,120.16h-4.91v11.72h-2.06v-13.7h7Z" style="fill:#fff"/><path d="M216.24,118.21l-4.48,15c-.62,2.15-1.5,3.58-3.48,3.58h-1.12v-2h.78c1.12,0,1.48-.83,1.82-1.95l.73-2.42-4.39-12.27h2.15l3.12,9.28,2.76-9.28Z" style="fill:#fff"/><path d="M228,123.17V127c0,3.35-1.67,5.2-4.32,5.2a3.83,3.83,0,0,1-2.88-1.3v5.66h-2V118.18h1.54l.2,1.28a4,4,0,0,1,3.15-1.56C226.22,117.9,228,119.77,228,123.17Zm-2.08,0c0-2.36-1-3.38-2.6-3.38-1.43,0-2.52,1.1-2.52,3.33V127c0,2,1,3.27,2.52,3.27,1.71,0,2.6-1,2.6-3.27Z" style="fill:#fff"/><path d="M240.16,122.6v9.28h-1.7l-.15-1.3a3.49,3.49,0,0,1-3.12,1.64,4,4,0,0,1-4.27-4.24c0-2.7,1.85-4.16,4.84-4.16h2.34v-1.19c0-1.8-.75-2.78-2.31-2.78a2.19,2.19,0,0,0-2.4,2.1h-2c.11-2.49,1.85-4.08,4.5-4.08S240.16,119.64,240.16,122.6Zm-2.06,3h-2.36c-1.77,0-2.74.84-2.74,2.37s1,2.31,2.58,2.31a2.31,2.31,0,0,0,2.52-2.41Z" style="fill:#fff"/><path d="M251,120.11h-3.25v11.77h-2V120.11h-3.25v-1.9H251Z" style="fill:#fff"/><path d="M252.84,127.13v-4.19c0-3.28,1.85-5.07,4.71-5.07s4.68,1.79,4.68,5.07v4.19c0,3.27-1.82,5.07-4.68,5.07S252.84,130.4,252.84,127.13Zm7.33,0v-4.19c0-2.13-1-3.07-2.62-3.07s-2.63.94-2.63,3.07v4.19c0,2.13,1,3.09,2.63,3.09S260.17,129.26,260.17,127.13Z" style="fill:#fff"/><path d="M275.12,123.17V127c0,3.35-1.66,5.2-4.31,5.2a3.87,3.87,0,0,1-2.89-1.3v5.66h-2V118.18h1.53l.21,1.28a4,4,0,0,1,3.15-1.56C273.36,117.9,275.12,119.77,275.12,123.17Zm-2.08,0c0-2.36-1-3.38-2.6-3.38-1.43,0-2.52,1.1-2.52,3.33V127c0,2,1,3.27,2.52,3.27,1.72,0,2.6-1,2.6-3.27Z" style="fill:#fff"/><path d="M287.29,122.6v9.28H285.6l-.15-1.3a3.49,3.49,0,0,1-3.12,1.64,4,4,0,0,1-4.27-4.24c0-2.7,1.85-4.16,4.84-4.16h2.34v-1.19c0-1.8-.76-2.78-2.32-2.78a2.18,2.18,0,0,0-2.39,2.1h-2c.1-2.49,1.84-4.08,4.5-4.08S287.29,119.64,287.29,122.6Zm-2.05,3h-2.37c-1.77,0-2.73.84-2.73,2.37s1,2.31,2.58,2.31a2.31,2.31,0,0,0,2.52-2.41Z" style="fill:#fff"/></svg>