<svg id="Слой_1" data-name="Слой 1" xmlns="http://www.w3.org/2000/svg" viewBox="0 0 100 66.32"><g id="Тарировка"><path d="M49.05,11.72a1.14,1.14,0,0,1-.3-.8,1,1,0,0,1,.9-1.1h.1a.1.1,0,0,1,.1-.1,1.1,1.1,0,1,1,0,2.2h0A.79.79,0,0,1,49.05,11.72Zm0,2.3h1.7V25h-1.6Z" style="fill:#fff"/><circle cx="50.15" cy="17.32" r="14.5" style="fill:none;stroke:#fff;stroke-linecap:round;stroke-linejoin:round"/></g><path d="M24.57,58.93V54.06c0-2.16,1.23-3.36,3-3.36s3,1.15,3.11,3.23h-1c-.12-1.58-.88-2.33-2.15-2.33s-2,.8-2,2.46v4.87c0,1.66.86,2.46,2.1,2.46s2-.78,2.17-2.33h1c-.16,2-1.29,3.23-3.13,3.23S24.57,61.09,24.57,58.93Z" style="fill:#fff"/><path d="M38,62.1H37V54.59H33.8V62.1h-.94V53.69H38Z" style="fill:#fff"/><path d="M46,56.72v2.42c0,2.08-1,3.15-2.61,3.15a2.41,2.41,0,0,1-2-.94V65h-.92V53.69h.76l.13.79a2.39,2.39,0,0,1,2-1C44.94,53.5,46,54.59,46,56.72Zm-1,0c0-1.65-.69-2.34-1.86-2.34-1,0-1.75.74-1.75,2.31v2.45c0,1.34.69,2.27,1.75,2.27,1.23,0,1.86-.67,1.86-2.27Z" style="fill:#fff"/><path d="M53.45,56.29V62.1h-.82l-.08-.79a2.24,2.24,0,0,1-1.93,1A2.46,2.46,0,0,1,48,59.71c0-1.61,1-2.51,2.88-2.51h1.67v-.9c0-1.23-.58-1.89-1.67-1.89a1.53,1.53,0,0,0-1.68,1.48h-.94a2.44,2.44,0,0,1,2.65-2.39A2.49,2.49,0,0,1,53.45,56.29Zm-.94,3.44V58.08h-1.7c-1.23,0-1.89.58-1.89,1.65s.75,1.63,1.84,1.63A1.6,1.6,0,0,0,52.51,59.73Z" style="fill:#fff"/><path d="M61.23,59.68c0,1.52-.95,2.42-2.74,2.42H56V53.71h2.21c1.63,0,2.56.86,2.56,2.24a2.16,2.16,0,0,1-1,1.7A2.21,2.21,0,0,1,61.23,59.68ZM57,57.3h1.26c1.09,0,1.64-.52,1.64-1.35s-.55-1.34-1.64-1.34H57Zm3.31,2.38c0-.94-.59-1.49-1.81-1.49H57v3h1.5C59.69,61.2,60.28,60.66,60.28,59.68Z" style="fill:#fff"/><path d="M64.89,58.08l-.66.8V62.1h-.94V53.69h.94V57.5c.42-.49.83-1,1.25-1.52l1.87-2.29h1.22l-3.06,3.65L69,62.1H67.82Z" style="fill:#fff"/><path d="M75.31,56.29V62.1h-.82l-.08-.79a2.25,2.25,0,0,1-1.94,1,2.45,2.45,0,0,1-2.65-2.58c0-1.61,1-2.51,2.88-2.51h1.66v-.9c0-1.23-.57-1.89-1.66-1.89A1.53,1.53,0,0,0,71,55.89h-1a2.45,2.45,0,0,1,2.66-2.39A2.49,2.49,0,0,1,75.31,56.29Zm-1,3.44V58.08H72.67c-1.24,0-1.89.58-1.89,1.65s.75,1.63,1.84,1.63A1.59,1.59,0,0,0,74.36,59.73Z" style="fill:#fff"/></svg>