<svg id="Слой_1" data-name="Слой 1" xmlns="http://www.w3.org/2000/svg" viewBox="0 0 100 66.32"><g id="Тарировка"><path d="M49.05,11.72a1.14,1.14,0,0,1-.3-.8,1,1,0,0,1,.9-1.1h.1a.1.1,0,0,1,.1-.1,1.1,1.1,0,1,1,0,2.2h0A.79.79,0,0,1,49.05,11.72Zm0,2.3h1.7V25h-1.6Z" style="fill:#fff"/><circle cx="50.15" cy="17.32" r="14.5" style="fill:none;stroke:#fff;stroke-linecap:round;stroke-linejoin:round"/></g><path d="M40.11,50.89V62.1h-1V50.89Z" style="fill:#fff"/><path d="M48.26,56.72V62.1h-.95V56.86c0-1.69-.44-2.46-1.55-2.46s-1.94,1-1.94,2.61V62.1h-.94V53.69h.78l.16,1A2.4,2.4,0,0,1,46,53.5C47.36,53.5,48.26,54.41,48.26,56.72Z" style="fill:#fff"/><path d="M52.14,53v.7H54v.87H52.14V62.1H51.2V54.56H49.92v-.87H51.2V53a2.37,2.37,0,0,1,2.51-2.69h.45v.86h-.45C52.72,51.16,52.14,51.73,52.14,53Z" style="fill:#fff"/><path d="M55.66,59.25V56.54c0-2,1.12-3,2.8-3s2.81,1.07,2.81,3v2.71c0,2-1.13,3-2.81,3S55.66,61.22,55.66,59.25Zm4.64,0V56.54c0-1.45-.7-2.11-1.84-2.11s-1.84.66-1.84,2.11v2.71c0,1.45.71,2.11,1.84,2.11S60.3,60.7,60.3,59.25Z" style="fill:#fff"/></svg>