<svg id="Слой_1" data-name="Слой 1" xmlns="http://www.w3.org/2000/svg" viewBox="0 0 100 66.32"><polygon points="66.84 23.8 43.38 23.8 43.38 30.31 27.74 16.63 43.38 2.94 43.38 9.46 66.84 9.46 66.84 23.8" style="fill:none;stroke:#fff;stroke-miterlimit:10"/><path d="M24.66,51v11.2h-1V56.27c0-1.18,0-2.18.09-3.17l-.06,0c-.29.8-.74,1.88-1.15,3l-1.38,3.52h-1L18.8,56c-.41-1.07-.86-2.15-1.15-3l-.07,0c.07,1,.1,2,.1,3.17v5.92h-1V51h1.06l2,4.83c.28.72.68,1.87.89,2.5h.07c.2-.63.6-1.78.89-2.5l2-4.83Z" style="fill:#fff"/><path d="M32.47,56.38v5.81h-.82l-.08-.78a2.24,2.24,0,0,1-1.94,1A2.45,2.45,0,0,1,27,59.81c0-1.62,1-2.52,2.88-2.52h1.66V56.4c0-1.23-.57-1.89-1.66-1.89A1.53,1.53,0,0,0,28.18,56h-.95a2.45,2.45,0,0,1,2.66-2.38A2.49,2.49,0,0,1,32.47,56.38Zm-.95,3.44V58.17H29.83c-1.24,0-1.89.58-1.89,1.65s.75,1.64,1.84,1.64A1.6,1.6,0,0,0,31.52,59.82Z" style="fill:#fff"/><path d="M34.75,51.47a.77.77,0,1,1,.77.77A.72.72,0,0,1,34.75,51.47Zm.31,2.32H36v8.4h-.94Z" style="fill:#fff"/><path d="M44,56.81v5.38H43V57c0-1.7-.45-2.47-1.56-2.47s-1.93,1-1.93,2.61v5.09h-.95v-8.4h.79l.16,1a2.37,2.37,0,0,1,2.17-1.23C43.07,53.6,44,54.51,44,56.81Z" style="fill:#fff"/><path d="M60.16,56.85v5.34h-.94V56.93c0-1.76-.53-2.44-1.44-2.44-1.14,0-1.92,1-1.92,2.61v5.09h-1V56.93c0-1.76-.56-2.44-1.48-2.44-1.13,0-1.88,1-1.88,2.61v5.09h-.94v-8.4h.78l.15,1.09a2.23,2.23,0,0,1,2.09-1.28,2,2,0,0,1,2,1.61A2.38,2.38,0,0,1,58,53.6C59.28,53.6,60.16,54.62,60.16,56.85Z" style="fill:#fff"/><path d="M68.08,59.62a2.68,2.68,0,0,1-2.93,2.73c-1.63,0-2.7-1.07-2.7-3V56.59c0-1.92,1.09-3,2.72-3a2.68,2.68,0,0,1,2.8,3v1.86H63.41v.91c0,1.41.67,2.06,1.78,2.06a1.74,1.74,0,0,0,2-1.8Zm-4.67-3v1H67v-1c0-1.41-.69-2.06-1.84-2.06S63.41,55.18,63.41,56.59Z" style="fill:#fff"/><path d="M75.71,56.81v5.38h-.94V57c0-1.7-.45-2.47-1.55-2.47s-1.94,1-1.94,2.61v5.09h-.94v-8.4h.78l.16,1a2.38,2.38,0,0,1,2.18-1.23C74.82,53.6,75.71,54.51,75.71,56.81Z" style="fill:#fff"/><path d="M83.49,53.79v8.4h-.78l-.17-1a2.37,2.37,0,0,1-2.17,1.23c-1.36,0-2.26-.91-2.26-3.21V53.79h1V59c0,1.7.44,2.47,1.55,2.47s1.93-1,1.93-2.61V53.79Z" style="fill:#fff"/></svg>