<svg xmlns="http://www.w3.org/2000/svg" viewBox="0 0 100 100"><defs><style>.cls-1{fill:none;stroke:#1d1d1b;stroke-miterlimit:10;}</style></defs><g id="Тарировка"><path d="M28.27,72.71v8.4h-.89V76.67c0-.84,0-1.64.08-2.38h-.05c-.09.21-.29.65-.61,1.29l-.43.92-1.24,2.64h-.89L23,76.49l-.43-.92c-.32-.64-.52-1.08-.61-1.29h-.05c.05.74.08,1.54.08,2.38v4.44H21.1v-8.4h.95l1.8,3.62c.23.48.5,1.1.81,1.87h.05c.31-.77.58-1.39.81-1.87l1.8-3.62Z"/><path d="M34.39,75.23A2,2,0,0,1,35,76.75v4.36h-.73l-.08-.6a2.17,2.17,0,0,1-1.74.74,2.7,2.7,0,0,1-1.73-.52,1.68,1.68,0,0,1-.66-1.41,1.62,1.62,0,0,1,.68-1.4,3.27,3.27,0,0,1,1.91-.49h1.5v-.67a1.39,1.39,0,0,0-.38-1.05,1.59,1.59,0,0,0-1.12-.36,1.77,1.77,0,0,0-1.06.29,1.08,1.08,0,0,0-.45.81H30.3a1.67,1.67,0,0,1,.69-1.3,2.72,2.72,0,0,1,1.7-.49A2.41,2.41,0,0,1,34.39,75.23Zm-.65,5a1.21,1.21,0,0,0,.42-1V78.09H32.63a2.11,2.11,0,0,0-1.26.32,1.07,1.07,0,0,0-.44.92,1,1,0,0,0,.45.91,2.07,2.07,0,0,0,1.21.31A1.74,1.74,0,0,0,33.74,80.19Z"/><path d="M37,73.49a.52.52,0,0,1-.19-.42.5.5,0,0,1,.19-.42.72.72,0,0,1,.5-.16.76.76,0,0,1,.51.16.52.52,0,0,1,.18.42.54.54,0,0,1-.18.42.81.81,0,0,1-.51.15A.76.76,0,0,1,37,73.49Zm.08,1.32h.85v6.3h-.85Z"/><path d="M44.25,75.24a2.63,2.63,0,0,1,.54,1.83v4h-.85V77.18a2.35,2.35,0,0,0-.33-1.4,1.24,1.24,0,0,0-1.07-.45,1.64,1.64,0,0,0-1.27.53,2.05,2.05,0,0,0-.47,1.43v3.82H40v-6.3h.71l.14.78a2,2,0,0,1,.79-.69,2.66,2.66,0,0,1,1.17-.24A1.93,1.93,0,0,1,44.25,75.24Z"/><path d="M58.26,75.27a2.76,2.76,0,0,1,.52,1.83v4h-.85v-4a2.29,2.29,0,0,0-.33-1.39,1.13,1.13,0,0,0-1-.44,1.59,1.59,0,0,0-1.25.53,2,2,0,0,0-.48,1.43v3.82h-.85v-4a2.22,2.22,0,0,0-.34-1.39,1.21,1.21,0,0,0-1-.44,1.55,1.55,0,0,0-1.22.53A2,2,0,0,0,51,77.29v3.82h-.85v-6.3h.7l.13.81a2.07,2.07,0,0,1,.76-.71,2.45,2.45,0,0,1,1.13-.25A2.06,2.06,0,0,1,54,75a1.79,1.79,0,0,1,.69.91,2.13,2.13,0,0,1,.8-.88,2.43,2.43,0,0,1,1.31-.33A1.81,1.81,0,0,1,58.26,75.27Z"/><path d="M65.57,79.17a2.09,2.09,0,0,1-.75,1.53,2.87,2.87,0,0,1-1.83.53,2.58,2.58,0,0,1-1.78-.59A2.11,2.11,0,0,1,60.56,79V76.91a2.1,2.1,0,0,1,.66-1.66A2.66,2.66,0,0,1,63,74.66a2.75,2.75,0,0,1,1.84.59,2.08,2.08,0,0,1,.68,1.66V78.3H61.42V79a1.52,1.52,0,0,0,.42,1.17,1.71,1.71,0,0,0,1.18.38,1.87,1.87,0,0,0,1.2-.33,1.51,1.51,0,0,0,.5-1Zm-3.73-3.43a1.52,1.52,0,0,0-.42,1.17v.73H64.7v-.73a1.49,1.49,0,0,0-.43-1.17,1.82,1.82,0,0,0-1.22-.38A1.79,1.79,0,0,0,61.84,75.74Z"/><path d="M71.67,75.24a2.63,2.63,0,0,1,.53,1.83v4h-.84V77.18a2.27,2.27,0,0,0-.34-1.4A1.22,1.22,0,0,0,70,75.33a1.64,1.64,0,0,0-1.27.53,2,2,0,0,0-.47,1.43v3.82h-.85v-6.3h.7l.15.78A2,2,0,0,1,69,74.9a2.58,2.58,0,0,1,1.16-.24A1.94,1.94,0,0,1,71.67,75.24Z"/><path d="M78.91,74.81v6.3h-.7l-.14-.78a2.11,2.11,0,0,1-.8.68,2.58,2.58,0,0,1-1.16.24,1.91,1.91,0,0,1-1.5-.58,2.63,2.63,0,0,1-.53-1.83v-4h.85v3.92a2.35,2.35,0,0,0,.33,1.4,1.22,1.22,0,0,0,1.06.45,1.66,1.66,0,0,0,1.27-.52,2.05,2.05,0,0,0,.48-1.44V74.81Z"/><polygon class="cls-1" points="63 44 45 44 45 49 33 38.5 45 28 45 33 63 33 63 44"/></g></svg>