<svg xmlns="http://www.w3.org/2000/svg" viewBox="0 0 100 100"><defs><style>.cls-1{fill:none;stroke:#1a1a18;stroke-linecap:round;stroke-linejoin:round;}</style></defs><g id="Тарировка"><path d="M49.26,39.11a.73.73,0,0,1-.22-.56.74.74,0,0,1,.79-.79.8.8,0,0,1,.57.21.78.78,0,0,1,.22.58.72.72,0,0,1-.22.55.78.78,0,0,1-.57.23A.74.74,0,0,1,49.26,39.11Zm0,1.56h1.14v7.57H49.27Z"/><path d="M44.41,72.71v8.4h-.89V77.18H39.93v3.93H39v-8.4h.89v3.78h3.59V72.71Z"/><path d="M51.44,79.17a2.09,2.09,0,0,1-.75,1.53,2.87,2.87,0,0,1-1.83.53,2.58,2.58,0,0,1-1.78-.59A2.14,2.14,0,0,1,46.43,79V76.91a2.07,2.07,0,0,1,.67-1.66,2.65,2.65,0,0,1,1.81-.59,2.72,2.72,0,0,1,1.83.59,2,2,0,0,1,.68,1.66V78.3H47.29V79a1.52,1.52,0,0,0,.42,1.17,1.71,1.71,0,0,0,1.18.38,1.87,1.87,0,0,0,1.2-.33,1.47,1.47,0,0,0,.5-1Zm-3.72-3.43a1.49,1.49,0,0,0-.43,1.17v.73h3.29v-.73a1.49,1.49,0,0,0-.44-1.17,1.78,1.78,0,0,0-1.22-.38A1.74,1.74,0,0,0,47.72,75.74Z"/><path d="M53.28,72.43h.85v8.68h-.85Z"/><path d="M60.52,75.29a2.35,2.35,0,0,1,.64,1.78v1.82a2.14,2.14,0,0,1-2.35,2.36,2.68,2.68,0,0,1-1-.18,2,2,0,0,1-.77-.53v2.73h-.83V74.81h.69l.12.58a2,2,0,0,1,.77-.54,2.79,2.79,0,0,1,1-.19A2.34,2.34,0,0,1,60.52,75.29Zm-.23,1.78c0-1.16-.55-1.75-1.67-1.75a1.52,1.52,0,0,0-1.13.45,1.74,1.74,0,0,0-.44,1.28v1.84a1.76,1.76,0,0,0,.44,1.23,1.47,1.47,0,0,0,1.13.47,1.47,1.47,0,0,0,1.67-1.7Z"/><circle class="cls-1" cx="50" cy="43" r="10"/></g></svg>