<?xml version="1.0" encoding="utf-8"?>
<!-- Generator: Adobe Illustrator 25.0.0, SVG Export Plug-In . SVG Version: 6.00 Build 0)  -->
<svg version="1.1" id="Слой_1" xmlns="http://www.w3.org/2000/svg" xmlns:xlink="http://www.w3.org/1999/xlink" x="0px" y="0px"
	 viewBox="0 0 100 68.1" style="enable-background:new 0 0 100 68.1;" xml:space="preserve">
<style type="text/css">
	.st0{fill:#FFFFFF;}
	.st1{fill:none;stroke:#FFFFFF;stroke-linecap:round;stroke-linejoin:round;}
	.st2{enable-background:new    ;}
</style>
<g id="Тарировка">
	<path class="st0" d="M49.2,11c-0.2-0.2-0.3-0.5-0.3-0.8c-0.1-0.5,0.3-1,0.9-1.1c0,0,0.1,0,0.1,0C49.9,9,49.9,9,50,9
		c0.6,0,1.1,0.5,1.1,1.1c0,0.6-0.5,1.1-1.1,1.1c0,0,0,0,0,0C49.7,11.3,49.4,11.2,49.2,11z M49.2,13.3h1.7v11h-1.6L49.2,13.3z"/>
	<circle class="st1" cx="50.3" cy="16.6" r="14.5"/>
	<g class="st2">
		<path class="st0" d="M43.2,52.1v12.6h-1.5V59h-4v5.7h-1.5V52.1h1.5v5.5h4v-5.5H43.2z"/>
		<path class="st0" d="M51.9,61.8c-0.1,1-0.4,1.8-1,2.3c-0.6,0.5-1.3,0.8-2.3,0.8c-1,0-1.7-0.3-2.3-0.9c-0.6-0.6-0.8-1.5-0.8-2.6v-3
			c0-1.1,0.3-1.9,0.9-2.5c0.6-0.6,1.4-0.9,2.3-0.9c1,0,1.8,0.3,2.4,0.9c0.6,0.6,0.9,1.5,0.9,2.5v2.1h-5v0.9c0,0.7,0.1,1.2,0.5,1.6
			c0.3,0.3,0.7,0.5,1.3,0.5c0.6,0,1-0.1,1.3-0.4c0.3-0.3,0.5-0.7,0.5-1.3H51.9z M47.3,56.9c-0.3,0.3-0.5,0.9-0.5,1.6v1h3.6v-1
			c0-0.7-0.2-1.2-0.5-1.6c-0.3-0.3-0.8-0.5-1.4-0.5C48,56.3,47.6,56.5,47.3,56.9z"/>
		<path class="st0" d="M53.8,51.7h1.4v13h-1.4V51.7z"/>
		<path class="st0" d="M63,56c0.5,0.6,0.8,1.5,0.8,2.7v2.6c0,1.2-0.3,2-0.8,2.7c-0.5,0.6-1.3,0.9-2.2,0.9c-0.4,0-0.8-0.1-1.1-0.2
			c-0.3-0.2-0.6-0.4-0.9-0.7v3.9h-1.4V55.2h1.1l0.1,0.9c0.2-0.3,0.6-0.6,0.9-0.8c0.4-0.2,0.8-0.3,1.2-0.3C61.7,55,62.4,55.3,63,56z
			 M62.3,58.7c0-1.6-0.6-2.3-1.8-2.3c-0.5,0-0.9,0.2-1.3,0.6c-0.3,0.4-0.5,1-0.5,1.7v2.7c0,0.7,0.2,1.2,0.5,1.6
			c0.3,0.4,0.7,0.6,1.3,0.6c0.6,0,1-0.2,1.4-0.5c0.3-0.4,0.4-0.9,0.4-1.7V58.7z"/>
	</g>
</g>
</svg>
