<?xml version="1.0" encoding="utf-8"?>
<!-- Generator: Adobe Illustrator 25.0.0, SVG Export Plug-In . SVG Version: 6.00 Build 0)  -->
<svg version="1.1" id="Слой_1" xmlns="http://www.w3.org/2000/svg" xmlns:xlink="http://www.w3.org/1999/xlink" x="0px" y="0px"
	 viewBox="0 0 300 165" style="enable-background:new 0 0 300 165;" xml:space="preserve">
<style type="text/css">
	.st0{fill:none;stroke:#000000;stroke-miterlimit:10;}
	.st1{fill:#1D1D1B;}
	.st2{font-family:'Akrobat-Bold';}
	.st3{font-size:20px;}
</style>
<g id="главная_страница">
	<circle class="st0" cx="134.5" cy="48.3" r="5"/>
	<circle class="st0" cx="150" cy="66.3" r="5"/>
	<circle class="st0" cx="165.5" cy="48.3" r="5"/>
	<path class="st0" d="M134.5,53.3c-0.9,0-1.7-0.2-2.5-0.7v24.9c0,1.4,1.1,2.5,2.5,2.5s2.5-1.1,2.5-2.5V52.6
		C136.2,53.1,135.4,53.3,134.5,53.3z"/>
	<path class="st0" d="M134.5,43.3c0.9,0,1.7,0.2,2.5,0.7v-6.5c0-1.4-1.1-2.5-2.5-2.5s-2.5,1.1-2.5,2.5V44
		C132.8,43.6,133.6,43.3,134.5,43.3z"/>
	<path class="st0" d="M150,61.3c0.9,0,1.7,0.2,2.5,0.7V37.5c0-1.4-1.1-2.5-2.5-2.5s-2.5,1.1-2.5,2.5V62
		C148.3,61.5,149.1,61.3,150,61.3z"/>
	<path class="st0" d="M150,71.3c-0.9,0-1.7-0.2-2.5-0.7v6.9c0,1.4,1.1,2.5,2.5,2.5s2.5-1.1,2.5-2.5v-6.9
		C151.7,71,150.9,71.3,150,71.3z"/>
	<path class="st0" d="M165.5,43.3c0.9,0,1.7,0.2,2.5,0.7v-6.5c0-1.4-1.1-2.5-2.5-2.5s-2.5,1.1-2.5,2.5V44
		C163.8,43.6,164.6,43.3,165.5,43.3z"/>
	<path class="st0" d="M165.5,53.3c-0.9,0-1.7-0.2-2.5-0.7v24.9c0,1.4,1.1,2.5,2.5,2.5s2.5-1.1,2.5-2.5V52.6
		C167.2,53.1,166.4,53.3,165.5,53.3z"/>
</g>
<g>
	<text transform="matrix(1 0 0 1 81.9509 127.4794)" class="st1 st2 st3">Engineering menu</text>
</g>
</svg>
