<?xml version="1.0" encoding="utf-8"?>
<!-- Generator: Adobe Illustrator 25.0.0, SVG Export Plug-In . SVG Version: 6.00 Build 0)  -->
<svg version="1.1" id="Слой_1" xmlns="http://www.w3.org/2000/svg" xmlns:xlink="http://www.w3.org/1999/xlink" x="0px" y="0px"
	 viewBox="0 0 300 165" style="enable-background:new 0 0 300 165;" xml:space="preserve">
<style type="text/css">
	.st0{fill:none;stroke:#000000;stroke-miterlimit:10;}
	.st1{fill:none;}
	.st2{fill:#1D1D1B;}
	.st3{font-family:'Akrobat-Bold';}
	.st4{font-size:20px;}
</style>
<g id="главная_страница">
	<path class="st0" d="M163.1,75.5c-0.5-0.3-1-0.5-1.5-0.8c-0.9-0.6-1.7-1.6-2.6-1.8s-1.9,0.7-2.9,0.9c-1.3,0.1-2.3,1.2-2.1,2.5
		c0,0,0,0.1,0,0.1c-0.1,0.6-0.2,1.3-0.3,1.9c0,1-0.8,1.7-1.8,1.7c-0.1,0-0.1,0-0.2,0c-1.2,0-2.5,0-3.7,0s-1.6-0.5-1.9-1.7
		c-0.2-1-0.3-2.1-0.6-3.2c-0.1-0.4-0.4-0.7-0.7-0.9c-0.7-0.2-1.4-0.5-2-0.8c-1-0.9-2.5-0.8-3.4,0.2c0,0-0.1,0.1-0.1,0.1
		c-0.5,0.4-1,0.7-1.5,1c-0.6,0.7-1.7,0.7-2.4,0c-0.1-0.1-0.1-0.1-0.2-0.2c-0.9-0.8-1.7-1.7-2.5-2.6c-0.7-0.6-0.9-1.6-0.3-2.4
		c0-0.1,0.1-0.1,0.1-0.2c0.6-0.9,1.3-1.7,1.9-2.6c0.2-0.4,0.2-0.8,0.1-1.1c-0.4-1.1-0.8-2.2-1.3-3.2c-0.2-0.3-0.4-0.6-0.8-0.7
		c-1-0.2-2.1-0.4-3.1-0.6c-1,0-1.8-0.9-1.8-1.9c0-0.1,0-0.1,0-0.2c0-1.2,0-2.3,0-3.5c-0.1-1,0.6-1.9,1.6-2c0,0,0.1,0,0.1,0
		c1-0.2,1.9-0.3,2.9-0.4c0.6,0,1.1-0.4,1.2-1c0.3-1,0.9-2,1.2-3.1c0.1-0.4,0.1-0.8-0.1-1.2c-0.6-0.9-1.3-1.8-1.9-2.7
		c-0.6-0.6-0.6-1.7,0-2.3c0,0,0.1-0.1,0.1-0.1c0.9-0.9,1.7-1.8,2.6-2.6c0.6-0.7,1.6-0.8,2.4-0.3c0,0,0.1,0.1,0.1,0.1
		c0.9,0.6,1.7,1.2,2.5,1.8c0.3,0.3,0.9,0.4,1.2,0.1c1-0.5,2.1-0.9,3.1-1.3c0.5-0.1,0.8-0.5,0.8-1c0.1-1.1,0.4-2.1,0.6-3.2
		c0-1,0.9-1.7,1.8-1.7c0,0,0.1,0,0.1,0c1.2,0,2.5,0,3.7,0s1.6,0.5,1.9,1.7c0.2,1,0.3,2.1,0.6,3.1c0.1,0.4,0.4,0.8,0.8,1
		c1.1,0.5,2.2,1,3.4,1.4c0.4,0.1,0.7,0.1,1.1-0.1c0.9-0.6,1.8-1.2,2.6-1.8c0.7-0.7,1.8-0.6,2.5,0c0,0,0.1,0.1,0.1,0.2
		c0.9,0.8,1.7,1.7,2.5,2.6c0.7,0.6,0.9,1.6,0.3,2.3c0,0-0.1,0.1-0.1,0.1c-0.6,0.9-1.3,1.8-1.9,2.7c-0.2,0.4-0.2,0.8-0.1,1.1
		c0.4,1.1,0.8,2.2,1.3,3.2c0.2,0.4,0.5,0.6,0.9,0.7c1.1,0.3,2.2,0.4,3.2,0.6c1,0.1,1.7,0.9,1.6,1.8c0,0,0,0,0,0c0,1.2,0,2.5,0,3.7
		c0.1,1-0.7,1.8-1.7,1.9c0,0,0,0,0,0c-1.1,0.2-2.2,0.3-3.3,0.6c-0.3,0.1-0.6,0.4-0.8,0.7c-0.5,1.1-0.9,2.2-1.4,3.2
		c-0.2,0.4-0.2,0.9,0.1,1.3c0.6,0.9,1.2,1.7,1.8,2.6c0.6,0.7,0.6,1.7-0.1,2.3c0,0-0.1,0.1-0.1,0.1c-0.9,0.9-1.7,1.8-2.6,2.6
		C164,75,163.6,75.3,163.1,75.5z M150,68.2c5.9,0,10.7-4.7,10.7-10.6s-4.7-10.7-10.6-10.7c-5.9,0-10.7,4.7-10.7,10.6c0,0,0,0,0,0
		C139.4,63.3,144.1,68.1,150,68.2z"/>
</g>
<rect x="25.5" y="113" class="st1" width="249.1" height="21.2"/>
<text transform="matrix(1 0 0 1 69.2013 127.4801)" class="st2 st3 st4">Сonfigurator settings</text>
</svg>
