<svg id="Слой_1" data-name="Слой 1" xmlns="http://www.w3.org/2000/svg" viewBox="0 0 300 165"><g id="главная_страница" data-name="главная страница"><circle cx="134.79" cy="45.47" r="5" style="fill:none;stroke:#000;stroke-miterlimit:10"/><circle cx="150.29" cy="63.39" r="5" style="fill:none;stroke:#000;stroke-miterlimit:10"/><circle cx="165.79" cy="45.47" r="5" style="fill:none;stroke:#000;stroke-miterlimit:10"/><path d="M134.79,50.47a4.88,4.88,0,0,1-2.5-.7V74.62a2.5,2.5,0,0,0,5,0V49.77A4.91,4.91,0,0,1,134.79,50.47Z" style="fill:none;stroke:#000;stroke-miterlimit:10"/><path d="M134.79,40.47a5,5,0,0,1,2.5.65v-6.5a2.5,2.5,0,0,0-5,0v6.5A5,5,0,0,1,134.79,40.47Z" style="fill:none;stroke:#000;stroke-miterlimit:10"/><path d="M150.29,58.39a5,5,0,0,1,2.5.7V34.62a2.5,2.5,0,0,0-5,0v24.5A5,5,0,0,1,150.29,58.39Z" style="fill:none;stroke:#000;stroke-miterlimit:10"/><path d="M150.29,68.39a4.87,4.87,0,0,1-2.5-.69v6.92a2.5,2.5,0,0,0,5,0V67.7A4.9,4.9,0,0,1,150.29,68.39Z" style="fill:none;stroke:#000;stroke-miterlimit:10"/><path d="M165.79,40.47a5,5,0,0,1,2.5.65v-6.5a2.5,2.5,0,0,0-5,0v6.5A5,5,0,0,1,165.79,40.47Z" style="fill:none;stroke:#000;stroke-miterlimit:10"/><path d="M165.79,50.47a4.88,4.88,0,0,1-2.5-.7V74.62a2.5,2.5,0,0,0,5,0V49.77A4.91,4.91,0,0,1,165.79,50.47Z" style="fill:none;stroke:#000;stroke-miterlimit:10"/></g><text transform="translate(80.28 132.64)" style="font-size:26px;font-family:Akrobat-SemiBold, Akrobat;font-weight:600;letter-spacing:0.029991736778846152em">Main settin<tspan x="116.69" y="0" style="letter-spacing:0.027005709134615384em">g</tspan><tspan x="129.53" y="0" style="letter-spacing:0.030010516826923076em">s</tspan></text></svg>