<?xml version="1.0" encoding="utf-8"?>
<!-- Generator: Adobe Illustrator 25.0.0, SVG Export Plug-In . SVG Version: 6.00 Build 0)  -->
<svg version="1.1" id="Слой_1" xmlns="http://www.w3.org/2000/svg" xmlns:xlink="http://www.w3.org/1999/xlink" x="0px" y="0px"
	 viewBox="0 0 300 165" style="enable-background:new 0 0 300 165;" xml:space="preserve">
<style type="text/css">
	.st0{fill:none;stroke:#FFFFFF;stroke-linecap:round;stroke-linejoin:round;}
	.st1{fill:#FFFFFF;}
	.st2{fill:none;stroke:#FFFFFF;stroke-linecap:round;stroke-miterlimit:10;}
	.st3{fill:none;stroke:#FFFFFF;stroke-miterlimit:10;}
	.st4{fill:none;}
	.st5{font-family:'Akrobat-Bold';}
	.st6{font-size:20px;}
</style>
<g id="главная_страница">
	<path class="st0" d="M163.4,76.7l-14.3-14.3c1.4-3.4-0.2-7.4-3.6-8.9c-0.8-0.3-1.7-0.5-2.6-0.5c-1.1,0-2.2,0.3-3.1,0.8l3.7,3.7
		c0.8,0.8,0.8,2,0,2.8c-0.8,0.8-2,0.8-2.8,0l-3.7-3.7c-1.8,3.3-0.5,7.4,2.8,9.1c1.8,1,4,1.1,5.9,0.2l14.3,14.3
		c1,0.9,2.6,0.8,3.5-0.2C164.3,79.1,164.3,77.6,163.4,76.7L163.4,76.7z"/>
	<circle class="st1" cx="165.1" cy="46.7" r="1.2"/>
	<line class="st2" x1="165.1" y1="46.7" x2="168.9" y2="53.2"/>
	<line class="st2" x1="165.1" y1="36.2" x2="165.1" y2="46.7"/>
	<path class="st3" d="M165.7,58.2c0.1-1-0.6-1.8-1.6-1.8c0,0,0,0,0,0c-1.1-0.2-2.2-0.3-3.2-0.6c-0.4-0.1-0.7-0.4-0.8-0.8
		c-0.5-1.1-0.9-2.1-1.3-3.2c-0.1-0.4-0.1-0.8,0.1-1.1c0.6-0.9,1.3-1.8,1.9-2.7c0.6-0.7,0.6-1.7-0.1-2.3c0,0-0.1-0.1-0.1-0.1
		c-0.8-0.9-1.7-1.7-2.5-2.6c-0.6-0.8-1.6-0.9-2.4-0.4c-0.1,0-0.1,0.1-0.2,0.1c-0.9,0.6-1.7,1.3-2.6,1.8c-0.3,0.2-0.7,0.2-1,0.1
		c-1.2-0.4-2.3-0.9-3.4-1.4c-0.4-0.2-0.6-0.6-0.8-1c-0.2-1-0.4-2-0.6-3.1c-0.2-1.2-0.7-1.6-1.9-1.7s-2.5,0-3.7,0s-1.7,0.5-1.9,1.7
		s-0.4,2.1-0.6,3.2c0,0.5-0.3,0.9-0.8,1c-1.1,0.4-2.1,0.8-3.1,1.3c-0.4,0.3-0.9,0.2-1.2-0.1c-0.8-0.7-1.7-1.2-2.5-1.8
		c-0.7-0.7-1.7-0.7-2.4,0c0,0-0.1,0.1-0.1,0.1c-0.9,0.8-1.8,1.7-2.6,2.6c-0.7,0.5-0.9,1.6-0.3,2.3c0,0.1,0.1,0.1,0.1,0.1
		c0.6,0.9,1.3,1.8,1.9,2.7c0.2,0.4,0.2,0.8,0.1,1.2c-0.3,1-0.9,2-1.2,3.1c-0.1,0.6-0.6,1-1.2,1c-1,0.1-1.9,0.3-2.9,0.4
		c-1,0-1.8,0.9-1.7,1.9c0,0,0,0.1,0,0.1c0,1.2,0,2.3,0,3.5c-0.1,1,0.6,1.9,1.6,2.1c0.1,0,0.2,0,0.2,0c1,0.2,2.1,0.3,3.2,0.6
		c0.3,0.1,0.6,0.4,0.8,0.7c0.5,1.1,0.9,2.1,1.3,3.2c0.1,0.4,0.1,0.8-0.1,1.1c-0.6,0.9-1.2,1.8-1.8,2.6c-0.7,0.7-0.7,1.7,0,2.4
		c0,0,0.1,0.1,0.2,0.1c0.8,0.9,1.7,1.7,2.5,2.6c0.5,0.8,1.6,0.9,2.4,0.4c0.1-0.1,0.2-0.1,0.2-0.2c0.5-0.3,1-0.7,1.5-1.1
		c1.1-1.1,2-0.9,3.5-0.3c0.7,0.2,1.3,0.5,1.9,0.8c0.3,0.2,0.6,0.5,0.7,0.9c0.2,1,0.4,2.1,0.6,3.2c0.2,1.2,0.7,1.6,1.9,1.7
		s2.5,0,3.7,0s1.7-0.5,1.9-1.7c0.2-0.6,0.3-1.2,0.3-1.9c0-1.5,0.7-2.1,2.2-2.6c0.6-0.2,1.1-0.5,1.6-0.7l-5.2-5.2
		c-0.8,0.2-1.7,0.3-2.5,0.3c-5.9,0-10.7-4.7-10.7-10.6s4.7-10.7,10.6-10.7c5.9,0,10.7,4.7,10.7,10.6c0,0,0,0,0,0
		c0,0.9-0.2,1.8-0.4,2.7l5.2,5.2c0.4-0.9,0.8-1.9,1.2-2.8c0.2-0.3,0.4-0.6,0.8-0.7c1.1-0.2,2.2-0.4,3.3-0.6c1,0,1.7-0.8,1.7-1.8
		c0,0,0,0,0-0.1C165.7,60.7,165.7,59.5,165.7,58.2z"/>
	<path class="st3" d="M165.1,32.5c-7,0-12.9,5.1-14,12l0.6,0.2c0.3,0.1,0.7,0.1,1-0.1c0.9-0.6,1.8-1.2,2.6-1.8
		c0.7-0.7,1.8-0.6,2.4,0c0.1,0.1,0.1,0.1,0.1,0.2c0.9,0.8,1.7,1.7,2.5,2.6c0.7,0.5,0.9,1.6,0.3,2.3c0,0-0.1,0.1-0.1,0.1
		c-0.6,0.9-1.3,1.8-1.9,2.7c-0.2,0.4-0.2,0.8-0.1,1.1c0.4,1.1,0.9,2.1,1.4,3.2c0.2,0.4,0.5,0.6,0.9,0.7c1.1,0.3,2.2,0.4,3.2,0.6
		c1,0.1,1.7,0.9,1.6,1.8c0,0,0,0,0,0c0,0.9,0,1.8,0,2.6c7.8-0.4,13.8-7.1,13.4-14.9C178.8,38.4,172.6,32.5,165.1,32.5L165.1,32.5z"
		/>
</g>
<rect x="55.8" y="113" class="st4" width="188.4" height="21.2"/>
<text transform="matrix(1 0 0 1 90.111 127.4798)" class="st1 st5 st6">Master of setup</text>
</svg>
