<svg id="Слой_1" data-name="Слой 1" xmlns="http://www.w3.org/2000/svg" viewBox="0 0 300 165"><g id="главная_страница" data-name="главная страница"><path d="M163.41,75.69l-14.3-14.31A6.77,6.77,0,0,0,142.89,52a6.63,6.63,0,0,0-3.11.77l3.72,3.72a2,2,0,0,1-2.83,2.83l-3.74-3.74a6.75,6.75,0,0,0,8.66,9.36l14.29,14.29a2.5,2.5,0,0,0,3.53-3.53Z" style="fill:none;stroke:#000;stroke-linecap:round;stroke-linejoin:round"/><circle cx="165.07" cy="45.69" r="1.25"/><line x1="165.07" y1="45.69" x2="168.86" y2="52.25" style="fill:none;stroke:#000;stroke-linecap:round;stroke-miterlimit:10"/><line x1="165.07" y1="35.2" x2="165.07" y2="45.69" style="fill:none;stroke:#000;stroke-linecap:round;stroke-miterlimit:10"/><path d="M165.7,57.22a1.73,1.73,0,0,0-1.6-1.85h0c-1.08-.22-2.18-.34-3.25-.61A1.49,1.49,0,0,1,160,54a34.75,34.75,0,0,1-1.3-3.24,1.44,1.44,0,0,1,.08-1.13c.57-.94,1.27-1.8,1.89-2.72a1.63,1.63,0,0,0,0-2.3l-.14-.12c-.83-.88-1.68-1.74-2.54-2.58a1.73,1.73,0,0,0-2.41-.36l-.17.15c-.89.61-1.74,1.27-2.64,1.84a1.39,1.39,0,0,1-1,.11,35,35,0,0,1-3.41-1.42,1.65,1.65,0,0,1-.75-1c-.25-1-.35-2-.55-3.06s-.73-1.63-1.9-1.67-2.48,0-3.71,0-1.66.52-1.89,1.68-.44,2.1-.56,3.16a1,1,0,0,1-.83,1A31.8,31.8,0,0,0,135,43.65a1,1,0,0,1-1.25-.13c-.81-.65-1.66-1.25-2.51-1.84a1.69,1.69,0,0,0-2.39,0l-.12.13c-.91.85-1.79,1.73-2.64,2.62a1.63,1.63,0,0,0-.32,2.28l.13.15c.62.91,1.31,1.78,1.89,2.72a1.51,1.51,0,0,1,.08,1.16c-.35,1-.87,2-1.2,3.07a1.27,1.27,0,0,1-1.2,1c-1,.14-1.92.28-2.87.44a1.81,1.81,0,0,0-1.75,1.87s0,.09,0,.13v3.52a1.84,1.84,0,0,0,1.58,2.08l.23,0c1,.19,2.12.34,3.15.59a1.32,1.32,0,0,1,.79.69,35,35,0,0,1,1.33,3.24,1.5,1.5,0,0,1-.08,1.12c-.56.91-1.24,1.75-1.85,2.63a1.69,1.69,0,0,0,0,2.38l.15.13c.83.88,1.68,1.74,2.54,2.58a1.68,1.68,0,0,0,2.36.38l.22-.19a10.15,10.15,0,0,0,1.47-1.06c1.1-1.06,2-.93,3.5-.33a15.35,15.35,0,0,1,1.94.77,1.59,1.59,0,0,1,.71.9c.24,1,.36,2.1.56,3.15.25,1.21.71,1.64,1.89,1.69s2.48,0,3.71,0,1.66-.52,1.89-1.68a9.92,9.92,0,0,0,.34-1.87c0-1.53.74-2.11,2.19-2.63.55-.2,1.06-.46,1.56-.66l-5.25-5.24a10.07,10.07,0,0,1-2.51.28A10.69,10.69,0,1,1,153.91,59h0a10.67,10.67,0,0,1-.4,2.69l5.21,5.21c.43-.94.79-1.92,1.23-2.85a1.36,1.36,0,0,1,.79-.68c1.07-.25,2.17-.39,3.26-.58A1.75,1.75,0,0,0,165.7,61v-.07Q165.76,59.08,165.7,57.22Z" style="fill:none;stroke:#000;stroke-miterlimit:10"/><path d="M165.07,31.5a14.17,14.17,0,0,0-14,12l.55.22a1.39,1.39,0,0,0,1-.11c.9-.57,1.75-1.23,2.64-1.84a1.71,1.71,0,0,1,2.43,0,1.22,1.22,0,0,1,.15.17c.86.84,1.71,1.7,2.54,2.58a1.63,1.63,0,0,1,.31,2.28l-.12.14c-.62.92-1.32,1.78-1.89,2.72a1.44,1.44,0,0,0-.08,1.13A33.15,33.15,0,0,0,160,54a1.52,1.52,0,0,0,.89.74c1.07.27,2.17.39,3.25.61a1.73,1.73,0,0,1,1.61,1.84h0v2.64a14.19,14.19,0,0,0-.65-28.36Z" style="fill:none;stroke:#000;stroke-miterlimit:10"/></g><text transform="translate(70.19 132.64)" style="font-size:26px;font-family:Akrobat-SemiBold, Akrobat;font-weight:600;letter-spacing:0.02599158653846154em">S<tspan x="12.58" y="0" style="letter-spacing:0.030010516826923076em">ettin</tspan><tspan x="61.59" y="0" style="letter-spacing:0.027005709134615384em">g</tspan><tspan x="74.44" y="0" style="letter-spacing:0.030010516826923076em">s wiza</tspan><tspan x="138.16" y="0" style="letter-spacing:0.024000901442307692em">r</tspan><tspan x="147.52" y="0" style="letter-spacing:0.030010516826923076em">d</tspan></text></svg>