<svg xmlns="http://www.w3.org/2000/svg" viewBox="0 0 100 100"><defs><style>.cls-1{fill:none;stroke:#1d1d1b;stroke-miterlimit:10;}</style></defs><g id="Тарировка"><path d="M17.15,73.4h-3.7v7.71h-.9v-8.4h4.6Z"/><path d="M16,80.47a.85.85,0,0,0,.84-.57,6,6,0,0,0,.31-1.71c.06-.82.11-1.94.15-3.38h3.88v6.3h-.84V75.48H18.11c0,.7-.07,1.64-.14,2.82a4.54,4.54,0,0,1-.56,2.16,1.59,1.59,0,0,1-1.43.69Z"/><path d="M27.13,75.23a2,2,0,0,1,.62,1.52v4.36H27l-.07-.6a2.17,2.17,0,0,1-1.74.74,2.7,2.7,0,0,1-1.73-.52,1.68,1.68,0,0,1-.66-1.41,1.61,1.61,0,0,1,.67-1.4,3.28,3.28,0,0,1,1.92-.49h1.5v-.67a1.36,1.36,0,0,0-.39-1.05,1.54,1.54,0,0,0-1.11-.36,1.75,1.75,0,0,0-1.06.29,1.08,1.08,0,0,0-.45.81H23a1.67,1.67,0,0,1,.69-1.3,2.72,2.72,0,0,1,1.7-.49A2.43,2.43,0,0,1,27.13,75.23Zm-.66,5a1.22,1.22,0,0,0,.43-1V78.09H25.37a2.14,2.14,0,0,0-1.27.32,1.09,1.09,0,0,0-.43.92,1,1,0,0,0,.45.91,2,2,0,0,0,1.21.31A1.69,1.69,0,0,0,26.47,80.19Z"/><path d="M34.12,78.38a1.49,1.49,0,0,1,.34.91,1.58,1.58,0,0,1-.64,1.34,3,3,0,0,1-1.83.48h-2.2V74.82h2a2.82,2.82,0,0,1,1.7.45,1.45,1.45,0,0,1,.6,1.23,1.26,1.26,0,0,1-.23.69,1.86,1.86,0,0,1-.63.58A1.84,1.84,0,0,1,34.12,78.38Zm-3.5-.87h1.14a1.88,1.88,0,0,0,1.1-.27.84.84,0,0,0,.37-.74.87.87,0,0,0-.37-.75,2,2,0,0,0-1.1-.26H30.62Zm2.58,2.63a1,1,0,0,0,.41-.85.94.94,0,0,0-.41-.82A2.08,2.08,0,0,0,32,78.18H30.62v2.25H32A2.08,2.08,0,0,0,33.2,80.14Z"/><path d="M40.6,74.81v6.3h-.85V78.18H36.87v2.93H36v-6.3h.84v2.7h2.88v-2.7Z"/><path d="M43.15,80.66A2.12,2.12,0,0,1,42.46,79v-2a2.08,2.08,0,0,1,.69-1.68,2.65,2.65,0,0,1,1.83-.6,2.7,2.7,0,0,1,1.84.6,2.11,2.11,0,0,1,.68,1.68v2a2.14,2.14,0,0,1-.68,1.69,2.75,2.75,0,0,1-1.84.59A2.7,2.7,0,0,1,43.15,80.66Zm3.06-.5A1.54,1.54,0,0,0,46.64,79v-2a1.56,1.56,0,0,0-.43-1.19A1.78,1.78,0,0,0,45,75.36a1.75,1.75,0,0,0-1.22.39,1.52,1.52,0,0,0-.43,1.19v2a1.51,1.51,0,0,0,.43,1.19,1.75,1.75,0,0,0,1.22.39A1.78,1.78,0,0,0,46.21,80.16Z"/><path d="M54.18,79.17a2,2,0,0,1-.75,1.53,2.86,2.86,0,0,1-1.82.53,2.57,2.57,0,0,1-1.78-.59A2.11,2.11,0,0,1,49.17,79V76.91a2.1,2.1,0,0,1,.67-1.66,2.66,2.66,0,0,1,1.81-.59,2.75,2.75,0,0,1,1.84.59,2.08,2.08,0,0,1,.68,1.66V78.3H50V79a1.55,1.55,0,0,0,.41,1.17,1.72,1.72,0,0,0,1.18.38,1.92,1.92,0,0,0,1.21-.33,1.46,1.46,0,0,0,.49-1Zm-3.72-3.43A1.52,1.52,0,0,0,50,76.91v.73h3.28v-.73a1.49,1.49,0,0,0-.43-1.17,1.83,1.83,0,0,0-1.23-.38A1.76,1.76,0,0,0,50.46,75.74Z"/><path d="M65.27,74.81v6.3h-.82V77.64a9.41,9.41,0,0,1,0-1c0-.28,0-.47,0-.58h0c-.26.63-.48,1.11-.66,1.45l-1,1.92h-.86l-1-1.92c-.18-.34-.4-.82-.66-1.45h0c0,.11,0,.3,0,.58a9.2,9.2,0,0,1,0,1v3.47h-.83v-6.3h.88l1.54,2.86.49,1h0l.49-1,1.54-2.86Z"/><path d="M72.14,79.17a2.09,2.09,0,0,1-.75,1.53,2.87,2.87,0,0,1-1.83.53,2.58,2.58,0,0,1-1.78-.59A2.14,2.14,0,0,1,67.13,79V76.91a2.07,2.07,0,0,1,.67-1.66,2.66,2.66,0,0,1,1.81-.59,2.72,2.72,0,0,1,1.83.59,2.05,2.05,0,0,1,.69,1.66V78.3H68V79a1.52,1.52,0,0,0,.42,1.17,1.71,1.71,0,0,0,1.18.38,1.87,1.87,0,0,0,1.2-.33,1.47,1.47,0,0,0,.5-1Zm-3.72-3.43A1.49,1.49,0,0,0,68,76.91v.73h3.29v-.73a1.49,1.49,0,0,0-.44-1.17,1.78,1.78,0,0,0-1.22-.38A1.74,1.74,0,0,0,68.42,75.74Z"/><path d="M78.52,74.81v6.3h-.85V78.18H74.79v2.93h-.85v-6.3h.85v2.7h2.88v-2.7Z"/><path d="M87,75.26a2.12,2.12,0,0,1,.66,1.67v2A2.12,2.12,0,0,1,87,80.63a2.93,2.93,0,0,1-3.55,0A2.12,2.12,0,0,1,82.78,79v-.75H81.41v2.9h-.85v-6.3h.85v2.72h1.37v-.6a2.12,2.12,0,0,1,.66-1.67,2.93,2.93,0,0,1,3.55,0Zm-.2,1.67a1.53,1.53,0,0,0-.42-1.18,1.91,1.91,0,0,0-2.31,0,1.53,1.53,0,0,0-.41,1.18v2a1.53,1.53,0,0,0,.41,1.18,1.91,1.91,0,0,0,2.31,0A1.53,1.53,0,0,0,86.79,79Z"/><polygon class="cls-1" points="63 44 45 44 45 49 33 38.5 45 28 45 33 63 33 63 44"/></g></svg>