<svg id="Слой_1" data-name="Слой 1" xmlns="http://www.w3.org/2000/svg" viewBox="0 0 100 66.32"><g id="Тарировка"><path d="M7.09,54.11H2.26v10H1.09V53.21h6Z"/><path d="M5.59,63.33a1.1,1.1,0,0,0,1.09-.75,8.06,8.06,0,0,0,.41-2.23c.07-1.06.14-2.52.19-4.4h5.06v8.21h-1.1V56.82H8.34c0,.92-.09,2.14-.19,3.68a5.77,5.77,0,0,1-.73,2.81,2,2,0,0,1-1.86.9Z"/><path d="M20.09,56.5a2.58,2.58,0,0,1,.81,2v5.68h-1l-.09-.78a2.83,2.83,0,0,1-2.27,1,3.56,3.56,0,0,1-2.25-.67,2.21,2.21,0,0,1-.86-1.84A2.12,2.12,0,0,1,15.32,60a4.32,4.32,0,0,1,2.5-.64h2v-.87a1.78,1.78,0,0,0-.51-1.37,2,2,0,0,0-1.45-.47,2.35,2.35,0,0,0-1.38.38,1.41,1.41,0,0,0-.58,1.06H14.71a2.17,2.17,0,0,1,.9-1.7,3.58,3.58,0,0,1,2.21-.64A3.18,3.18,0,0,1,20.09,56.5ZM19.23,63a1.58,1.58,0,0,0,.56-1.3V60.22h-2a2.86,2.86,0,0,0-1.66.42,1.43,1.43,0,0,0-.56,1.2A1.32,1.32,0,0,0,16.17,63a2.58,2.58,0,0,0,1.58.4A2.21,2.21,0,0,0,19.23,63Z"/><path d="M29.2,60.6a1.92,1.92,0,0,1,.44,1.19,2,2,0,0,1-.83,1.74,3.87,3.87,0,0,1-2.38.63H23.56V56h2.61a3.69,3.69,0,0,1,2.21.59,1.87,1.87,0,0,1,.78,1.6,1.59,1.59,0,0,1-.3.9,2.49,2.49,0,0,1-.82.76A2.4,2.4,0,0,1,29.2,60.6Zm-4.56-1.13h1.49a2.48,2.48,0,0,0,1.43-.35,1.1,1.1,0,0,0,.48-1,1.14,1.14,0,0,0-.48-1,2.65,2.65,0,0,0-1.43-.33H24.64ZM28,62.9a1.32,1.32,0,0,0,.54-1.11A1.23,1.23,0,0,0,28,60.72a2.74,2.74,0,0,0-1.56-.38h-1.8v2.93h1.8A2.66,2.66,0,0,0,28,62.9Z"/><path d="M37.65,56v8.21H36.54V60.34H32.79v3.82H31.65V56h1.1v3.52H36.5V56Z"/><path d="M41,63.57a2.73,2.73,0,0,1-.9-2.16V58.8a2.74,2.74,0,0,1,.9-2.19,3.44,3.44,0,0,1,2.38-.78,3.58,3.58,0,0,1,2.4.78,2.76,2.76,0,0,1,.89,2.19v2.61a2.77,2.77,0,0,1-.89,2.2,3.58,3.58,0,0,1-2.4.77A3.47,3.47,0,0,1,41,63.57Zm4-.65a2,2,0,0,0,.56-1.51V58.8A2,2,0,0,0,45,57.25a2.36,2.36,0,0,0-1.58-.58,2.3,2.3,0,0,0-1.59.5,2,2,0,0,0-.56,1.56v2.6a2,2,0,0,0,.56,1.55,2.26,2.26,0,0,0,1.59.51A2.3,2.3,0,0,0,45,62.92Z"/><path d="M55.34,61.63a2.63,2.63,0,0,1-1,2,3.79,3.79,0,0,1-2.37.69,3.35,3.35,0,0,1-2.32-.77,2.74,2.74,0,0,1-.86-2.14V58.69a2.73,2.73,0,0,1,.87-2.17,3.46,3.46,0,0,1,2.36-.77,3.65,3.65,0,0,1,2.4.77,2.73,2.73,0,0,1,.88,2.17V60.5H49.9v.91a2.06,2.06,0,0,0,.53,1.53,2.24,2.24,0,0,0,1.54.49A2.48,2.48,0,0,0,53.55,63a1.9,1.9,0,0,0,.63-1.3ZM50.5,57.16a2,2,0,0,0-.6,1.53v1h4.27v-1a1.93,1.93,0,0,0-.56-1.53,2.36,2.36,0,0,0-1.6-.49A2.28,2.28,0,0,0,50.5,57.16Z"/><path d="M69.8,56v8.21H68.73V59.64c0-.44,0-.87,0-1.31v-.75h0c-.34.82-.63,1.45-.86,1.89L66.57,62H65.44l-1.3-2.5c-.23-.44-.52-1.07-.86-1.89h0v.75a9.55,9.55,0,0,1,0,1.31v4.52H62.2V56h1.15l2,3.73L66,61h0l.64-1.3,2-3.73Z"/><path d="M78.75,61.63a2.72,2.72,0,0,1-1,2,3.8,3.8,0,0,1-2.38.69,3.38,3.38,0,0,1-2.32-.77,2.78,2.78,0,0,1-.85-2.14V58.69a2.72,2.72,0,0,1,.87-2.17,3.5,3.5,0,0,1,2.36-.77,3.61,3.61,0,0,1,2.39.77,2.68,2.68,0,0,1,.9,2.17V60.5H73.36v.91a2,2,0,0,0,.54,1.53,2.26,2.26,0,0,0,1.54.49A2.39,2.39,0,0,0,77,63a1.89,1.89,0,0,0,.66-1.3ZM73.9,57.16a2,2,0,0,0-.54,1.53v1h4.28v-1a1.94,1.94,0,0,0-.57-1.53,2.34,2.34,0,0,0-1.59-.49A2.26,2.26,0,0,0,73.9,57.16Z"/><path d="M87.07,56v8.21H86V60.34H82.2v3.82H81.1V56h1.1v3.52H86V56Z"/><path d="M98.12,56.54A2.77,2.77,0,0,1,99,58.71v2.61a2.78,2.78,0,0,1-.86,2.21,3.8,3.8,0,0,1-4.63,0,2.76,2.76,0,0,1-.87-2.12v-1H90.83v3.78H89.72V56h1.11v3.55h1.79v-.79a2.74,2.74,0,0,1,.86-2.17,3.81,3.81,0,0,1,4.62,0Zm-.26,2.17a2.06,2.06,0,0,0-.55-1.54,2.51,2.51,0,0,0-3,0,2,2,0,0,0-.54,1.54v2.61a2,2,0,0,0,.54,1.54,2.51,2.51,0,0,0,3,0,2,2,0,0,0,.53-1.45Z"/><polygon points="66.84 23.8 43.38 23.8 43.38 30.31 27.74 16.63 43.38 2.94 43.38 9.46 66.84 9.46 66.84 23.8" style="fill:none;stroke:#1d1d1b;stroke-miterlimit:10"/></g></svg>