<?xml version="1.0" encoding="utf-8"?>
<!-- Generator: Adobe Illustrator 25.0.0, SVG Export Plug-In . SVG Version: 6.00 Build 0)  -->
<svg version="1.1" id="Слой_1" xmlns="http://www.w3.org/2000/svg" xmlns:xlink="http://www.w3.org/1999/xlink" x="0px" y="0px"
	 viewBox="0 0 100 68.1" style="enable-background:new 0 0 100 68.1;" xml:space="preserve">
<style type="text/css">
	.st0{fill:none;stroke:#1A1A18;stroke-linecap:round;stroke-linejoin:round;}
	.st1{fill:none;stroke:#1D1D1B;stroke-miterlimit:10;}
</style>
<g id="Тарировка">
	<path d="M21.1,63.6c-0.7-0.6-1.1-1.5-1-2.5v-4.9c-0.1-0.9,0.3-1.8,1-2.5c0.7-0.6,1.7-1,2.7-0.9c1-0.1,1.9,0.2,2.7,0.8
		c0.7,0.6,1.1,1.5,1.1,2.4h-1.2c0-0.7-0.3-1.3-0.8-1.8c-0.5-0.4-1.2-0.6-1.8-0.6c-0.7,0-1.3,0.2-1.8,0.6c-0.5,0.5-0.7,1.2-0.7,1.8
		v4.9c-0.1,0.7,0.2,1.4,0.7,1.8c0.5,0.4,1.2,0.7,1.8,0.6c1.3,0.1,2.5-0.8,2.6-2.1c0-0.1,0-0.2,0-0.2h1.2c-0.1,0.9-0.5,1.8-1.1,2.4
		C24.8,64.9,22.7,64.9,21.1,63.6L21.1,63.6z"/>
	<path d="M29.7,55.9h6.1v8.4h-1.1v-7.5h-3.9v7.5h-1.1L29.7,55.9z"/>
	<path d="M44.3,56.5c0.6,0.6,0.9,1.5,0.9,2.4v2.4c0.2,1.6-1,3-2.5,3.2c-0.2,0-0.4,0-0.6,0c-0.5,0-0.9-0.1-1.3-0.2
		c-0.4-0.2-0.7-0.4-1-0.7v3.7h-1.1V55.9h0.9l0.2,0.8c0.3-0.3,0.6-0.6,1-0.7c0.4-0.2,0.9-0.3,1.3-0.3C42.8,55.7,43.7,56,44.3,56.5z
		 M44,58.9c0-1.6-0.7-2.3-2.2-2.3c-0.6,0-1.1,0.2-1.5,0.6c-0.4,0.5-0.6,1.1-0.6,1.7v2.5c0,0.6,0.2,1.2,0.6,1.6
		c0.4,0.4,0.9,0.7,1.5,0.6c1.1,0.2,2.1-0.6,2.2-1.6c0-0.2,0-0.4,0-0.6L44,58.9z"/>
	<path d="M52.9,56.5c0.6,0.5,0.8,1.3,0.8,2v5.8h-0.9l-0.1-0.8c-0.6,0.7-1.5,1-2.3,1c-0.8,0-1.6-0.2-2.3-0.7
		c-0.6-0.4-0.9-1.1-0.9-1.9c0-0.7,0.3-1.4,0.9-1.9c0.8-0.5,1.7-0.7,2.6-0.7h2v-0.9c0-0.5-0.1-1-0.5-1.4c-0.4-0.3-0.9-0.5-1.5-0.5
		c-0.5,0-1,0.1-1.4,0.4c-0.4,0.2-0.6,0.6-0.6,1.1h-1.1c0-0.7,0.4-1.3,0.9-1.7c0.7-0.5,1.5-0.7,2.3-0.7
		C51.4,55.7,52.2,55.9,52.9,56.5z M52,63.2c0.4-0.3,0.6-0.8,0.6-1.3v-1.5h-2c-0.6,0-1.2,0.1-1.7,0.4c-0.4,0.3-0.6,0.7-0.6,1.2
		c0,0.5,0.2,0.9,0.6,1.2c0.5,0.3,1.1,0.4,1.6,0.4C51,63.6,51.6,63.4,52,63.2L52,63.2z"/>
	<path d="M62.2,60.7c0.3,0.3,0.5,0.8,0.5,1.2c0,0.7-0.3,1.4-0.8,1.8c-0.7,0.5-1.6,0.7-2.4,0.6h-2.9v-8.4h2.7c0.8,0,1.6,0.2,2.3,0.6
		c0.5,0.4,0.8,1,0.8,1.6c0,0.3-0.1,0.7-0.3,0.9c-0.2,0.3-0.5,0.6-0.9,0.8C61.5,60,61.9,60.3,62.2,60.7z M57.5,59.5h1.5
		c0.5,0,1-0.1,1.5-0.4c0.3-0.2,0.5-0.6,0.5-1c0-0.4-0.2-0.8-0.5-1c-0.4-0.2-1-0.4-1.5-0.3h-1.5V59.5z M61,63
		c0.4-0.3,0.6-0.7,0.5-1.1c0-0.4-0.2-0.9-0.5-1.1c-0.5-0.3-1.1-0.4-1.6-0.4h-1.8v3h1.8C59.9,63.5,60.5,63.3,61,63L61,63z"/>
	<path d="M66.7,60.3l-0.8,0.8v3.2h-1.1v-8.4h1.1v3.8l1.5-1.6l2.3-2.3h1.5l-3.7,3.6l4.2,4.8h-1.3L66.7,60.3z"/>
	<path d="M78,56.5c0.6,0.5,0.9,1.3,0.8,2v5.8h-1l-0.1-0.8c-0.6,0.7-1.4,1-2.3,1c-0.8,0-1.6-0.2-2.3-0.7c-0.6-0.4-0.9-1.2-0.9-1.9
		c0-0.7,0.3-1.5,0.9-1.9c0.8-0.5,1.7-0.7,2.6-0.7h2.1v-0.9c0-0.5-0.2-1-0.5-1.4c-0.4-0.3-1-0.5-1.5-0.5c-0.5,0-1,0.1-1.4,0.4
		c-0.4,0.3-0.6,0.7-0.6,1.2h-1.1c0-0.7,0.4-1.3,0.9-1.7c0.7-0.5,1.5-0.7,2.3-0.7C76.6,55.7,77.4,56,78,56.5z M77.2,63.2
		c0.4-0.3,0.6-0.8,0.6-1.3v-1.5h-2c-0.6,0-1.2,0.1-1.7,0.4c-0.4,0.3-0.6,0.8-0.6,1.2c0,0.5,0.2,1,0.6,1.2c0.5,0.3,1.1,0.4,1.6,0.4
		C76.2,63.6,76.7,63.4,77.2,63.2L77.2,63.2z"/>
	<g>
		<path d="M49.2,11c-0.2-0.2-0.3-0.5-0.3-0.8c0-0.6,0.4-1.1,1-1.1C49.9,9,50,9,50,9c0.3,0,0.6,0.1,0.8,0.3c0.2,0.2,0.3,0.5,0.3,0.8
			c0,0.3-0.1,0.6-0.3,0.8c-0.2,0.2-0.5,0.3-0.8,0.3C49.7,11.3,49.4,11.2,49.2,11z M49.2,13.3h1.7v11h-1.6L49.2,13.3z"/>
		<circle class="st0" cx="50.3" cy="16.6" r="14.5"/>
	</g>
</g>
</svg>
