<svg xmlns="http://www.w3.org/2000/svg" viewBox="0 0 300 164.72"><defs><style>.cls-1,.cls-2,.cls-3{fill:none;stroke:#000;}.cls-2{stroke-miterlimit:10;}.cls-3{stroke-linecap:round;stroke-linejoin:round;}</style></defs><title>info</title><g id="Слой_1" data-name="Слой 1"><path d="M120.32,126.58a4.45,4.45,0,0,1-1.09-3.22V117.6a4.53,4.53,0,0,1,1.08-3.24,3.89,3.89,0,0,1,3-1.14,4,4,0,0,1,3,1.11,4.64,4.64,0,0,1,1.16,3.19h-2a2.85,2.85,0,0,0-.62-1.8,2,2,0,0,0-1.56-.58,1.8,1.8,0,0,0-1.44.62,2.79,2.79,0,0,0-.52,1.84v5.76a2.76,2.76,0,0,0,.53,1.83,1.82,1.82,0,0,0,1.47.61,2.05,2.05,0,0,0,1.57-.58,2.88,2.88,0,0,0,.65-1.78h2a4.68,4.68,0,0,1-1.19,3.17,4.06,4.06,0,0,1-3,1.11A3.92,3.92,0,0,1,120.32,126.58Z"/><path d="M129.23,116.94h6.82v10.54h-1.94v-8.76h-2.94v8.76h-1.94Z"/><path d="M144.73,117.79a4.51,4.51,0,0,1,.92,3v2.9a4.41,4.41,0,0,1-.91,3,3.06,3.06,0,0,1-2.45,1.07,2.78,2.78,0,0,1-1.11-.22,2.63,2.63,0,0,1-.91-.62v4.2h-1.9V116.92h1.4l.14,1A3.2,3.2,0,0,1,141,117a2.8,2.8,0,0,1,1.33-.34A3,3,0,0,1,144.73,117.79Zm-1.06,3c0-1.51-.57-2.26-1.7-2.26a1.51,1.51,0,0,0-1.24.57,2.6,2.6,0,0,0-.46,1.67v2.92a2.63,2.63,0,0,0,.45,1.63,1.5,1.5,0,0,0,1.25.59,1.52,1.52,0,0,0,1.28-.54,2.73,2.73,0,0,0,.42-1.68Z"/><path d="M153.6,117.66a4.1,4.1,0,0,1,.87,2.82v7h-1.58l-.14-1a2.56,2.56,0,0,1-.93.92,2.73,2.73,0,0,1-1.41.34,3.06,3.06,0,0,1-3.24-3.26,2.93,2.93,0,0,1,1-2.41,4.33,4.33,0,0,1,2.8-.83h1.54v-.76c0-1.29-.51-1.94-1.52-1.94a1.65,1.65,0,0,0-1.09.36,1.51,1.51,0,0,0-.51,1h-1.94a3.31,3.31,0,0,1,1-2.39,3.64,3.64,0,0,1,2.54-.87A3.24,3.24,0,0,1,153.6,117.66Zm-1.07,5.2H151a2,2,0,0,0-1.38.42,1.51,1.51,0,0,0-.48,1.2,1.48,1.48,0,0,0,.44,1.13,1.77,1.77,0,0,0,1.24.41,1.67,1.67,0,0,0,1.26-.48,1.78,1.78,0,0,0,.46-1.3Z"/><path d="M163.36,122.89a3.1,3.1,0,0,1-.5,3.79,4.14,4.14,0,0,1-2.75.8h-3.32V116.94H160a3.55,3.55,0,0,1,2.44.77,2.74,2.74,0,0,1,.86,2.15,2.18,2.18,0,0,1-.31,1.12,2.7,2.7,0,0,1-.85.9A2.48,2.48,0,0,1,163.36,122.89Zm-4.69-1.63h1.18a1.62,1.62,0,0,0,1.12-.35,1.31,1.31,0,0,0,.38-1,1.27,1.27,0,0,0-.39-1,1.61,1.61,0,0,0-1.13-.36h-1.16Zm3.2,3.1c0-1-.56-1.46-1.68-1.46h-1.52v2.94h1.52C161.31,125.84,161.87,125.35,161.87,124.36Z"/><path d="M168,123l-.7.76v3.76h-1.92V116.94h1.92v4.48l1.24-1.94,1.74-2.54h2.3l-3.32,4.5,3.82,6h-2.22Z"/><path d="M179.74,117.66a4.1,4.1,0,0,1,.87,2.82v7H179l-.14-1a2.56,2.56,0,0,1-.93.92,2.73,2.73,0,0,1-1.41.34,3.06,3.06,0,0,1-3.24-3.26,2.93,2.93,0,0,1,1-2.41,4.33,4.33,0,0,1,2.8-.83h1.54v-.76c0-1.29-.51-1.94-1.52-1.94a1.65,1.65,0,0,0-1.09.36,1.51,1.51,0,0,0-.51,1h-1.94a3.31,3.31,0,0,1,1-2.39,3.64,3.64,0,0,1,2.54-.87A3.24,3.24,0,0,1,179.74,117.66Zm-1.07,5.2h-1.54a2,2,0,0,0-1.38.42,1.51,1.51,0,0,0-.48,1.2,1.48,1.48,0,0,0,.44,1.13A1.77,1.77,0,0,0,177,126a1.67,1.67,0,0,0,1.26-.48,1.78,1.78,0,0,0,.46-1.3Z"/></g><g id="главная_страница" data-name="главная страница"><path class="cls-1" d="M148.71,48.38a1.37,1.37,0,0,1,0-1.81,1.35,1.35,0,0,1,1.81,0,1.21,1.21,0,0,1,.35.91,1.29,1.29,0,0,1-2.16.9Zm-.08,3.87h2v17h-2Z"/><circle class="cls-2" cx="150" cy="57.5" r="22.5"/><circle class="cls-3" cx="150" cy="57.5" r="21.5"/></g></svg>