<svg id="Слой_1" data-name="Слой 1" xmlns="http://www.w3.org/2000/svg" viewBox="0 0 100 68.1"><g id="Тарировка"><path d="M21.1,63.6a2.88,2.88,0,0,1-1-2.5V56.2a3.11,3.11,0,0,1,1-2.5,3.7,3.7,0,0,1,2.7-.9,3.77,3.77,0,0,1,2.7.8A3.19,3.19,0,0,1,27.6,56H26.4a2.5,2.5,0,0,0-.8-1.8,3,3,0,0,0-1.8-.6,2.79,2.79,0,0,0-1.8.6,2.57,2.57,0,0,0-.7,1.8v4.9a2,2,0,0,0,.7,1.8,2.47,2.47,0,0,0,1.8.6,2.37,2.37,0,0,0,2.6-2.1V61h1.2a4.12,4.12,0,0,1-1.1,2.4,4,4,0,0,1-5.4.2Z" style="fill:#fff"/><path d="M29.7,55.9h6.1v8.4H34.7V56.8H30.8v7.5H29.7Z" style="fill:#fff"/><path d="M44.3,56.5a3.41,3.41,0,0,1,.9,2.4v2.4a2.91,2.91,0,0,1-2.5,3.2h-.6a5.07,5.07,0,0,1-1.3-.2,3.59,3.59,0,0,1-1-.7v3.7H38.7V55.9h.9l.2.8a2.29,2.29,0,0,1,1-.7,3.08,3.08,0,0,1,1.3-.3A3.72,3.72,0,0,1,44.3,56.5ZM44,58.9c0-1.6-.7-2.3-2.2-2.3a2,2,0,0,0-1.5.6,2.72,2.72,0,0,0-.6,1.7v2.5a2.27,2.27,0,0,0,.6,1.6,1.72,1.72,0,0,0,1.5.6A1.87,1.87,0,0,0,44,62V58.9Z" style="fill:#fff"/><path d="M52.9,56.5a2.57,2.57,0,0,1,.8,2v5.8h-.9l-.1-.8a3,3,0,0,1-2.3,1,3.89,3.89,0,0,1-2.3-.7,2.2,2.2,0,0,1-.9-1.9,2.46,2.46,0,0,1,.9-1.9,4.84,4.84,0,0,1,2.6-.7h2v-.9a1.87,1.87,0,0,0-.5-1.4,2.46,2.46,0,0,0-1.5-.5,2.3,2.3,0,0,0-1.4.4,1.15,1.15,0,0,0-.6,1.1H47.6a2.23,2.23,0,0,1,.9-1.7,3.89,3.89,0,0,1,2.3-.7A4.18,4.18,0,0,1,52.9,56.5ZM52,63.2a1.61,1.61,0,0,0,.6-1.3V60.4h-2a3.29,3.29,0,0,0-1.7.4,1.5,1.5,0,0,0,0,2.4,3.17,3.17,0,0,0,1.6.4,3.71,3.71,0,0,0,1.5-.4Z" style="fill:#fff"/><path d="M62.2,60.7a1.85,1.85,0,0,1,.5,1.2,2.34,2.34,0,0,1-.8,1.8,3.48,3.48,0,0,1-2.4.6H56.6V55.9h2.7a4.65,4.65,0,0,1,2.3.6,2.09,2.09,0,0,1,.8,1.6,1.4,1.4,0,0,1-.3.9,2.36,2.36,0,0,1-.9.8A4.06,4.06,0,0,1,62.2,60.7Zm-4.7-1.2H59a2.82,2.82,0,0,0,1.5-.4,1.25,1.25,0,0,0,0-2,2.54,2.54,0,0,0-1.5-.3H57.5ZM61,63a1.07,1.07,0,0,0,.5-1.1,1.43,1.43,0,0,0-.5-1.1,3.17,3.17,0,0,0-1.6-.4H57.6v3h1.8A2.4,2.4,0,0,0,61,63Z" style="fill:#fff"/><path d="M66.7,60.3l-.8.8v3.2H64.8V55.9h1.1v3.8l1.5-1.6,2.3-2.3h1.5l-3.7,3.6,4.2,4.8H70.4Z" style="fill:#fff"/><path d="M78,56.5a2.27,2.27,0,0,1,.8,2v5.8h-1l-.1-.8a2.9,2.9,0,0,1-2.3,1,3.89,3.89,0,0,1-2.3-.7,2.46,2.46,0,0,1,0-3.8,4.84,4.84,0,0,1,2.6-.7h2.1v-.9a2.39,2.39,0,0,0-.5-1.4,2.69,2.69,0,0,0-1.5-.5,2.3,2.3,0,0,0-1.4.4,1.43,1.43,0,0,0-.6,1.2H72.7a2.23,2.23,0,0,1,.9-1.7,3.89,3.89,0,0,1,2.3-.7A3.44,3.44,0,0,1,78,56.5Zm-.8,6.7a1.61,1.61,0,0,0,.6-1.3V60.4h-2a3.29,3.29,0,0,0-1.7.4,1.56,1.56,0,0,0-.6,1.2,1.31,1.31,0,0,0,.6,1.2,3.17,3.17,0,0,0,1.6.4,4.19,4.19,0,0,0,1.5-.4Z" style="fill:#fff"/><path d="M49.2,11a1.14,1.14,0,0,1-.3-.8,1,1,0,0,1,1-1.1A.1.1,0,0,1,50,9a1.1,1.1,0,1,1,0,2.2A.78.78,0,0,1,49.2,11Zm0,2.3h1.7v11H49.3Z" style="fill:#fff"/><circle cx="50.3" cy="16.6" r="14.5" style="fill:none;stroke:#fcfcfc;stroke-linecap:round;stroke-linejoin:round"/></g></svg>