<svg xmlns="http://www.w3.org/2000/svg" viewBox="0 0 100 100"><defs><style>.cls-1{fill:none;stroke:#1a1a18;stroke-linecap:round;stroke-linejoin:round;}</style></defs><g id="Тарировка"><path d="M49.26,39.11a.73.73,0,0,1-.22-.56.74.74,0,0,1,.79-.79.8.8,0,0,1,.57.21.78.78,0,0,1,.22.58.72.72,0,0,1-.22.55.78.78,0,0,1-.57.23A.74.74,0,0,1,49.26,39.11Zm0,1.56h1.14v7.57H49.27Z"/><path d="M28.66,73.08a2.35,2.35,0,0,1-.76-1.85V67.58a2.34,2.34,0,0,1,.75-1.85,2.77,2.77,0,0,1,2-.67,3,3,0,0,1,2,.63,2.46,2.46,0,0,1,.81,1.8h-.86A1.89,1.89,0,0,0,32,66.17a2,2,0,0,0-1.36-.44,1.86,1.86,0,0,0-1.33.47,1.77,1.77,0,0,0-.5,1.38v3.65a1.77,1.77,0,0,0,.51,1.38,2,2,0,0,0,1.38.47,1.77,1.77,0,0,0,1.95-1.75h.87a2.6,2.6,0,0,1-.85,1.78,3.34,3.34,0,0,1-4,0Z"/><path d="M35.08,67.31h4.57v6.3H38.8V68H35.92v5.63h-.84Z"/><path d="M46,67.79a2.39,2.39,0,0,1,.64,1.78v1.82a2.14,2.14,0,0,1-2.35,2.36,2.68,2.68,0,0,1-1-.18,2,2,0,0,1-.77-.53v2.73H41.7V67.31h.69l.12.58a2,2,0,0,1,.77-.54,2.79,2.79,0,0,1,1-.19A2.34,2.34,0,0,1,46,67.79Zm-.23,1.78c0-1.16-.55-1.75-1.67-1.75a1.52,1.52,0,0,0-1.13.45,1.74,1.74,0,0,0-.44,1.28v1.84A1.76,1.76,0,0,0,43,72.62a1.46,1.46,0,0,0,1.13.47,1.47,1.47,0,0,0,1.67-1.7Z"/><path d="M52.41,67.73A1.92,1.92,0,0,1,53,69.25v4.36H52.3l-.07-.6a2.21,2.21,0,0,1-1.75.74,2.67,2.67,0,0,1-1.72-.52,1.66,1.66,0,0,1-.67-1.41,1.62,1.62,0,0,1,.68-1.4,3.28,3.28,0,0,1,1.92-.49h1.49v-.67a1.35,1.35,0,0,0-.38-1.05,1.56,1.56,0,0,0-1.11-.36,1.73,1.73,0,0,0-1.06.29,1.06,1.06,0,0,0-.46.81h-.85a1.67,1.67,0,0,1,.69-1.3,2.74,2.74,0,0,1,1.7-.49A2.41,2.41,0,0,1,52.41,67.73Zm-.65,5a1.21,1.21,0,0,0,.42-1V70.59H50.66a2.14,2.14,0,0,0-1.27.32,1.06,1.06,0,0,0-.43.92,1.05,1.05,0,0,0,.44.91,2.07,2.07,0,0,0,1.21.31A1.74,1.74,0,0,0,51.76,72.69Z"/><path d="M59.4,70.88a1.43,1.43,0,0,1,.34.91,1.57,1.57,0,0,1-.63,1.34,3,3,0,0,1-1.83.48h-2.2V67.32h2a2.8,2.8,0,0,1,1.7.45A1.44,1.44,0,0,1,59.37,69a1.26,1.26,0,0,1-.23.69,2,2,0,0,1-.64.58A1.75,1.75,0,0,1,59.4,70.88ZM55.91,70h1.14a1.85,1.85,0,0,0,1.09-.27.85.85,0,0,0,.38-.74.88.88,0,0,0-.38-.75A1.93,1.93,0,0,0,57.05,68H55.91Zm2.57,2.63a1,1,0,0,0,.41-.85.92.92,0,0,0-.41-.82,2,2,0,0,0-1.21-.29H55.91v2.25h1.36A2,2,0,0,0,58.48,72.64Z"/><path d="M62.75,70.59l-.59.6v2.42h-.85v-6.3h.85v2.85L63.28,69,65,67.31h1.09L63.31,70l3.13,3.57h-1Z"/><path d="M71.22,67.73a2,2,0,0,1,.62,1.52v4.36H71.1L71,73a2.17,2.17,0,0,1-1.74.74,2.7,2.7,0,0,1-1.73-.52,1.68,1.68,0,0,1-.66-1.41,1.59,1.59,0,0,1,.68-1.4,3.24,3.24,0,0,1,1.91-.49H71v-.67a1.39,1.39,0,0,0-.38-1.05,1.59,1.59,0,0,0-1.12-.36,1.77,1.77,0,0,0-1.06.29A1.08,1.08,0,0,0,68,69h-.85a1.67,1.67,0,0,1,.69-1.3,2.72,2.72,0,0,1,1.7-.49A2.41,2.41,0,0,1,71.22,67.73Zm-.66,5a1.19,1.19,0,0,0,.43-1V70.59H69.46a2.16,2.16,0,0,0-1.27.32,1.09,1.09,0,0,0-.43.92,1,1,0,0,0,.45.91,2.07,2.07,0,0,0,1.21.31A1.69,1.69,0,0,0,70.56,72.69Z"/><circle class="cls-1" cx="50" cy="43" r="10"/></g></svg>