<?xml version="1.0" encoding="utf-8"?>
<!-- Generator: Adobe Illustrator 25.0.0, SVG Export Plug-In . SVG Version: 6.00 Build 0)  -->
<svg version="1.1"
	 id="Logotype" inkscape:version="0.92.3 (2405546, 2018-03-11)" sodipodi:docname="source_477189943_525.svg" xmlns:cc="http://creativecommons.org/ns#" xmlns:dc="http://purl.org/dc/elements/1.1/" xmlns:inkscape="http://www.inkscape.org/namespaces/inkscape" xmlns:rdf="http://www.w3.org/1999/02/22-rdf-syntax-ns#" xmlns:sodipodi="http://sodipodi.sourceforge.net/DTD/sodipodi-0.dtd" xmlns:svg="http://www.w3.org/2000/svg"
	 xmlns="http://www.w3.org/2000/svg" xmlns:xlink="http://www.w3.org/1999/xlink" x="0px" y="0px" viewBox="0 0 3255.8 847.6"
	 style="enable-background:new 0 0 3255.8 847.6;" xml:space="preserve">
<style type="text/css">
	.st0{fill:#395781;}
</style>
<sodipodi:namedview  bordercolor="#666666" borderopacity="1" gridtolerance="10" guidetolerance="10" id="namedview22" inkscape:current-layer="Logotype" inkscape:cx="2000" inkscape:cy="1663" inkscape:pageopacity="0" inkscape:pageshadow="2" inkscape:window-height="480" inkscape:window-maximized="0" inkscape:window-width="640" inkscape:window-x="0" inkscape:window-y="0" inkscape:zoom="0.070956103" objecttolerance="10" pagecolor="#ffffff" showgrid="false">
	</sodipodi:namedview>
<path id="body1" class="st0" d="M3229.7,38l-95.3,1.1c0,1.5-0.5,3.3-1.6,5.5l-156.7,314.8l197.8-3.7L3229.7,38z M3046.1,40.1
	l-150.2,1.8c0,0.1,0,0.1,0,0.2l18.3,155.1c5.1,42,8.6,78.3,10.7,108.8h3c20.7-51.5,34.9-85.7,42.7-102.7l75.2-162.7
	C3046,40.4,3046.1,40.3,3046.1,40.1z M2813.6,42.9l-91.1,1.1c10.7,6.4,20,14.5,27.8,24.6c21.4,27.1,28.1,63.5,20.3,109.3l-15.8,90
	c-7.1,41.1-23.7,73.3-49.9,96.8l155.4-2.9l-46.8-318.5C2813.6,43,2813.6,42.9,2813.6,42.9z M2569.4,45.7l-121.5,1.4l-57.1,323.3
	l107.1-2c-1.9-2.1-3.7-4.3-5.4-6.6c-20.7-28.5-27.1-65.6-19.3-111.3l15.8-90c7.5-41.7,25.6-74.2,54.4-97.6
	C2551.4,56.3,2560.1,50.5,2569.4,45.7z M2368.1,48.1l-106,1.2l37.4,112.2c11.5,36.9,22,73.4,31.5,109.3l2.5-0.5
	c5.1-43.7,11.9-90.7,20.3-140.8L2368.1,48.1z M2171.5,50.4l-147.9,1.7l49.1,324.3l41.5-0.8L2171.5,50.4z M1921.7,53.4l-93.5,1.1
	L1664,384.2l96.8-1.8L1921.7,53.4z M1739.2,55.5L1598,57.2l16.5,139.9c5.1,42,8.6,78.3,10.7,108.8h3c20.7-51.5,34.9-85.7,42.7-102.7
	L1739.2,55.5z M1516,58.2l-42.9,0.5l-58.3,330.3l149.3-2.8L1516,58.2z M1392.4,59.6l-390.7,4.6L943,397.9l391.5-7.4
	c-0.1-0.8,0-1.7,0.1-2.7L1392.4,59.6z M2642.5,101.5c-39.7,0-63.5,22-71.7,66.1l-16.8,92c-3.7,21.4-1.5,38.5,6.6,51.3
	c8.1,12.5,21.4,18.8,39.7,18.8c19.7,0,35.8-5.8,48.3-17.3c12.5-11.9,20.7-28.3,24.4-49.3l16.3-93c3.7-21,1.5-37.6-6.6-49.8
	C2674.8,107.8,2661.4,101.5,2642.5,101.5z M1962.6,122.4c-29.1,68.8-48.6,113.9-58.5,135.2h74.2c-1.4-12.2-3-28.1-5.1-47.8
	s-3.7-36.8-5.1-51.3s-2.5-26.6-3.6-36.1H1962.6z M2225.8,161.5l-2,1c-6.1,62.7-12.5,112.9-19.3,150.5l-10.6,61.2l100.5-1.9
	l-33.5-89.8C2246.3,244.6,2234.6,204.2,2225.8,161.5z M1872.1,329.8l-22.9,50.9l143.1-2.7l-5.8-48.2H1872.1z M851.4,451.7
	c-40.9,0-75.6,11.1-104.2,33.2c-28.2,21.8-45.8,52.8-52.8,93.1l-18.1,107.7c-6.7,39.6,0.5,72.6,21.6,99.1
	c21.5,26.2,52,39.2,91.6,39.2c25.2,0,49.6-4.2,73.5-12.6c24.2-8.7,44.6-20.5,61.4-35.2c2.3-2,4-5.2,5-9.6l26.2-148.4
	c1-6.4-1.5-9.6-7.5-9.6H826.3c-5.4,0-8.4,2.7-9.1,8.1l-8.6,47.8c-1,6.4,1.5,9.6,7.5,9.6h53.3L858,737c-15.4,8.4-34.2,12.9-56.4,13.6
	c-16.8,0-29.2-5.5-37.2-16.6c-7.7-11.1-10.2-25.3-7.5-42.8l18.1-105.7c3-19.1,10.6-34,22.6-44.8s27.3-16.1,45.8-16.1
	c27.2,0,50.8,7.2,70.9,21.6c5,2.7,9.1,2,12.1-2l38.7-43.8c3.4-4.7,3-8.9-1-12.6C933.3,463.8,895.7,451.7,851.4,451.7z M3047,451.7
	c-40.9,0-75.6,11.1-104.2,33.2c-28.2,21.8-45.8,52.8-52.8,93.1l-18.1,107.7c-6.7,39.6,0.5,72.6,21.6,99.1
	c21.5,26.2,52,39.2,91.6,39.2c25.2,0,49.6-4.2,73.5-12.6c24.2-8.7,44.6-20.5,61.4-35.2c2.3-2,4-5.2,5-9.6l26.2-148.4
	c1-6.4-1.5-9.6-7.5-9.6h-121.8c-5.4,0-8.4,2.7-9.1,8.1l-8.6,47.8c-1,6.4,1.5,9.6,7.5,9.6h53.3l-11.6,62.9
	c-15.4,8.4-34.2,12.9-56.4,13.6c-16.8,0-29.2-5.5-37.2-16.6c-7.7-11.1-10.2-25.3-7.5-42.8l18.1-105.7c3-19.1,10.6-34,22.6-44.8
	s27.3-16.1,45.8-16.1c27.2,0,50.8,7.2,71,21.6c5,2.7,9.1,2,12.1-2l38.7-43.8c3.4-4.7,3-8.9-1-12.6
	C3128.9,463.8,3091.3,451.7,3047,451.7z M101.8,458.3c-5,0-8.1,2.7-9.1,8.1L31.8,808.5c-0.7,6.4,2,9.6,8.1,9.6h214.9
	c5.4,0,8.6-2.7,9.6-8.1l9.1-54.8c0.7-6.4-2-9.6-8.1-9.6H122.9l13.1-75h121.3c5,0,8.1-2.7,9.1-8.1l9.6-52.8c1-6.4-1.5-9.6-7.5-9.6
	H148.6l12.6-69.9H298c5,0,8.1-2.7,9.1-8.1l9.6-54.3c1-6.4-1.7-9.6-8.1-9.6H101.8z M389.2,458.3c-5.4,0-8.4,2.7-9.1,8.1l-60.4,342.2
	c-1,6.4,1.5,9.6,7.5,9.6h61.9c5,0,8.1-2.7,9.1-8.1l13.1-75.5c6.7-37.2,13.1-86.9,19.1-148.9l2-1c8.7,42.3,20.3,82.2,34.7,119.8
	L507,811c2,4.7,5.4,7,10.1,7h65.9c5.4,0,8.6-2.7,9.6-8.1l60.4-342.2c1-6.4-1.7-9.6-8.1-9.6h-61.4c-5,0-8.1,2.7-9.1,8.1l-15.1,86.5
	c-8.4,49.6-15.1,96.1-20.1,139.4l-2.5,0.5c-9.4-35.6-19.8-71.6-31.2-108.2l-39.8-119.3c-1-4.7-4.4-7-10.1-7H389.2z M1051.1,458.3
	c-5.4,0-8.6,2.7-9.6,8.1l-60.4,342.2c-0.7,6.4,2,9.6,8.1,9.6h62.4c5,0,8.1-2.7,9.1-8.1l60.4-342.2c1-6.4-1.7-9.6-8.1-9.6H1051.1z
	 M1202,458.3c-5.4,0-8.4,2.7-9.1,8.1l-60.4,342.2c-1,6.4,1.5,9.6,7.5,9.6h61.9c5,0,8.1-2.7,9.1-8.1l13.1-75.5
	c6.7-37.2,13.1-86.9,19.1-148.9l2-1c8.7,42.3,20.3,82.2,34.7,119.8l39.8,106.7c2,4.7,5.4,7,10.1,7h65.9c5.4,0,8.6-2.7,9.6-8.1
	l60.4-342.2c1-6.4-1.7-9.6-8.1-9.6h-61.4c-5,0-8.1,2.7-9.1,8.1l-15.1,86.5c-8.4,49.6-15.1,96.1-20.1,139.4l-2.5,0.5
	c-9.4-35.6-19.8-71.6-31.2-108.2l-39.8-119.3c-1-4.7-4.4-7-10.1-7H1202z M1547.5,458.3c-5,0-8.1,2.7-9.1,8.1l-60.9,342.2
	c-0.7,6.4,2,9.6,8.1,9.6h214.9c5.4,0,8.6-2.7,9.6-8.1l9.1-54.8c0.7-6.4-2-9.6-8.1-9.6h-142.4l13.1-75H1703c5,0,8.1-2.7,9.1-8.1
	l9.6-52.8c1-6.4-1.5-9.6-7.5-9.6h-119.8l12.6-69.9h136.9c5,0,8.1-2.7,9.1-8.1l9.6-54.3c1-6.4-1.7-9.6-8.1-9.6H1547.5z M1835.4,458.3
	c-5,0-8.1,2.7-9.1,8.1l-60.9,342.2c-0.7,6.4,2,9.6,8.1,9.6h214.9c5.4,0,8.6-2.7,9.6-8.1l9.1-54.8c0.7-6.4-2-9.6-8.1-9.6h-142.4
	l13.1-75h121.3c5,0,8.1-2.7,9.1-8.1l9.6-52.8c1-6.4-1.5-9.6-7.5-9.6h-119.8l12.6-69.9h136.9c5,0,8.1-2.7,9.1-8.1l9.6-54.3
	c1-6.4-1.7-9.6-8.1-9.6H1835.4z M2122.9,458.3c-5.4,0-8.6,2.7-9.6,8.1l-59.9,342.2c-1,6.4,1.7,9.6,8.1,9.6h62.4
	c5.4,0,8.6-2.7,9.6-8.1l19.1-111.7h33.2l46.3,113.2c1.3,4.4,4.7,6.5,10.1,6.5h68.4c7.4,0,9.4-3.4,6-10.1l-56.4-119.3
	c50-15.1,79.2-48.8,87.6-101.1c6-37.6-0.7-68.4-20.1-92.6c-19.5-24.5-49.1-36.7-89.1-36.7H2122.9z M2434,458.3
	c-5.4,0-8.6,2.7-9.6,8.1L2364,808.5c-0.7,6.4,2,9.6,8.1,9.6h62.4c5,0,8.1-2.7,9.1-8.1l60.4-342.2c1-6.4-1.7-9.6-8.1-9.6H2434z
	 M2584.8,458.3c-5.4,0-8.4,2.7-9.1,8.1l-60.4,342.2c-1,6.4,1.5,9.6,7.5,9.6h61.9c5,0,8.1-2.7,9.1-8.1l13.1-75.5
	c6.7-37.2,13.1-86.9,19.1-148.9l2-1c8.7,42.3,20.3,82.2,34.7,119.8l39.8,106.7c2,4.7,5.4,7,10.1,7h65.9c5.4,0,8.6-2.7,9.6-8.1
	l60.4-342.2c1-6.4-1.7-9.6-8.1-9.6H2779c-5,0-8.1,2.7-9.1,8.1l-15.1,86.5c-8.4,49.6-15.1,96.1-20.1,139.4l-2.5,0.5
	c-9.4-35.6-19.8-71.6-31.2-108.2l-39.8-119.3c-1-4.7-4.4-7-10.1-7H2584.8z M2181.8,530.7h44.8c31.9,0,45.3,16.9,40.3,50.8
	c-5,30.2-24.2,45.3-57.4,45.3h-44.3L2181.8,530.7z"/>
</svg>
