<svg xmlns="http://www.w3.org/2000/svg" xmlns:xlink="http://www.w3.org/1999/xlink" viewBox="0 0 267.07 75"><defs><linearGradient id="Безымянный_градиент_2" y1="37.5" x2="78.81" y2="37.5" gradientUnits="userSpaceOnUse"><stop offset="0" stop-color="#ee7a53"/><stop offset="1" stop-color="#e9555e"/></linearGradient><linearGradient id="Безымянный_градиент_2-2" x1="49.87" y1="26.66" x2="57.6" y2="26.66" xlink:href="#Безымянный_градиент_2"/></defs><g id="Слой_2" data-name="Слой 2"><g id="Слой_1-2" data-name="Слой 1"><path d="M111.23,61V54.17l-3.78,5.06-3.72-5.06V61h-3V48.25h2.36l4.36,6.4,4.41-6.4h2.36V61Z" style="fill:#fff"/><path d="M124.47,61.35A7.89,7.89,0,0,1,119,59.43a6.21,6.21,0,0,1-2.15-4.81A6.1,6.1,0,0,1,119,49.83a9,9,0,0,1,11,0,6.08,6.08,0,0,1,2.14,4.79A6.17,6.17,0,0,1,130,59.44,8,8,0,0,1,124.47,61.35Zm3.25-9.44a4.64,4.64,0,0,0-3.25-1.11,4.57,4.57,0,0,0-3.23,1.11A3.49,3.49,0,0,0,120,54.59a3.54,3.54,0,0,0,1.21,2.74,5.31,5.31,0,0,0,6.51,0,3.6,3.6,0,0,0,1.2-2.73A3.48,3.48,0,0,0,127.72,51.91Z" style="fill:#fff"/><path d="M144.34,61V55.68h-6.62V61h-3.11V48.25h3.11v4.4h6.62v-4.4h3.12V61Z" style="fill:#fff"/><path d="M153.23,61h-2.17V48.25h3V55.8l6.47-7.55h2.18V61h-3V53.44Z" style="fill:#fff"/><path d="M172.26,51.19V61h-3.12v-9.8h-4.8V48.25h12.73v2.94Z" style="fill:#fff"/><path d="M185.57,61.35a7.91,7.91,0,0,1-5.48-1.92,6.21,6.21,0,0,1-2.15-4.81,6.11,6.11,0,0,1,2.14-4.79,9,9,0,0,1,11,0,6.09,6.09,0,0,1,2.15,4.79,6.18,6.18,0,0,1-2.15,4.82A8,8,0,0,1,185.57,61.35Zm3.25-9.44a4.66,4.66,0,0,0-3.25-1.11,4.6,4.6,0,0,0-3.24,1.11,3.49,3.49,0,0,0-1.21,2.68,3.54,3.54,0,0,0,1.21,2.74,5.32,5.32,0,0,0,6.52,0A3.63,3.63,0,0,0,190,54.59,3.5,3.5,0,0,0,188.82,51.91Z" style="fill:#fff"/><path d="M195.73,48.25h9A5,5,0,0,1,208,49.41a3.67,3.67,0,0,1,1,2.76,4.05,4.05,0,0,1-1.12,3,4.77,4.77,0,0,1-3.48,1.15h-5.6V61h-3.14Zm3.14,5.19h5.57a1.51,1.51,0,0,0,1-.28,1.12,1.12,0,0,0,.39-.9,1,1,0,0,0-.39-.91,2,2,0,0,0-1.09-.25h-5.51Z" style="fill:#fff"/><path d="M213.33,61h-2.18V48.25h3V55.8l6.47-7.55h2.18V61h-3V53.44Z" style="fill:#fff"/><path d="M236.16,61V55.68h-6.62V61h-3.12V48.25h3.12v4.4h6.62v-4.4h3.12V61Z" style="fill:#fff"/><path d="M246,51.29V61h-3.11V48.25H254v3Z" style="fill:#fff"/><path d="M263.63,61l-1.4-2.76h-5.32L255.52,61H252.1l6.5-12.74h1.94L267.07,61Zm-4.06-8.19-1.36,2.85h2.72Z" style="fill:#fff"/><path d="M124.25,19.9v4.19H112.84V40.94h-6.47V24.09H95.08V19.9Z" style="fill:#fff"/><path d="M148.87,40.94H137c-7.24,0-10-2.09-10-7.18V27.15c0-5.76,2.61-7.49,10-7.49h11.88c6.7,0,9.78,1.58,9.78,7.49v6.61C158.65,39,156.43,40.94,148.87,40.94Zm-10.32-4.18h8.57c4.13,0,5.06-.7,5.06-3.55V27.6c0-3.06-1.32-3.76-5.18-3.76h-8.33c-4,0-5.18.79-5.18,3.79v5.61C133.49,36,134.62,36.76,138.55,36.76Z" style="fill:#fff"/><path d="M168.82,24.75c0,2.94,1.44,3.82,4.91,3.82h4.56c3.27,0,4.83-.42,6-1.82V19.9h6.47v21h-6.47V31.3a15,15,0,0,1-7.13,1.46h-4.9c-6.82,0-9.93-2.37-9.93-7.46V19.9h6.46Z" style="fill:#fff"/><path d="M201.74,27.76h3.82l11.8-7.86h9.7l-15.93,9.86,16.55,11.18h-9.5l-12.5-9h-3.94v9h-6.46v-21h6.46Z" style="fill:#fff"/><path d="M228.59,40.94l14.33-21h9.58l14.22,21h-7.6l-3.46-5.3h-16l-3.51,5.3Zm24.46-9.27-5.15-7.83h-.31l-5.33,7.83Z" style="fill:#fff"/><path d="M76.33,16.39A25.09,25.09,0,0,0,72,10.52L71.4,10C65.24,4.11,54.68.5,42.43.05c-11.64-.42-23.09,2-30.64,6.5-18.73,11.17-10.6,31.69-6.24,40A69.34,69.34,0,0,0,13.19,58c9.57,11.6,17.41,16.84,25.43,17a20.23,20.23,0,0,0,9.7-2.44l.16-.09A42.38,42.38,0,0,0,60,62.82C77.18,43.37,82.52,28.18,76.33,16.39ZM42.4,1c12,.44,22.33,4,28.32,9.68l.49.49a24,24,0,0,1,4.25,5.7c2.48,4.74,3,10,1.65,16A18.32,18.32,0,0,0,75.34,21a21.9,21.9,0,0,0-3.21-4.51C62,5.33,34.51,1.39,25.23,2.69c-.86.11-1.71.26-2.56.43A66.53,66.53,0,0,1,42.4,1ZM38.74,4.77C50.79,8,67.36,19.42,71.59,31.56c6.26,17.93-21.19,32-34.81,33.22h-.24C26,65.67,18.85,60.52,14.84,52.9h0C4.68,33.55,14.52-1.72,38.74,4.77Zm11.1,62.49c6-4.73,17.14-14.65,23-23.57A103,103,0,0,1,59.39,62.14c-7.15,8.1-13.93,12-20.73,11.86a19.07,19.07,0,0,1-7.47-1.71C35,73.15,42.45,73.11,49.84,67.26ZM10.42,8.6A13.86,13.86,0,0,0,5.26,19C5,28.46,6.93,40.22,11.93,52.17a40.61,40.61,0,0,0,4.88,8.57q-1.41-1.58-2.88-3.35A66.3,66.3,0,0,1,6.44,46.14C2.36,38.38-5.11,19.64,10.42,8.6ZM37.24,64.75h0ZM49.76,1.65h0" style="fill:url(#Безымянный_градиент_2)"/><path d="M42.05,33.73l1.31,12.16h0l5.69-13.47h6.33l-3.93,19.5h-3.6l1.09-5.42,1.86-7.65-.06,0-7,13.1H41.36l-1.7-13h-.07L38.4,46.5l-1.08,5.42h-3.6l3.63-18.19Z" style="fill:#fff"/><circle cx="53.73" cy="26.66" r="3.87" style="fill:url(#Безымянный_градиент_2-2)"/><path d="M48.11,25.48l0,.06Z" style="fill:#fff"/><line x1="48.09" y1="25.54" x2="47.87" y2="26.66" style="fill:#fff"/><path d="M53.73,19.15a7.5,7.5,0,0,0-7,5H19.1l-.86,4.29h7.12L20.67,51.92h5.5l4.69-23.51H47.53l.34-1.75.22-1.12s0,0,0-.06a5.75,5.75,0,1,1,5.62,6.94v1.75a7.51,7.51,0,1,0,0-15Z" style="fill:#fff"/><rect x="52.63" y="16.5" width="2.2" height="2.78" style="fill:#fff"/><rect x="61.15" y="25.56" width="2.78" height="2.2" style="fill:#fff"/></g></g></svg>