<svg id="Слой_1" data-name="Слой 1" xmlns="http://www.w3.org/2000/svg" viewBox="0 0 97.83 278.04"><path d="M70.28,102q0,39.57,0,79.14a2.15,2.15,0,0,0,1.14,2.12c13,8.13,21.15,20.07,23.6,35.94,2.64,17.1-1.88,32.09-13.23,44.55A45,45,0,0,1,56.15,278c-20.77,3.87-41.26-7-50.94-27.07A50.56,50.56,0,0,1,0,228.34c.21-19.76,8.34-34.81,24.21-45a2.13,2.13,0,0,0,1.18-2.08q0-78.37,0-156.74c0-8.84,3.46-15.87,10.44-20.72C49-5.42,67.28,3.11,69.89,19.67a32.18,32.18,0,0,1,.37,5Q70.29,63.33,70.28,102Zm-5,1.1q0-39.22,0-78.47a24.93,24.93,0,0,0-.33-4C63.32,10.66,53.83,3.76,44.62,5.79,36.17,7.65,30.49,15.08,30.49,24.3q0,78.77,0,157.52a6.21,6.21,0,0,1-3.26,5.87c-16.93,9.86-25.57,30.85-21,50.85,5.6,24.34,28.45,39.36,51.35,33.63,21.28-5.33,35.66-27.05,32.6-50.52-2-15.06-9.4-26.38-21.77-33.94a6.24,6.24,0,0,1-3.24-5.87Q65.27,142.47,65.24,103.08Z" style="fill:#555"/><path d="M88.13,93.41c-2.87,0-5.74,0-8.62,0-.76,0-1-.24-.93-1.06.07-1.44,0-2.9,0-4.35,0-.71.11-1.05.87-1.05q8.76,0,17.5,0c.71,0,.88.29.87,1,0,1.52,0,3,0,4.55,0,.73-.23,1-.9.94C94,93.39,91.06,93.41,88.13,93.41Z" style="fill:#555"/><path d="M88.16,157.09c2.87,0,5.75,0,8.62,0,.76,0,1.09.17,1,1.07-.07,1.45,0,2.9,0,4.35,0,.63-.13.93-.81.93q-8.79,0-17.59,0c-.71,0-.87-.29-.85-1,0-1.45.08-2.91,0-4.36,0-.87.26-1,1-1C82.42,157.1,85.29,157.09,88.16,157.09Z" style="fill:#555"/><path d="M88.13,58.37c-2.9,0-5.8,0-8.7,0-.68,0-.88-.2-.85-.93.06-1.52,0-3,0-4.55,0-.59.1-.9.73-.89q8.88,0,17.76,0c.55,0,.75.23.74.81,0,1.54,0,3.09,0,4.64,0,.75-.24.93-.9.92C94,58.35,91.06,58.37,88.13,58.37Z" style="fill:#555"/><path d="M88.22,128.38c-2.84,0-5.68,0-8.52,0-.82,0-1.13-.26-1.1-1.15.05-1.45,0-2.9,0-4.35,0-.6.18-.87.79-.87q8.84,0,17.67,0c.63,0,.75.31.75.89,0,1.51,0,3,0,4.54,0,.74-.25.94-.9.94C94,128.36,91.12,128.38,88.22,128.38Z" style="fill:#555"/><path d="M83.92,145.93c-1.54,0-3.08,0-4.62,0-.47,0-.73-.12-.71-.7,0-1.61,0-3.22,0-4.83,0-.67.24-.91.85-.9q4.53,0,9.05,0c.62,0,.87.22.85.9,0,1.54,0,3.09,0,4.63,0,.76-.29.93-.92.91C86.93,145.91,85.42,145.93,83.92,145.93Z" style="fill:#555"/><path d="M78.59,40.88c0-2.07,0-4,0-5.92,0-.17.38-.47.59-.48,3.17,0,6.34,0,9.51,0,.21,0,.59.43.6.67.05,1.67.05,3.35,0,5,0,.24-.34.66-.53.66C85.42,40.89,82.05,40.88,78.59,40.88Z" style="fill:#555"/><path d="M84,110.88c-1.51,0-3,0-4.54,0-.66,0-.9-.19-.87-.93.06-1.49,0-3,0-4.45,0-.69.12-1,.83-1q4.55,0,9.07,0c.66,0,.92.22.9.94,0,1.52,0,3,0,4.55,0,.7-.25.89-.86.87C87,110.86,85.48,110.88,84,110.88Z" style="fill:#555"/><path d="M78.57,69.51h3.94c2,0,4,0,6,0,.59,0,.89.14.87.85,0,1.55,0,3.1,0,4.65,0,.61-.2.86-.79.85-3.08,0-6.16,0-9.24,0-.25,0-.72-.34-.73-.53C78.55,73.4,78.57,71.5,78.57,69.51Z" style="fill:#555"/><path d="M65.24,103.08q0,39.39,0,78.76a6.24,6.24,0,0,0,3.24,5.87c12.37,7.56,19.81,18.88,21.77,33.94,3.06,23.47-11.32,45.19-32.6,50.52-22.9,5.73-45.75-9.29-51.35-33.63-4.6-20,4-41,21-50.85a6.21,6.21,0,0,0,3.26-5.87q0-78.75,0-157.52c0-9.22,5.68-16.65,14.13-18.51,9.21-2,18.7,4.87,20.27,14.78a24.93,24.93,0,0,1,.33,4Q65.25,63.85,65.24,103.08Zm-6.18,21.44V60.1c0-1.46,0-1.46-1.4-1.46H38c-1.37,0-1.37,0-1.37,1.46q0,64.47,0,128.94a1.58,1.58,0,0,1-1.17,1.78c-17,6.57-26.88,24.86-23.75,43.85,3.53,21.36,23,35.63,43,31.58,19-3.86,32.14-22.91,29.51-43.43-2-15.55-10.2-26.13-23.81-31.93a1.86,1.86,0,0,1-1.38-2Q59.08,156.69,59.06,124.52Z" style="fill:#fff"/><path d="M59.06,124.52q0,32.16,0,64.33a1.86,1.86,0,0,0,1.38,2c13.61,5.8,21.82,16.38,23.81,31.93,2.63,20.52-10.48,39.57-29.51,43.43-20,4.05-39.47-10.22-43-31.58-3.13-19,6.76-37.28,23.75-43.85A1.58,1.58,0,0,0,36.63,189q0-64.47,0-128.94c0-1.46,0-1.46,1.37-1.46H57.66c1.39,0,1.4,0,1.4,1.46Z" style="fill:#555"/></svg>