<svg id="Слой_1" data-name="Слой 1" xmlns="http://www.w3.org/2000/svg" viewBox="0 0 300 165"><g id="главная_страница" data-name="главная страница"><path d="M163.46,72.85c-.54-.3-1-.52-1.46-.82-.88-.6-1.68-1.6-2.63-1.76s-1.9.69-2.9.89a2.34,2.34,0,0,0-2.15,2.53.28.28,0,0,0,0,.09,11.08,11.08,0,0,1-.34,1.88,1.74,1.74,0,0,1-1.76,1.72h-3.88c-1.23,0-1.65-.48-1.89-1.68-.21-1-.32-2.12-.57-3.16a1.49,1.49,0,0,0-.7-.89,17.21,17.21,0,0,1-2-.77,2.39,2.39,0,0,0-3.38.19.76.76,0,0,0-.11.14,12.27,12.27,0,0,1-1.47,1,1.69,1.69,0,0,1-2.39,0,1.24,1.24,0,0,1-.19-.21c-.87-.84-1.71-1.7-2.54-2.58a1.68,1.68,0,0,1-.3-2.36.67.67,0,0,1,.14-.15c.61-.88,1.29-1.72,1.85-2.63a1.63,1.63,0,0,0,.08-1.13c-.39-1.1-.84-2.18-1.33-3.24a1.41,1.41,0,0,0-.79-.69c-1-.25-2.1-.39-3.15-.58a1.87,1.87,0,0,1-1.83-1.9,1.49,1.49,0,0,1,0-.21V53a1.81,1.81,0,0,1,1.61-2h.13c1-.16,1.91-.31,2.87-.44a1.27,1.27,0,0,0,1.2-1c.32-1,.85-2,1.2-3.07a1.53,1.53,0,0,0-.09-1.15c-.57-.94-1.26-1.81-1.88-2.73a1.63,1.63,0,0,1,0-2.31l.14-.11c.86-.9,1.74-1.77,2.65-2.62a1.68,1.68,0,0,1,2.37-.26.75.75,0,0,1,.14.12c.85.6,1.7,1.2,2.51,1.84a1,1,0,0,0,1.25.14,33.34,33.34,0,0,1,3.13-1.32,1,1,0,0,0,.83-.95c.12-1.06.36-2.11.56-3.16a1.73,1.73,0,0,1,1.8-1.66l.14,0h3.71c1.24,0,1.65.48,1.9,1.68.2,1,.3,2.06.55,3.06a1.58,1.58,0,0,0,.75,1,34,34,0,0,0,3.41,1.42,1.42,1.42,0,0,0,1.05-.11c.9-.56,1.75-1.23,2.63-1.83a1.74,1.74,0,0,1,2.46,0s.09.1.13.16c.86.85,1.71,1.71,2.54,2.58a1.63,1.63,0,0,1,.3,2.29l-.11.14c-.62.92-1.32,1.78-1.9,2.72a1.47,1.47,0,0,0-.07,1.13,30,30,0,0,0,1.3,3.24,1.59,1.59,0,0,0,.89.74c1.07.26,2.17.39,3.25.61a1.73,1.73,0,0,1,1.61,1.84h0q.06,1.86,0,3.72a1.77,1.77,0,0,1-1.66,1.87h0c-1.09.18-2.19.33-3.26.58a1.35,1.35,0,0,0-.79.67c-.5,1.06-.87,2.17-1.39,3.22a1.06,1.06,0,0,0,.13,1.26c.64.86,1.24,1.74,1.83,2.64a1.64,1.64,0,0,1-.08,2.3l-.14.12c-.86.89-1.73,1.77-2.64,2.61A8,8,0,0,1,163.46,72.85Zm-13.13-7.31A10.69,10.69,0,1,0,139.69,54.8v0A10.79,10.79,0,0,0,150.33,65.54Z" style="fill:none;stroke:#000;stroke-miterlimit:10"/></g><text transform="translate(80.9 131.88)" style="font-size:26px;font-family:Akrobat-SemiBold, Akrobat;font-weight:600;letter-spacing:0.029991736778846152em">Vi<tspan x="18.8" y="0" style="letter-spacing:0.024996243990384616em">e</tspan><tspan x="31.2" y="0" style="letter-spacing:0.030010516826923076em">w settin</tspan><tspan x="115.18" y="0" style="letter-spacing:0.027005709134615384em">g</tspan><tspan x="128.02" y="0" style="letter-spacing:0.030010516826923076em">s</tspan></text></svg>