<svg id="Слой_1" data-name="Слой 1" xmlns="http://www.w3.org/2000/svg" viewBox="0 0 300 165"><g id="главная_страница" data-name="главная страница"><path d="M147.72,45.54a1.36,1.36,0,0,1,0-1.81,1.34,1.34,0,0,1,1.81,0,1.19,1.19,0,0,1,.35.91,1.29,1.29,0,0,1-1.34,1.23A1.32,1.32,0,0,1,147.72,45.54Zm-.08,3.85h2v17h-2Z" style="fill:none;stroke:#000"/><circle cx="149.01" cy="54.66" r="22.5" style="fill:none;stroke:#000;stroke-miterlimit:10"/><circle cx="149.01" cy="54.66" r="21.5" style="fill:none;stroke:#000;stroke-linecap:round;stroke-linejoin:round"/></g><path d="M83.06,126.92v-6.79c0-3.72,2-6,5.4-6s5.39,2.31,5.39,6v6.79c0,3.74-2,6-5.39,6S83.06,130.66,83.06,126.92Zm8.6,0v-6.79c0-2.52-1.09-3.95-3.2-3.95s-3.22,1.43-3.22,3.95v6.79c0,2.54,1.09,4,3.22,4S91.66,129.46,91.66,126.92Z"/><path d="M112.77,132.64h-2V120.86h-4.5v11.78h-2V119h8.58Z"/><path d="M126,123.93v3.82c0,3.35-1.66,5.2-4.32,5.2a3.85,3.85,0,0,1-2.88-1.3v5.67h-2V118.93h1.53l.21,1.28a4,4,0,0,1,3.14-1.56C124.21,118.65,126,120.52,126,123.93Zm-2.08,0c0-2.37-1-3.39-2.6-3.39-1.43,0-2.52,1.1-2.52,3.33v3.88c0,2,1,3.27,2.52,3.27,1.72,0,2.6-1,2.6-3.27Z"/><path d="M129.31,127.88v-4.19c0-3.27,1.84-5.07,4.7-5.07s4.68,1.8,4.68,5.07v4.19c0,3.27-1.82,5.07-4.68,5.07S129.31,131.15,129.31,127.88Zm7.33,0v-4.19c0-2.13-1-3.07-2.63-3.07s-2.62.94-2.62,3.07v4.19c0,2.13,1,3.09,2.62,3.09S136.64,130,136.64,127.88Z"/><path d="M149.35,120.91h-4.91v11.73h-2.05V118.93h7Z"/><path d="M161.31,123.93v3.82c0,3.35-1.66,5.2-4.31,5.2a3.87,3.87,0,0,1-2.89-1.3v5.67h-2V118.93h1.53l.21,1.28a4,4,0,0,1,3.15-1.56C159.55,118.65,161.31,120.52,161.31,123.93Zm-2.08,0c0-2.37-1-3.39-2.6-3.39-1.43,0-2.52,1.1-2.52,3.33v3.88c0,2,1,3.27,2.52,3.27,1.72,0,2.6-1,2.6-3.27Z"/><path d="M173.48,123.35v9.29h-1.69l-.15-1.3a3.51,3.51,0,0,1-3.12,1.63,4,4,0,0,1-4.27-4.23c0-2.71,1.85-4.16,4.84-4.16h2.34v-1.2c0-1.79-.76-2.78-2.32-2.78a2.19,2.19,0,0,0-2.39,2.1h-2.05c.1-2.49,1.84-4.08,4.5-4.08S173.48,120.39,173.48,123.35Zm-2,3.05h-2.37c-1.77,0-2.73.83-2.73,2.36s1,2.32,2.58,2.32a2.32,2.32,0,0,0,2.52-2.42Z"/><path d="M188.48,119v13.68h-1.92v-6.45c0-1.38.1-2.58.16-3.69l-.11-.06c-.39,1.15-.75,2.29-1.17,3.31l-1.48,3.4h-2l-1.48-3.4c-.39-1-.78-2.16-1.15-3.31l-.1.06c0,1.11.13,2.31.13,3.69v6.45h-1.92V119h2.08l2.41,5.56c.34.84.68,1.64,1,2.5H183c.29-.86.63-1.66,1-2.5l2.44-5.56Z"/><path d="M203.49,119v13.68h-1.93v-6.45c0-1.38.11-2.58.16-3.69l-.11-.06c-.39,1.15-.75,2.29-1.17,3.31l-1.48,3.4h-2l-1.48-3.4c-.39-1-.78-2.16-1.14-3.31l-.11.06c0,1.11.13,2.31.13,3.69v6.45h-1.92V119h2.08l2.42,5.56c.33.84.67,1.64,1,2.5H198c.28-.86.62-1.66,1-2.5l2.44-5.56Z"/><path d="M216.56,128.4a4.45,4.45,0,0,1-4.86,4.52c-2.78,0-4.55-1.82-4.55-5v-4.29c0-3.17,1.8-5,4.58-5s4.65,1.82,4.65,5v3h-7.15v1.24c0,2.08.94,3,2.52,3,1.75,0,2.55-.78,2.79-2.52Zm-7.33-4.81V125h5.12v-1.38c0-2.06-1-3-2.6-3S209.23,121.53,209.23,123.59Z"/></svg>