<svg id="Слой_1" data-name="Слой 1" xmlns="http://www.w3.org/2000/svg" viewBox="0 0 300 165"><g id="главная_страница" data-name="главная страница"><path d="M148,46.62a1.36,1.36,0,0,1,0-1.81,1.34,1.34,0,0,1,1.81,0,1.18,1.18,0,0,1,.35.91A1.3,1.3,0,0,1,148.81,47,1.38,1.38,0,0,1,148,46.62Zm-.08,3.85h2v17h-2Z" style="fill:none;stroke:#fff"/><circle cx="149.28" cy="55.74" r="22.5" style="fill:none;stroke:#fff;stroke-miterlimit:10"/><circle cx="149.28" cy="55.74" r="21.5" style="fill:none;stroke:#fff;stroke-linecap:round;stroke-linejoin:round"/></g><path d="M83.33,128V121.2c0-3.71,2-6,5.4-6s5.39,2.32,5.39,6V128c0,3.74-2,6.06-5.39,6.06S83.33,131.73,83.33,128Zm8.6,0V121.2c0-2.52-1.09-4-3.2-4s-3.22,1.43-3.22,4V128c0,2.55,1.09,4,3.22,4S91.93,130.54,91.93,128Z" style="fill:#fff"/><path d="M113,133.71H111V121.93h-4.5v11.78h-2V120H113Z" style="fill:#fff"/><path d="M126.25,125v3.82c0,3.36-1.66,5.2-4.32,5.2a3.85,3.85,0,0,1-2.88-1.3v5.67h-2V120h1.53l.21,1.27a4,4,0,0,1,3.14-1.56C124.48,119.72,126.25,121.59,126.25,125Zm-2.08,0c0-2.37-1-3.38-2.6-3.38-1.43,0-2.52,1.09-2.52,3.33v3.87c0,2,1,3.28,2.52,3.28,1.72,0,2.6-1,2.6-3.28Z" style="fill:#fff"/><path d="M129.58,129v-4.18c0-3.28,1.84-5.07,4.7-5.07s4.68,1.79,4.68,5.07V129c0,3.28-1.82,5.07-4.68,5.07S129.58,132.23,129.58,129Zm7.33,0v-4.18c0-2.14-1-3.07-2.63-3.07s-2.62.93-2.62,3.07V129c0,2.14,1,3.1,2.62,3.1S136.91,131.09,136.91,129Z" style="fill:#fff"/><path d="M149.62,122h-4.91v11.73h-2.05V120h7Z" style="fill:#fff"/><path d="M161.58,125v3.82c0,3.36-1.66,5.2-4.31,5.2a3.87,3.87,0,0,1-2.89-1.3v5.67h-2V120h1.53l.21,1.27a4,4,0,0,1,3.15-1.56C159.82,119.72,161.58,121.59,161.58,125Zm-2.08,0c0-2.37-1-3.38-2.6-3.38-1.43,0-2.52,1.09-2.52,3.33v3.87c0,2,1,3.28,2.52,3.28,1.72,0,2.6-1,2.6-3.28Z" style="fill:#fff"/><path d="M173.75,124.43v9.28h-1.69l-.15-1.3a3.49,3.49,0,0,1-3.12,1.64,4,4,0,0,1-4.27-4.24c0-2.7,1.85-4.16,4.84-4.16h2.34v-1.19c0-1.8-.76-2.79-2.32-2.79a2.18,2.18,0,0,0-2.39,2.11h-2.05c.1-2.5,1.84-4.08,4.5-4.08S173.75,121.46,173.75,124.43Zm-2.05,3h-2.37c-1.77,0-2.73.83-2.73,2.37s1,2.31,2.57,2.31a2.32,2.32,0,0,0,2.53-2.42Z" style="fill:#fff"/><path d="M188.75,120v13.68h-1.92v-6.45c0-1.38.1-2.57.16-3.69l-.11,0c-.39,1.14-.75,2.29-1.17,3.3l-1.48,3.41h-1.95l-1.48-3.41c-.39-1-.78-2.16-1.15-3.3l-.1,0c0,1.12.13,2.31.13,3.69v6.45h-1.93V120h2.08l2.42,5.57c.34.83.68,1.64,1,2.49h.08c.29-.85.63-1.66,1-2.49L186.7,120Z" style="fill:#fff"/><path d="M203.75,120v13.68h-1.92v-6.45c0-1.38.11-2.57.16-3.69l-.11,0c-.39,1.14-.75,2.29-1.17,3.3l-1.48,3.41h-1.95l-1.48-3.41c-.39-1-.78-2.16-1.14-3.3l-.11,0c0,1.12.13,2.31.13,3.69v6.45h-1.92V120h2.08l2.41,5.57c.34.83.68,1.64,1,2.49h.07c.29-.85.63-1.66,1-2.49L201.7,120Z" style="fill:#fff"/><path d="M216.83,129.47A4.46,4.46,0,0,1,212,134c-2.78,0-4.55-1.82-4.55-5v-4.29c0-3.17,1.79-5,4.58-5s4.65,1.82,4.65,5v3H209.5V129c0,2.08.94,3,2.52,3,1.74,0,2.55-.79,2.78-2.53Zm-7.33-4.81V126h5.12v-1.38c0-2-1-3-2.6-3S209.5,122.61,209.5,124.66Z" style="fill:#fff"/></svg>