<svg id="Слой_1" data-name="Слой 1" xmlns="http://www.w3.org/2000/svg" viewBox="0 0 300 165"><g id="главная_страница" data-name="главная страница"><path d="M148.08,45.54a1.36,1.36,0,0,1,0-1.81,1.34,1.34,0,0,1,1.81,0,1.19,1.19,0,0,1,.35.91,1.29,1.29,0,0,1-1.34,1.23A1.32,1.32,0,0,1,148.08,45.54ZM148,49.39h2v17h-2Z" style="fill:none;stroke:#fff"/><circle cx="149.37" cy="54.66" r="22.5" style="fill:none;stroke:#fff;stroke-miterlimit:10"/><circle cx="149.37" cy="54.66" r="21.5" style="fill:none;stroke:#fff;stroke-linecap:round;stroke-linejoin:round"/></g><path d="M129,128.68h-5.28l-1,4h-2.24l4.68-18.21h2.31l4.68,18.21H130Zm-.47-2-1.48-6.17c-.29-1.16-.55-2.7-.65-3.4h-.08c-.11.7-.37,2.24-.65,3.4l-1.48,6.17Z" style="fill:#fff"/><path d="M144,123.82v3.85c0,3.41-1.76,5.28-4.31,5.28a4,4,0,0,1-3.15-1.59l-.21,1.28h-1.53V113.81h2v6.11a3.85,3.85,0,0,1,2.89-1.3C142.37,118.62,144,120.47,144,123.82Zm-2.08,0c0-2.29-.88-3.28-2.6-3.28-1.56,0-2.52,1.31-2.52,3.28v3.88c0,2.26,1.09,3.32,2.52,3.32,1.64,0,2.6-1,2.6-3.35Z" style="fill:#fff"/><path d="M147.36,127.88v-4.19c0-3.27,1.85-5.07,4.71-5.07s4.68,1.8,4.68,5.07v4.19c0,3.27-1.82,5.07-4.68,5.07S147.36,131.15,147.36,127.88Zm7.33,0v-4.19c0-2.13-1-3.07-2.62-3.07s-2.63.94-2.63,3.07v4.19c0,2.13,1,3.09,2.63,3.09S154.69,130,154.69,127.88Z" style="fill:#fff"/><path d="M169.33,119v13.68H167.8l-.26-1.62a3.84,3.84,0,0,1-3.49,1.95c-2.28,0-3.74-1.61-3.74-5.35V119h2v8.5c0,2.47.67,3.56,2.23,3.56s2.73-1.35,2.73-3.69V119Z" style="fill:#fff"/><path d="M179.11,130.87v1.92h-.86c-2.63,0-4.11-1.66-4.11-4.39v-7.57h-2V119h2v-3.2h2V119h2.65v1.87h-2.65v7.57c0,1.64.65,2.47,2.13,2.47Z" style="fill:#fff"/></svg>