<svg id="Слой_1" data-name="Слой 1" xmlns="http://www.w3.org/2000/svg" viewBox="0 0 300 165"><g id="главная_страница" data-name="главная страница"><circle cx="134.5" cy="45.47" r="5" style="fill:none;stroke:#000;stroke-miterlimit:10"/><circle cx="150" cy="63.39" r="5" style="fill:none;stroke:#000;stroke-miterlimit:10"/><circle cx="165.5" cy="45.47" r="5" style="fill:none;stroke:#000;stroke-miterlimit:10"/><path d="M134.5,50.47a4.91,4.91,0,0,1-2.5-.7V74.62a2.5,2.5,0,0,0,5,0V49.77A4.91,4.91,0,0,1,134.5,50.47Z" style="fill:none;stroke:#000;stroke-miterlimit:10"/><path d="M134.5,40.47a5,5,0,0,1,2.5.65v-6.5a2.5,2.5,0,0,0-5,0v6.5A5,5,0,0,1,134.5,40.47Z" style="fill:none;stroke:#000;stroke-miterlimit:10"/><path d="M150,58.39a5,5,0,0,1,2.5.7V34.62a2.5,2.5,0,0,0-5,0v24.5A5,5,0,0,1,150,58.39Z" style="fill:none;stroke:#000;stroke-miterlimit:10"/><path d="M150,68.39a4.9,4.9,0,0,1-2.5-.69v6.92a2.5,2.5,0,0,0,5,0V67.7A4.9,4.9,0,0,1,150,68.39Z" style="fill:none;stroke:#000;stroke-miterlimit:10"/><path d="M165.5,40.47a5,5,0,0,1,2.5.65v-6.5a2.5,2.5,0,0,0-5,0v6.5A5,5,0,0,1,165.5,40.47Z" style="fill:none;stroke:#000;stroke-miterlimit:10"/><path d="M165.5,50.47a4.91,4.91,0,0,1-2.5-.7V74.62a2.5,2.5,0,0,0,5,0V49.77A4.91,4.91,0,0,1,165.5,50.47Z" style="fill:none;stroke:#000;stroke-miterlimit:10"/></g><path d="M88,115.31v18.2H85.4v-8H80.26v8H77.63v-18.2h2.63v7.75H85.4v-7.75Z"/><path d="M100.15,124.41v9.1H98.09l-.18-1.27a3.36,3.36,0,0,1-3,1.61,4,4,0,0,1-4.21-4.24c0-2.81,2-4.24,5-4.24h2v-1c0-1.61-.59-2.52-2-2.52a1.92,1.92,0,0,0-2.08,1.82H91.05c.13-2.63,1.89-4.24,4.65-4.24C98.64,119.47,100.15,121.26,100.15,124.41Zm-2.53,3.15h-2c-1.53,0-2.42.7-2.42,2.05a1.93,1.93,0,0,0,2.19,2,2.07,2.07,0,0,0,2.23-2.18Z"/><path d="M102.85,128.78v-4.32c0-3.17,1.77-5,4.63-5s4.65,1.82,4.76,5h-2.55c0-1.74-.81-2.57-2.19-2.57s-2.1.83-2.1,2.57v4.32c0,1.74.78,2.6,2.1,2.6s2.19-.86,2.27-2.6h2.52c-.08,3.2-1.9,5-4.81,5S102.85,132,102.85,128.78Z"/><path d="M122,122.17h-3.15v11.34H116.4V122.17h-3.12v-2.36H122Z"/><path d="M133.24,124.8v3.77c0,3.33-1.71,5.25-4.36,5.25a3.67,3.67,0,0,1-2.63-1.09v5.46h-2.47V119.78h1.82l.18,1.28a4,4,0,0,1,3.1-1.56C131.48,119.5,133.24,121.45,133.24,124.8Zm-2.57,0c0-2-.81-2.94-2.21-2.94s-2.21,1-2.21,2.91v3.8c0,1.79.83,2.89,2.21,2.89s2.21-.89,2.21-2.89Z"/><path d="M135.61,128.62v-4c0-3.35,1.85-5.2,4.81-5.2s4.84,1.85,4.84,5.2v4c0,3.36-1.85,5.2-4.84,5.2S135.61,132,135.61,128.62Zm7.1,0v-4c0-1.92-.86-2.76-2.29-2.76s-2.26.84-2.26,2.76v4c0,1.93.86,2.76,2.26,2.76S142.71,130.55,142.71,128.62Z"/><path d="M148,119.81h2.44v5.77c0,1.09,0,2.31-.05,3.8l.08.05c.21-.7,1-2.76,1.43-3.88l2.65-5.74h2.58v13.7h-2.45v-5.25c0-1.33.05-3,.13-4.42l-.08,0a34.78,34.78,0,0,1-1.53,4.21l-2.63,5.49H148Zm1.46-5.25h1.79a1.26,1.26,0,0,0,1.33,1.37,1.27,1.27,0,0,0,1.35-1.37h1.79a3.13,3.13,0,0,1-6.26,0Z"/><path d="M163.51,127.63l-.91,1v4.89h-2.5v-13.7h2.5v5.82l1.61-2.52,2.26-3.3h3l-4.31,5.85,5,7.85h-2.88Z"/><path d="M179.89,124.41v9.1h-2.06l-.18-1.27a3.35,3.35,0,0,1-3,1.61,4,4,0,0,1-4.21-4.24c0-2.81,1.95-4.24,5-4.24h2v-1c0-1.61-.6-2.52-2-2.52a1.92,1.92,0,0,0-2.08,1.82h-2.52c.13-2.63,1.89-4.24,4.65-4.24C178.38,119.47,179.89,121.26,179.89,124.41Zm-2.52,3.15h-2c-1.53,0-2.41.7-2.41,2.05a1.92,1.92,0,0,0,2.18,2,2.07,2.07,0,0,0,2.24-2.18Z"/><path d="M201,131v5.51h-2.58v-3h-8.66v3h-2.57V131h1.07c1.32-1.35,1.95-4.08,2-6.94l.31-8.79h8.76V131Zm-4.22-13.26H193l-.26,7a14,14,0,0,1-1.43,6.21h5.38Z"/><path d="M212.7,115.31l-4.42,14.38c-.94,3-2.21,4.08-5,4.08h-.65V131.4h.73c1.4,0,2-.72,2.55-2.54l.21-.68-4.58-12.87h2.78l3,8.87,2.62-8.87Z"/><path d="M223.77,117.81H220v15.7H217.3v-15.7h-3.77v-2.5h10.24Z"/></svg>