<svg id="Слой_1" data-name="Слой 1" xmlns="http://www.w3.org/2000/svg" viewBox="0 0 300 165"><g id="главная_страница" data-name="главная страница"><circle cx="134.79" cy="45.47" r="5" style="fill:none;stroke:#000;stroke-miterlimit:10"/><circle cx="150.29" cy="63.39" r="5" style="fill:none;stroke:#000;stroke-miterlimit:10"/><circle cx="165.79" cy="45.47" r="5" style="fill:none;stroke:#000;stroke-miterlimit:10"/><path d="M134.79,50.47a4.88,4.88,0,0,1-2.5-.7V74.62a2.5,2.5,0,0,0,5,0V49.77A4.91,4.91,0,0,1,134.79,50.47Z" style="fill:none;stroke:#000;stroke-miterlimit:10"/><path d="M134.79,40.47a5,5,0,0,1,2.5.65v-6.5a2.5,2.5,0,0,0-5,0v6.5A5,5,0,0,1,134.79,40.47Z" style="fill:none;stroke:#000;stroke-miterlimit:10"/><path d="M150.29,58.39a5,5,0,0,1,2.5.7V34.62a2.5,2.5,0,0,0-5,0v24.5A5,5,0,0,1,150.29,58.39Z" style="fill:none;stroke:#000;stroke-miterlimit:10"/><path d="M150.29,68.39a4.87,4.87,0,0,1-2.5-.69v6.92a2.5,2.5,0,0,0,5,0V67.7A4.9,4.9,0,0,1,150.29,68.39Z" style="fill:none;stroke:#000;stroke-miterlimit:10"/><path d="M165.79,40.47a5,5,0,0,1,2.5.65v-6.5a2.5,2.5,0,0,0-5,0v6.5A5,5,0,0,1,165.79,40.47Z" style="fill:none;stroke:#000;stroke-miterlimit:10"/><path d="M165.79,50.47a4.88,4.88,0,0,1-2.5-.7V74.62a2.5,2.5,0,0,0,5,0V49.77A4.91,4.91,0,0,1,165.79,50.47Z" style="fill:none;stroke:#000;stroke-miterlimit:10"/></g><path d="M95.8,114.43v18.21H93.7v-8.35c0-2,.08-3.75.18-5.51l-.1,0c-.5,1.38-1.17,3.07-1.82,4.78l-1.9,4.92H88L86,123.53c-.63-1.71-1.33-3.4-1.8-4.78l-.12,0c.1,1.76.18,3.53.18,5.51v8.35H82.18V114.43h2.24l3.14,7.62c.44,1.1,1.1,2.89,1.38,3.83H89c.32-.94,1-2.73,1.41-3.83l3.15-7.62Z"/><path d="M108.62,123.35v9.29h-1.69l-.15-1.3a3.51,3.51,0,0,1-3.12,1.63,4,4,0,0,1-4.27-4.23c0-2.71,1.85-4.17,4.84-4.17h2.34v-1.19c0-1.8-.76-2.78-2.32-2.78a2.18,2.18,0,0,0-2.39,2.1h-2c.1-2.49,1.84-4.08,4.5-4.08S108.62,120.39,108.62,123.35Zm-2.05,3.05H104.2c-1.77,0-2.73.83-2.73,2.36s1,2.31,2.58,2.31a2.31,2.31,0,0,0,2.52-2.41Z"/><path d="M112.21,115.14a1.35,1.35,0,0,1,1.43-1.43,1.42,1.42,0,1,1,0,2.83A1.34,1.34,0,0,1,112.21,115.14Zm.42,3.82h2.05v13.68h-2.05Z"/><path d="M127.71,124v8.66h-2v-8.51c0-2.47-.68-3.56-2.24-3.56s-2.73,1.35-2.73,3.69v8.38h-2V119h1.54l.26,1.61a3.83,3.83,0,0,1,3.48-1.95C126.25,118.62,127.71,120.23,127.71,124Z"/><path d="M137.25,128.5h2A2.4,2.4,0,0,0,142,131c1.49,0,2.37-.75,2.37-2,0-3-6.89-2-6.89-6.63,0-2.29,1.69-3.77,4.29-3.77a4.09,4.09,0,0,1,4.39,4.29h-2a2.2,2.2,0,0,0-2.39-2.39c-1.4,0-2.24.73-2.24,1.9,0,2.88,6.89,1.77,6.89,6.63,0,2.34-1.71,3.92-4.39,3.92A4.37,4.37,0,0,1,137.25,128.5Z"/><path d="M158.65,128.4a4.46,4.46,0,0,1-4.87,4.52c-2.78,0-4.55-1.82-4.55-5v-4.29c0-3.17,1.8-5,4.58-5s4.65,1.82,4.65,5v3h-7.15v1.24c0,2.08.94,3,2.52,3,1.75,0,2.55-.78,2.79-2.52Zm-7.34-4.81V125h5.13v-1.38c0-2.06-1-3-2.61-3S151.31,121.53,151.31,123.59Z"/><path d="M167.88,130.87v1.92H167c-2.63,0-4.11-1.66-4.11-4.39v-7.57h-2V119h2v-3.2h2V119h2.65v1.87h-2.65v7.57c0,1.64.65,2.47,2.13,2.47Z"/><path d="M176.64,130.87v1.92h-.86c-2.63,0-4.11-1.66-4.11-4.39v-7.57h-2V119h2v-3.2h2V119h2.65v1.87H173.7v7.57c0,1.64.65,2.47,2.13,2.47Z"/><path d="M179.21,115.14a1.35,1.35,0,0,1,1.43-1.43,1.42,1.42,0,1,1,0,2.83A1.34,1.34,0,0,1,179.21,115.14Zm.42,3.82h2.05v13.68h-2.05Z"/><path d="M194.71,124v8.66h-2v-8.51c0-2.47-.68-3.56-2.24-3.56s-2.73,1.35-2.73,3.69v8.38h-2V119h1.54l.26,1.61a3.83,3.83,0,0,1,3.48-1.95C193.25,118.62,194.71,120.23,194.71,124Z"/><path d="M207.5,119v14.48c0,2.55-1.74,4.21-4.47,4.21a4.12,4.12,0,0,1-4.48-4.1h2a2.21,2.21,0,0,0,2.47,2.21,2.17,2.17,0,0,0,2.41-2.32v-2.37a3.78,3.78,0,0,1-2.78,1.07c-2.62,0-4.42-1.84-4.42-4.94v-3.38c0-3.33,1.8-5.2,4.37-5.2a3.68,3.68,0,0,1,3.1,1.56l.23-1.22Zm-2.06,8.24v-3.59c0-2-1.06-3-2.44-3-1.69,0-2.68,1-2.68,3.25v3.38c0,2,1,3,2.68,3C204.54,130.22,205.44,129.23,205.44,127.2Z"/><path d="M210.54,128.5h2a2.4,2.4,0,0,0,2.68,2.52c1.48,0,2.36-.75,2.36-2,0-3-6.89-2-6.89-6.63,0-2.29,1.69-3.77,4.29-3.77a4.1,4.1,0,0,1,4.4,4.29h-2a2.19,2.19,0,0,0-2.39-2.39c-1.4,0-2.23.73-2.23,1.9,0,2.88,6.89,1.77,6.89,6.63,0,2.34-1.72,3.92-4.4,3.92A4.37,4.37,0,0,1,210.54,128.5Z"/></svg>