<svg id="Слой_1" data-name="Слой 1" xmlns="http://www.w3.org/2000/svg" viewBox="0 0 300 165"><g id="главная_страница" data-name="главная страница"><circle cx="134.41" cy="45.47" r="5" style="fill:none;stroke:#fff;stroke-miterlimit:10"/><circle cx="149.91" cy="63.39" r="5" style="fill:none;stroke:#fff;stroke-miterlimit:10"/><circle cx="165.41" cy="45.47" r="5" style="fill:none;stroke:#fff;stroke-miterlimit:10"/><path d="M134.41,50.47a4.91,4.91,0,0,1-2.5-.7V74.62a2.5,2.5,0,0,0,5,0V49.77A4.91,4.91,0,0,1,134.41,50.47Z" style="fill:none;stroke:#fff;stroke-miterlimit:10"/><path d="M134.41,40.47a5,5,0,0,1,2.5.65v-6.5a2.5,2.5,0,0,0-5,0v6.5A5,5,0,0,1,134.41,40.47Z" style="fill:none;stroke:#fff;stroke-miterlimit:10"/><path d="M149.91,58.39a5,5,0,0,1,2.5.7V34.62a2.5,2.5,0,0,0-5,0v24.5A5,5,0,0,1,149.91,58.39Z" style="fill:none;stroke:#fff;stroke-miterlimit:10"/><path d="M149.91,68.39a4.9,4.9,0,0,1-2.5-.69v6.92a2.5,2.5,0,0,0,5,0V67.7A4.9,4.9,0,0,1,149.91,68.39Z" style="fill:none;stroke:#fff;stroke-miterlimit:10"/><path d="M165.41,40.47a5,5,0,0,1,2.5.65v-6.5a2.5,2.5,0,0,0-5,0v6.5A5,5,0,0,1,165.41,40.47Z" style="fill:none;stroke:#fff;stroke-miterlimit:10"/><path d="M165.41,50.47a4.91,4.91,0,0,1-2.5-.7V74.62a2.5,2.5,0,0,0,5,0V49.77A4.91,4.91,0,0,1,165.41,50.47Z" style="fill:none;stroke:#fff;stroke-miterlimit:10"/></g><path d="M90.44,105.79V124H87.81v-8H82.67v8H80v-18.2h2.63v7.75h5.14v-7.75Z" style="fill:#fff"/><path d="M102.56,114.89V124H100.5l-.18-1.27a3.36,3.36,0,0,1-3,1.61,4,4,0,0,1-4.21-4.24c0-2.8,2-4.23,5-4.23h2v-1c0-1.61-.59-2.52-2-2.52A1.92,1.92,0,0,0,96,114.19H93.46c.13-2.62,1.89-4.24,4.65-4.24C101.05,110,102.56,111.75,102.56,114.89ZM100,118H98c-1.53,0-2.42.7-2.42,2a1.93,1.93,0,0,0,2.19,2,2.07,2.07,0,0,0,2.23-2.19Z" style="fill:#fff"/><path d="M105.26,119.26V115c0-3.18,1.77-5,4.63-5s4.65,1.82,4.76,5H112.1c0-1.75-.81-2.58-2.19-2.58s-2.1.83-2.1,2.58v4.31c0,1.74.78,2.6,2.1,2.6s2.19-.86,2.27-2.6h2.52c-.08,3.2-1.9,5-4.81,5S105.26,122.46,105.26,119.26Z" style="fill:#fff"/><path d="M124.45,112.66H121.3V124h-2.49V112.66h-3.12v-2.37h8.76Z" style="fill:#fff"/><path d="M135.65,115.28v3.77c0,3.33-1.71,5.26-4.36,5.26a3.64,3.64,0,0,1-2.63-1.1v5.46h-2.47v-18.4H128l.18,1.27a4.08,4.08,0,0,1,3.1-1.56C133.89,110,135.65,111.93,135.65,115.28Zm-2.57,0c0-2-.81-2.93-2.21-2.93s-2.21,1-2.21,2.91v3.79c0,1.8.83,2.89,2.21,2.89s2.21-.88,2.21-2.89Z" style="fill:#fff"/><path d="M138,119.11v-4c0-3.35,1.85-5.2,4.81-5.2s4.84,1.85,4.84,5.2v4c0,3.35-1.85,5.2-4.84,5.2S138,122.46,138,119.11Zm7.1,0v-4c0-1.92-.86-2.75-2.29-2.75s-2.26.83-2.26,2.75v4c0,1.92.86,2.75,2.26,2.75S145.12,121,145.12,119.11Z" style="fill:#fff"/><path d="M150.37,110.29h2.44v5.77c0,1.1,0,2.32-.05,3.8l.08,0c.21-.7,1-2.75,1.43-3.87l2.65-5.75h2.58V124h-2.45v-5.25c0-1.32,0-3,.13-4.42l-.08,0a34.78,34.78,0,0,1-1.53,4.21L152.94,124h-2.57Zm1.46-5.25h1.79a1.34,1.34,0,1,0,2.68,0h1.79a3.13,3.13,0,0,1-6.26,0Z" style="fill:#fff"/><path d="M165.92,118.12l-.91,1V124h-2.5v-13.7H165v5.83l1.61-2.53,2.26-3.3h3l-4.31,5.85,5,7.85h-2.88Z" style="fill:#fff"/><path d="M182.3,114.89V124h-2.06l-.18-1.27a3.35,3.35,0,0,1-3,1.61,4,4,0,0,1-4.21-4.24c0-2.8,1.95-4.23,5-4.23h2v-1c0-1.61-.6-2.52-2-2.52a1.92,1.92,0,0,0-2.08,1.82H173.2c.13-2.62,1.89-4.24,4.65-4.24C180.79,110,182.3,111.75,182.3,114.89ZM179.78,118h-2c-1.53,0-2.41.7-2.41,2a1.93,1.93,0,0,0,2.18,2,2.08,2.08,0,0,0,2.24-2.19Z" style="fill:#fff"/><path d="M203.36,121.52V127h-2.58V124h-8.66V127h-2.57v-5.52h1.07c1.32-1.35,1.95-4.08,2-6.94l.31-8.79h8.77v15.73Zm-4.22-13.26h-3.69l-.26,7a14,14,0,0,1-1.43,6.21h5.38Z" style="fill:#fff"/><path d="M215.11,105.79l-4.42,14.38c-.94,3-2.21,4.08-5,4.08h-.65v-2.36h.73c1.41,0,2-.73,2.55-2.55l.21-.68L204,105.79h2.78l3,8.87,2.62-8.87Z" style="fill:#fff"/><path d="M226.18,108.29h-3.79V124h-2.68v-15.7h-3.77v-2.5h10.24Z" style="fill:#fff"/></svg>