<svg id="Слой_1" data-name="Слой 1" xmlns="http://www.w3.org/2000/svg" viewBox="0 0 300 165"><g id="главная_страница" data-name="главная страница"><circle cx="134.41" cy="45.47" r="5" style="fill:none;stroke:#fff;stroke-miterlimit:10"/><circle cx="149.91" cy="63.39" r="5" style="fill:none;stroke:#fff;stroke-miterlimit:10"/><circle cx="165.41" cy="45.47" r="5" style="fill:none;stroke:#fff;stroke-miterlimit:10"/><path d="M134.41,50.47a4.91,4.91,0,0,1-2.5-.7V74.62a2.5,2.5,0,0,0,5,0V49.77A4.91,4.91,0,0,1,134.41,50.47Z" style="fill:none;stroke:#fff;stroke-miterlimit:10"/><path d="M134.41,40.47a5,5,0,0,1,2.5.65v-6.5a2.5,2.5,0,0,0-5,0v6.5A5,5,0,0,1,134.41,40.47Z" style="fill:none;stroke:#fff;stroke-miterlimit:10"/><path d="M149.91,58.39a5,5,0,0,1,2.5.7V34.62a2.5,2.5,0,0,0-5,0v24.5A5,5,0,0,1,149.91,58.39Z" style="fill:none;stroke:#fff;stroke-miterlimit:10"/><path d="M149.91,68.39a4.9,4.9,0,0,1-2.5-.69v6.92a2.5,2.5,0,0,0,5,0V67.7A4.9,4.9,0,0,1,149.91,68.39Z" style="fill:none;stroke:#fff;stroke-miterlimit:10"/><path d="M165.41,40.47a5,5,0,0,1,2.5.65v-6.5a2.5,2.5,0,0,0-5,0v6.5A5,5,0,0,1,165.41,40.47Z" style="fill:none;stroke:#fff;stroke-miterlimit:10"/><path d="M165.41,50.47a4.91,4.91,0,0,1-2.5-.7V74.62a2.5,2.5,0,0,0,5,0V49.77A4.91,4.91,0,0,1,165.41,50.47Z" style="fill:none;stroke:#fff;stroke-miterlimit:10"/></g><path d="M54.53,114.43h2.1v9.7c0,1.1-.05,3.12-.15,4.37l.08.05c.28-.75.78-2,1.27-3.09l4.84-11H65v18.21H62.85v-9.91c0-1.09,0-3.09.1-4.21l-.05-.06c-.26.68-.78,2-1.14,2.86l-5,11.32H54.53Z" style="fill:#fff"/><path d="M77.7,119v13.68H75.64v-6.09h-4.5v6.09h-2V119h2v5.67h4.5V119Z" style="fill:#fff"/><path d="M89.89,126.45l-.86,1v5.15h-2v-5.18l-.86-1-3.82,6.19H80L85,124.89,80.5,119H83l2.26,3.22c.62.89,1.25,1.82,1.87,2.76v-6h2v6c.63-.94,1.25-1.87,1.87-2.76L93.19,119h2.44l-4.47,5.9,4.92,7.78H93.71Z" style="fill:#fff"/><path d="M106.92,128.4a4.46,4.46,0,0,1-4.86,4.52c-2.79,0-4.55-1.82-4.55-5v-4.29c0-3.17,1.79-5,4.57-5s4.66,1.82,4.66,5v3H99.59v1.24c0,2.08.93,3,2.52,3s2.55-.78,2.78-2.52Zm-7.33-4.81V125h5.12v-1.38c0-2.06-1-3-2.6-3S99.59,121.53,99.59,123.59Z" style="fill:#fff"/><path d="M119,119v13.68H116.9v-6.09h-4.49v6.09h-2V119h2v5.67h4.49V119Z" style="fill:#fff"/><path d="M132,128.4a4.47,4.47,0,0,1-4.87,4.52c-2.78,0-4.55-1.82-4.55-5v-4.29c0-3.17,1.8-5,4.58-5s4.65,1.82,4.65,5v3H124.7v1.24c0,2.08.94,3,2.52,3,1.75,0,2.55-.78,2.79-2.52Zm-7.34-4.81V125h5.12v-1.38c0-2.06-1-3-2.6-3S124.7,121.53,124.7,123.59Z" style="fill:#fff"/><path d="M144.7,123.93v3.82c0,3.35-1.67,5.2-4.32,5.2a3.83,3.83,0,0,1-2.88-1.3v5.67h-2V118.93H137l.2,1.28a4,4,0,0,1,3.15-1.56C142.93,118.65,144.7,120.52,144.7,123.93Zm-2.08,0c0-2.37-1-3.39-2.6-3.39-1.43,0-2.52,1.1-2.52,3.33v3.88c0,2,1,3.27,2.52,3.27s2.6-1,2.6-3.27Z" style="fill:#fff"/><path d="M156.84,119v13.68h-2.05v-6.09h-4.5v6.09h-2V119h2v5.67h4.5V119Z" style="fill:#fff"/><path d="M160.5,127.88v-4.19c0-3.28,1.85-5.07,4.71-5.07s4.68,1.79,4.68,5.07v4.19c0,3.27-1.82,5.07-4.68,5.07S160.5,131.15,160.5,127.88Zm7.34,0v-4.19c0-2.13-1-3.07-2.63-3.07s-2.63.94-2.63,3.07v4.19c0,2.13,1,3.09,2.63,3.09S167.84,130,167.84,127.88Z" style="fill:#fff"/><path d="M182.66,128.4a4.46,4.46,0,0,1-4.87,4.52c-2.78,0-4.55-1.82-4.55-5v-4.29c0-3.17,1.8-5,4.58-5s4.65,1.82,4.65,5v3h-7.15v1.24c0,2.08.94,3,2.53,3,1.74,0,2.54-.78,2.78-2.52Zm-7.34-4.81V125h5.13v-1.38c0-2.06-1-3-2.6-3S175.32,121.53,175.32,123.59Z" style="fill:#fff"/><path d="M203.66,119v13.68h-1.92v-6.45c0-1.38.1-2.58.16-3.7l-.11,0c-.39,1.15-.75,2.29-1.17,3.3l-1.48,3.41h-1.95l-1.48-3.41c-.39-1-.78-2.15-1.15-3.3l-.1,0c0,1.12.13,2.32.13,3.7v6.45h-1.92V119h2.08l2.41,5.56c.34.84.68,1.64,1,2.5h.07c.29-.86.63-1.66,1-2.5l2.44-5.56Z" style="fill:#fff"/><path d="M216.74,128.4a4.46,4.46,0,0,1-4.86,4.52c-2.78,0-4.55-1.82-4.55-5v-4.29c0-3.17,1.79-5,4.58-5s4.65,1.82,4.65,5v3h-7.15v1.24c0,2.08.94,3,2.52,3,1.74,0,2.55-.78,2.78-2.52Zm-7.33-4.81V125h5.12v-1.38c0-2.06-1-3-2.6-3S209.41,121.53,209.41,123.59Z" style="fill:#fff"/><path d="M228.78,119v13.68h-2.05v-6.09h-4.5v6.09h-2V119h2v5.67h4.5V119Z" style="fill:#fff"/><path d="M246.1,123.69v4.16c0,3.25-1.77,5.07-4.55,5.07S237,131.1,237,127.85V126.6h-2.23v6h-2V119h2v5.72H237v-1c0-3.28,1.77-5.07,4.53-5.07S246.1,120.41,246.1,123.69Zm-2.06,0c0-2.13-.93-3.07-2.49-3.07s-2.5.94-2.5,3.07v4.16c0,2.11.94,3.07,2.5,3.07s2.49-1,2.49-3.07Z" style="fill:#fff"/></svg>