<svg id="Слой_1" data-name="Слой 1" xmlns="http://www.w3.org/2000/svg" viewBox="0 0 300 165"><g id="главная_страница" data-name="главная страница"><circle cx="134.5" cy="45.47" r="5" style="fill:none;stroke:#000;stroke-miterlimit:10"/><circle cx="150" cy="63.39" r="5" style="fill:none;stroke:#000;stroke-miterlimit:10"/><circle cx="165.5" cy="45.47" r="5" style="fill:none;stroke:#000;stroke-miterlimit:10"/><path d="M134.5,50.47a4.91,4.91,0,0,1-2.5-.7V74.62a2.5,2.5,0,0,0,5,0V49.77A4.91,4.91,0,0,1,134.5,50.47Z" style="fill:none;stroke:#000;stroke-miterlimit:10"/><path d="M134.5,40.47a5,5,0,0,1,2.5.65v-6.5a2.5,2.5,0,0,0-5,0v6.5A5,5,0,0,1,134.5,40.47Z" style="fill:none;stroke:#000;stroke-miterlimit:10"/><path d="M150,58.39a5,5,0,0,1,2.5.7V34.62a2.5,2.5,0,0,0-5,0v24.5A5,5,0,0,1,150,58.39Z" style="fill:none;stroke:#000;stroke-miterlimit:10"/><path d="M150,68.39a4.9,4.9,0,0,1-2.5-.69v6.92a2.5,2.5,0,0,0,5,0V67.7A4.9,4.9,0,0,1,150,68.39Z" style="fill:none;stroke:#000;stroke-miterlimit:10"/><path d="M165.5,40.47a5,5,0,0,1,2.5.65v-6.5a2.5,2.5,0,0,0-5,0v6.5A5,5,0,0,1,165.5,40.47Z" style="fill:none;stroke:#000;stroke-miterlimit:10"/><path d="M165.5,50.47a4.91,4.91,0,0,1-2.5-.7V74.62a2.5,2.5,0,0,0,5,0V49.77A4.91,4.91,0,0,1,165.5,50.47Z" style="fill:none;stroke:#000;stroke-miterlimit:10"/></g><path d="M54.62,114.43h2.11v9.7c0,1.1-.06,3.12-.16,4.37l.08.05c.28-.75.78-2,1.27-3.09l4.84-11h2.29v18.21H62.94v-9.91c0-1.09.05-3.09.1-4.21l0-.06c-.26.68-.78,2-1.14,2.86l-5,11.32H54.62Z"/><path d="M77.79,119v13.68H75.73v-6.09h-4.5v6.09h-2V119h2v5.67h4.5V119Z"/><path d="M90,126.45l-.86,1v5.15h-2v-5.18l-.86-1-3.82,6.19H80.12l4.95-7.75L80.59,119H83l2.26,3.22c.62.89,1.25,1.82,1.87,2.76v-6h2v6c.63-.94,1.25-1.87,1.87-2.76L93.28,119h2.45l-4.48,5.9,4.92,7.78H93.8Z"/><path d="M107,128.4a4.46,4.46,0,0,1-4.86,4.52c-2.78,0-4.55-1.82-4.55-5v-4.29c0-3.17,1.79-5,4.57-5s4.66,1.82,4.66,5v3H99.68v1.24c0,2.08.93,3,2.52,3s2.55-.78,2.78-2.52Zm-7.33-4.81V125h5.12v-1.38c0-2.06-1-3-2.6-3S99.68,121.53,99.68,123.59Z"/><path d="M119.05,119v13.68H117v-6.09H112.5v6.09h-2V119h2v5.67H117V119Z"/><path d="M132.13,128.4a4.46,4.46,0,0,1-4.87,4.52c-2.78,0-4.55-1.82-4.55-5v-4.29c0-3.17,1.8-5,4.58-5s4.65,1.82,4.65,5v3h-7.15v1.24c0,2.08.94,3,2.53,3,1.74,0,2.54-.78,2.78-2.52Zm-7.34-4.81V125h5.13v-1.38c0-2.06-1-3-2.6-3S124.79,121.53,124.79,123.59Z"/><path d="M144.79,123.93v3.82c0,3.35-1.67,5.2-4.32,5.2a3.83,3.83,0,0,1-2.88-1.3v5.67h-2V118.93h1.54l.21,1.28a4,4,0,0,1,3.14-1.56C143,118.65,144.79,120.52,144.79,123.93Zm-2.08,0c0-2.37-1-3.39-2.6-3.39-1.43,0-2.52,1.1-2.52,3.33v3.88c0,2,1,3.27,2.52,3.27s2.6-1,2.6-3.27Z"/><path d="M156.93,119v13.68h-2.05v-6.09h-4.5v6.09h-2V119h2v5.67h4.5V119Z"/><path d="M160.6,127.88v-4.19c0-3.28,1.84-5.07,4.7-5.07s4.68,1.79,4.68,5.07v4.19c0,3.27-1.82,5.07-4.68,5.07S160.6,131.15,160.6,127.88Zm7.33,0v-4.19c0-2.13-1-3.07-2.63-3.07s-2.62.94-2.62,3.07v4.19c0,2.13,1,3.09,2.62,3.09S167.93,130,167.93,127.88Z"/><path d="M182.75,128.4a4.46,4.46,0,0,1-4.87,4.52c-2.78,0-4.55-1.82-4.55-5v-4.29c0-3.17,1.8-5,4.58-5s4.66,1.82,4.66,5v3h-7.15v1.24c0,2.08.93,3,2.52,3,1.74,0,2.55-.78,2.78-2.52Zm-7.33-4.81V125h5.12v-1.38c0-2.06-1-3-2.6-3S175.42,121.53,175.42,123.59Z"/><path d="M203.75,119v13.68h-1.92v-6.45c0-1.38.11-2.58.16-3.7l-.11,0c-.39,1.15-.75,2.29-1.17,3.3l-1.48,3.41h-1.95l-1.48-3.41c-.39-1-.78-2.15-1.15-3.3l-.1,0c0,1.12.13,2.32.13,3.7v6.45h-1.92V119h2.08l2.41,5.56c.34.84.68,1.64,1,2.5h.07c.29-.86.63-1.66,1-2.5L201.7,119Z"/><path d="M216.83,128.4a4.46,4.46,0,0,1-4.86,4.52c-2.78,0-4.55-1.82-4.55-5v-4.29c0-3.17,1.79-5,4.58-5s4.65,1.82,4.65,5v3H209.5v1.24c0,2.08.94,3,2.52,3,1.74,0,2.55-.78,2.78-2.52Zm-7.33-4.81V125h5.12v-1.38c0-2.06-1-3-2.6-3S209.5,121.53,209.5,123.59Z"/><path d="M228.87,119v13.68h-2.05v-6.09h-4.5v6.09h-2V119h2v5.67h4.5V119Z"/><path d="M246.19,123.69v4.16c0,3.25-1.77,5.07-4.55,5.07s-4.53-1.82-4.53-5.07V126.6h-2.23v6h-2V119h2v5.72h2.23v-1c0-3.28,1.77-5.07,4.53-5.07S246.19,120.41,246.19,123.69Zm-2.06,0c0-2.13-.93-3.07-2.49-3.07s-2.5.94-2.5,3.07v4.16c0,2.11.94,3.07,2.5,3.07s2.49-1,2.49-3.07Z"/></svg>