<svg id="Слой_1" data-name="Слой 1" xmlns="http://www.w3.org/2000/svg" viewBox="0 0 300 165"><g id="главная_страница" data-name="главная страница"><path d="M163.41,75.69l-14.3-14.31A6.77,6.77,0,0,0,142.89,52a6.63,6.63,0,0,0-3.11.77l3.72,3.72a2,2,0,0,1-2.83,2.83l-3.74-3.74a6.75,6.75,0,0,0,8.66,9.36l14.29,14.29a2.5,2.5,0,0,0,3.53-3.53Z" style="fill:none;stroke:#000;stroke-linecap:round;stroke-linejoin:round"/><circle cx="165.07" cy="45.69" r="1.25"/><line x1="165.07" y1="45.69" x2="168.86" y2="52.25" style="fill:none;stroke:#000;stroke-linecap:round;stroke-miterlimit:10"/><line x1="165.07" y1="35.2" x2="165.07" y2="45.69" style="fill:none;stroke:#000;stroke-linecap:round;stroke-miterlimit:10"/><path d="M165.7,57.22a1.73,1.73,0,0,0-1.6-1.85h0c-1.08-.22-2.18-.34-3.25-.61A1.49,1.49,0,0,1,160,54a34.75,34.75,0,0,1-1.3-3.24,1.44,1.44,0,0,1,.08-1.13c.57-.94,1.27-1.8,1.89-2.72a1.63,1.63,0,0,0,0-2.3l-.14-.12c-.83-.88-1.68-1.74-2.54-2.58a1.73,1.73,0,0,0-2.41-.36l-.17.15c-.89.61-1.74,1.27-2.64,1.84a1.39,1.39,0,0,1-1,.11,35,35,0,0,1-3.41-1.42,1.65,1.65,0,0,1-.75-1c-.25-1-.35-2-.55-3.06s-.73-1.63-1.9-1.67-2.48,0-3.71,0-1.66.52-1.89,1.68-.44,2.1-.56,3.16a1,1,0,0,1-.83,1A31.8,31.8,0,0,0,135,43.65a1,1,0,0,1-1.25-.13c-.81-.65-1.66-1.25-2.51-1.84a1.69,1.69,0,0,0-2.39,0l-.12.13c-.91.85-1.79,1.73-2.64,2.62a1.63,1.63,0,0,0-.32,2.28l.13.15c.62.91,1.31,1.78,1.89,2.72a1.51,1.51,0,0,1,.08,1.16c-.35,1-.87,2-1.2,3.07a1.27,1.27,0,0,1-1.2,1c-1,.14-1.92.28-2.87.44a1.81,1.81,0,0,0-1.75,1.87s0,.09,0,.13v3.52a1.84,1.84,0,0,0,1.58,2.08l.23,0c1,.19,2.12.34,3.15.59a1.32,1.32,0,0,1,.79.69,35,35,0,0,1,1.33,3.24,1.5,1.5,0,0,1-.08,1.12c-.56.91-1.24,1.75-1.85,2.63a1.69,1.69,0,0,0,0,2.38l.15.13c.83.88,1.68,1.74,2.54,2.58a1.68,1.68,0,0,0,2.36.38l.22-.19a10.15,10.15,0,0,0,1.47-1.06c1.1-1.06,2-.93,3.5-.33a15.35,15.35,0,0,1,1.94.77,1.59,1.59,0,0,1,.71.9c.24,1,.36,2.1.56,3.15.25,1.21.71,1.64,1.89,1.69s2.48,0,3.71,0,1.66-.52,1.89-1.68a9.92,9.92,0,0,0,.34-1.87c0-1.53.74-2.11,2.19-2.63.55-.2,1.06-.46,1.56-.66l-5.25-5.24a10.07,10.07,0,0,1-2.51.28A10.69,10.69,0,1,1,153.91,59h0a10.67,10.67,0,0,1-.4,2.69l5.21,5.21c.43-.94.79-1.92,1.23-2.85a1.36,1.36,0,0,1,.79-.68c1.07-.25,2.17-.39,3.26-.58A1.75,1.75,0,0,0,165.7,61v-.07Q165.76,59.08,165.7,57.22Z" style="fill:none;stroke:#000;stroke-miterlimit:10"/><path d="M165.07,31.5a14.17,14.17,0,0,0-14,12l.55.22a1.39,1.39,0,0,0,1-.11c.9-.57,1.75-1.23,2.64-1.84a1.71,1.71,0,0,1,2.43,0,1.22,1.22,0,0,1,.15.17c.86.84,1.71,1.7,2.54,2.58a1.63,1.63,0,0,1,.31,2.28l-.12.14c-.62.92-1.32,1.78-1.89,2.72a1.44,1.44,0,0,0-.08,1.13A33.15,33.15,0,0,0,160,54a1.52,1.52,0,0,0,.89.74c1.07.27,2.17.39,3.25.61a1.73,1.73,0,0,1,1.61,1.84h0v2.64a14.19,14.19,0,0,0-.65-28.36Z" style="fill:none;stroke:#000;stroke-miterlimit:10"/></g><path d="M68.74,114.43v18.21H66.63v-8.35c0-2,.08-3.75.18-5.51l-.1,0c-.49,1.38-1.17,3.07-1.82,4.79L63,128.45h-2.1L59,123.54c-.62-1.72-1.32-3.41-1.79-4.79l-.13,0c.1,1.76.18,3.53.18,5.51v8.35H55.11V114.43h2.24l3.15,7.62c.44,1.1,1.09,2.89,1.37,3.83H62c.31-.94,1-2.73,1.4-3.83l3.15-7.62Z"/><path d="M81.56,123.35v9.29H79.87l-.16-1.3A3.51,3.51,0,0,1,76.59,133a4,4,0,0,1-4.26-4.23c0-2.71,1.84-4.16,4.83-4.16H79.5v-1.2c0-1.8-.75-2.78-2.31-2.78a2.18,2.18,0,0,0-2.39,2.1H72.74c.11-2.49,1.85-4.08,4.5-4.08S81.56,120.39,81.56,123.35ZM79.5,126.4H77.14c-1.77,0-2.73.83-2.73,2.36s1,2.32,2.57,2.32a2.32,2.32,0,0,0,2.52-2.42Z"/><path d="M85.22,128v-4.4c0-3.14,1.77-4.94,4.53-4.94s4.52,1.8,4.62,4.94H92.29c-.05-2-1-3-2.54-3s-2.45,1-2.45,3V128c0,2,.91,3,2.45,3s2.52-.94,2.6-3H94.4c-.08,3.17-1.85,5-4.65,5S85.22,131.13,85.22,128Z"/><path d="M104.85,120.86H101.6v11.78h-2V120.86H96.32V119h8.53Z"/><path d="M116.08,128.4a4.45,4.45,0,0,1-4.86,4.52c-2.78,0-4.55-1.82-4.55-5v-4.29c0-3.17,1.8-5,4.58-5s4.65,1.82,4.65,5v3h-7.15v1.24c0,2.08.94,3,2.52,3,1.75,0,2.55-.78,2.79-2.52Zm-7.33-4.81V125h5.12v-1.38c0-2.06-1-3-2.6-3S108.75,121.53,108.75,123.59Z"/><path d="M128.75,123.93v3.82c0,3.35-1.67,5.2-4.32,5.2a3.87,3.87,0,0,1-2.89-1.3v5.67h-2V118.93h1.54l.2,1.28a4,4,0,0,1,3.15-1.56C127,118.65,128.75,120.52,128.75,123.93Zm-2.08,0c0-2.37-1-3.39-2.6-3.39-1.43,0-2.53,1.1-2.53,3.33v3.88c0,2,1,3.27,2.53,3.27,1.71,0,2.6-1,2.6-3.27Z"/><path d="M147.54,119v13.68h-2v-6.09H141v6.09h-2V119h2v5.67h4.5V119Z"/><path d="M160.05,123.35v9.29h-1.69l-.16-1.3a3.48,3.48,0,0,1-3.12,1.63,4,4,0,0,1-4.26-4.23c0-2.71,1.85-4.16,4.84-4.16H158v-1.2c0-1.8-.76-2.78-2.32-2.78a2.18,2.18,0,0,0-2.39,2.1h-2c.1-2.49,1.84-4.08,4.49-4.08S160.05,120.39,160.05,123.35ZM158,126.4h-2.37c-1.77,0-2.73.83-2.73,2.36s1,2.32,2.57,2.32a2.33,2.33,0,0,0,2.53-2.42Z"/><path d="M163.71,128v-4.4c0-3.14,1.77-4.94,4.53-4.94s4.52,1.8,4.63,4.94h-2.08c0-2-1-3-2.55-3s-2.45,1-2.45,3V128c0,2,.92,3,2.45,3s2.52-.94,2.6-3h2c-.07,3.17-1.84,5-4.65,5S163.71,131.13,163.71,128Z"/><path d="M183.34,120.86h-3.25v11.78h-2V120.86h-3.25V119h8.52Z"/><path d="M195.23,123.93v3.82c0,3.35-1.67,5.2-4.32,5.2a3.87,3.87,0,0,1-2.89-1.3v5.67h-2V118.93h1.54l.2,1.28a4,4,0,0,1,3.15-1.56C193.46,118.65,195.23,120.52,195.23,123.93Zm-2.08,0c0-2.37-1-3.39-2.6-3.39-1.43,0-2.53,1.1-2.53,3.33v3.88c0,2,1,3.27,2.53,3.27s2.6-1,2.6-3.27Z"/><path d="M198.55,127.88v-4.19c0-3.27,1.85-5.07,4.71-5.07s4.68,1.8,4.68,5.07v4.19c0,3.27-1.82,5.07-4.68,5.07S198.55,131.15,198.55,127.88Zm7.34,0v-4.19c0-2.13-1-3.07-2.63-3.07s-2.63.94-2.63,3.07v4.19c0,2.13,1,3.09,2.63,3.09S205.89,130,205.89,127.88Z"/><path d="M211.63,119h2v6.76c0,1,0,2.18,0,3.43l0,0c.24-.62.84-2.13,1.2-3l3.48-7.28h2.08v13.68h-2v-6.3c0-1.35,0-2.78.1-4l-.05,0a31.7,31.7,0,0,1-1.33,3.35l-3.43,7h-2.08Zm1.38-5.2h1.56c.08,1,.55,1.53,1.46,1.53s1.4-.52,1.45-1.53h1.59a3,3,0,1,1-6.06,0Z"/><path d="M227.41,126.45l-1,1.12v5.07h-2V119h2v6c.62-.86,1.22-1.71,1.82-2.52l2.62-3.51h2.52l-4.65,5.87,5.3,7.81h-2.41Z"/><path d="M236.41,119h2v6.76c0,1,0,2.18,0,3.43l0,0c.24-.62.83-2.13,1.2-3l3.48-7.28h2.08v13.68h-2v-6.3c0-1.35,0-2.78.1-4l-.05,0a31.7,31.7,0,0,1-1.33,3.35l-3.43,7h-2.08Z"/></svg>