<svg id="Слой_1" data-name="Слой 1" xmlns="http://www.w3.org/2000/svg" viewBox="0 0 300 165"><g id="главная_страница" data-name="главная страница"><path d="M163.31,72.85c-.54-.3-1-.52-1.46-.82-.88-.6-1.68-1.6-2.63-1.76s-1.9.69-2.9.89a2.34,2.34,0,0,0-2.15,2.53.28.28,0,0,0,0,.09,11.08,11.08,0,0,1-.34,1.88,1.75,1.75,0,0,1-1.76,1.72H148.2c-1.23,0-1.65-.48-1.89-1.68-.21-1-.32-2.12-.57-3.16a1.49,1.49,0,0,0-.7-.89,16.55,16.55,0,0,1-2-.77,2.39,2.39,0,0,0-3.38.19.76.76,0,0,0-.11.14,12.27,12.27,0,0,1-1.47,1,1.69,1.69,0,0,1-2.39,0,1.24,1.24,0,0,1-.19-.21c-.87-.84-1.71-1.7-2.54-2.58a1.68,1.68,0,0,1-.3-2.36.67.67,0,0,1,.14-.15c.61-.88,1.29-1.72,1.85-2.63a1.63,1.63,0,0,0,.08-1.13c-.39-1.1-.84-2.18-1.33-3.24a1.41,1.41,0,0,0-.79-.69c-1-.25-2.1-.39-3.15-.58a1.87,1.87,0,0,1-1.83-1.9,1.49,1.49,0,0,1,0-.21V53a1.81,1.81,0,0,1,1.6-2h.14c1-.16,1.91-.31,2.87-.44a1.27,1.27,0,0,0,1.2-1c.32-1,.85-2,1.2-3.07a1.53,1.53,0,0,0-.09-1.15c-.57-.94-1.26-1.81-1.88-2.73a1.63,1.63,0,0,1,0-2.31l.14-.11c.86-.9,1.74-1.77,2.65-2.62a1.68,1.68,0,0,1,2.37-.26.75.75,0,0,1,.14.12c.85.6,1.7,1.2,2.51,1.84a1,1,0,0,0,1.25.14,33.34,33.34,0,0,1,3.13-1.32,1,1,0,0,0,.83-.95c.12-1.06.36-2.11.56-3.16a1.73,1.73,0,0,1,1.8-1.66l.14,0H152c1.24,0,1.65.48,1.9,1.68.2,1,.3,2.06.55,3.06a1.58,1.58,0,0,0,.75,1,33.06,33.06,0,0,0,3.41,1.42,1.42,1.42,0,0,0,1.05-.11c.9-.56,1.75-1.23,2.63-1.83a1.74,1.74,0,0,1,2.46,0s.09.1.13.16c.86.85,1.71,1.71,2.54,2.58a1.64,1.64,0,0,1,.3,2.29l-.11.14c-.62.92-1.32,1.78-1.9,2.72a1.47,1.47,0,0,0-.07,1.13,30,30,0,0,0,1.3,3.24,1.59,1.59,0,0,0,.89.74c1.07.26,2.17.39,3.25.61a1.73,1.73,0,0,1,1.61,1.84h0q.06,1.86,0,3.72A1.77,1.77,0,0,1,171,58.68h0c-1.09.18-2.19.33-3.26.58a1.32,1.32,0,0,0-.79.67c-.5,1.06-.87,2.17-1.39,3.22a1.06,1.06,0,0,0,.13,1.26c.64.86,1.24,1.74,1.83,2.64a1.64,1.64,0,0,1-.08,2.3l-.14.12c-.86.89-1.73,1.77-2.64,2.61A8,8,0,0,1,163.31,72.85Zm-13.13-7.31A10.69,10.69,0,1,0,139.54,54.8v0A10.79,10.79,0,0,0,150.18,65.54Z" style="fill:none;stroke:#000;stroke-miterlimit:10"/></g><path d="M23.08,113.68v18.2H20.92v-8.24H15.15v8.24H13v-18.2h2.16v8h5.77v-8Z"/><path d="M35.87,122.6v9.28H34.18l-.15-1.3a3.49,3.49,0,0,1-3.12,1.64A4,4,0,0,1,26.64,128c0-2.7,1.85-4.16,4.84-4.16h2.34v-1.19c0-1.8-.75-2.78-2.31-2.78a2.19,2.19,0,0,0-2.4,2.1H27.06c.1-2.49,1.85-4.08,4.5-4.08S35.87,119.64,35.87,122.6Zm-2,3H31.45c-1.76,0-2.73.84-2.73,2.37s1,2.31,2.58,2.31a2.31,2.31,0,0,0,2.52-2.41Z"/><path d="M39.54,127.2v-4.39c0-3.15,1.77-4.94,4.52-4.94s4.53,1.79,4.63,4.94H46.61c0-2-1-3-2.55-3s-2.44,1-2.44,3v4.39c0,2,.91,3,2.44,3s2.53-.94,2.6-3h2.06c-.08,3.18-1.85,5-4.66,5S39.54,130.38,39.54,127.2Z"/><path d="M59.17,120.11H55.92v11.77h-2V120.11H50.64v-1.9h8.53Z"/><path d="M71.05,123.17V127c0,3.35-1.66,5.2-4.31,5.2a3.85,3.85,0,0,1-2.89-1.3v5.66h-2V118.18h1.53l.21,1.28a4,4,0,0,1,3.15-1.56C69.28,117.9,71.05,119.77,71.05,123.17Zm-2.08,0c0-2.36-1-3.38-2.6-3.38-1.43,0-2.52,1.1-2.52,3.33V127c0,2,1,3.27,2.52,3.27,1.72,0,2.6-1,2.6-3.27Z"/><path d="M74.38,127.13v-4.19c0-3.28,1.85-5.07,4.71-5.07s4.68,1.79,4.68,5.07v4.19c0,3.27-1.82,5.07-4.68,5.07S74.38,130.4,74.38,127.13Zm7.33,0v-4.19c0-2.13-1-3.07-2.62-3.07s-2.63.94-2.63,3.07v4.19c0,2.13,1,3.09,2.63,3.09S81.71,129.26,81.71,127.13Z"/><path d="M87.46,118.21h2V125c0,1,0,2.18,0,3.43l0,0c.23-.62.83-2.13,1.2-3l3.48-7.28h2.08v13.67h-2v-6.29c0-1.35,0-2.78.11-4l0,0c-.19.59-.84,2.31-1.33,3.35l-3.43,7H87.46Zm1.38-5.2H90.4c.07,1,.54,1.53,1.45,1.53s1.41-.52,1.46-1.53h1.58a3,3,0,1,1-6,0Z"/><path d="M103.24,125.7l-1,1.11v5.07h-2V118.21h2v6c.63-.86,1.22-1.72,1.82-2.52l2.63-3.51h2.52l-4.65,5.87,5.3,7.8h-2.42Z"/><path d="M112.24,118.21h2V125c0,1,0,2.18,0,3.43l0,0c.23-.62.83-2.13,1.19-3l3.49-7.28H121v13.67h-2v-6.29c0-1.35,0-2.78.11-4l-.06,0a34.6,34.6,0,0,1-1.32,3.35l-3.43,7h-2.08Z"/><path d="M134.57,125.7l-1,1.11v5.07h-2V118.21h2v6c.62-.86,1.22-1.72,1.82-2.52l2.63-3.51h2.52l-4.66,5.87,5.31,7.8h-2.42Z"/><path d="M142.65,127.13v-4.19c0-3.28,1.85-5.07,4.71-5.07s4.68,1.79,4.68,5.07v4.19c0,3.27-1.82,5.07-4.68,5.07S142.65,130.4,142.65,127.13Zm7.34,0v-4.19c0-2.13-1-3.07-2.63-3.07s-2.63.94-2.63,3.07v4.19c0,2.13,1,3.09,2.63,3.09S150,129.26,150,127.13Z"/><path d="M164.21,118.21v13.67h-2.06V125.8h-4.49v6.08h-2V118.21h2v5.67h4.49v-5.67Z"/><path d="M181.39,123.38v3.33c0,3.41-2.2,5.36-5.14,5.36h-.6v4.49h-2v-4.49h-.6a5,5,0,0,1-5.17-5.36v-3.33c0-3.43,2.2-5.38,5.17-5.38h.6v-4.86h2V118h.6C179.19,118,181.39,120,181.39,123.38Zm-7.74,6.71V120h-.6c-1.74,0-3.09,1.09-3.09,3.4v3.33c0,2.26,1.35,3.38,3.09,3.38Zm5.69-6.71c0-2.31-1.35-3.4-3.09-3.4h-.6v10.11h.6c1.71,0,3.09-1.12,3.09-3.38Z"/><path d="M185.09,118.21h2V125c0,1,0,2.18-.05,3.43l.05,0c.23-.62.83-2.13,1.19-3l3.49-7.28h2.08v13.67h-2v-6.29c0-1.35,0-2.78.11-4l-.06,0a34.6,34.6,0,0,1-1.32,3.35l-3.43,7h-2.08Z"/><path d="M204.82,120.16h-4.91v11.72h-2.06v-13.7h7Z"/><path d="M216.42,118.21l-4.48,15c-.62,2.15-1.5,3.58-3.48,3.58h-1.12v-2h.78c1.12,0,1.48-.83,1.82-1.95l.73-2.42-4.39-12.27h2.15l3.12,9.28,2.76-9.28Z"/><path d="M228.17,123.17V127c0,3.35-1.67,5.2-4.32,5.2a3.83,3.83,0,0,1-2.88-1.3v5.66h-2V118.18h1.54l.21,1.28a4,4,0,0,1,3.14-1.56C226.4,117.9,228.17,119.77,228.17,123.17Zm-2.08,0c0-2.36-1-3.38-2.6-3.38-1.43,0-2.52,1.1-2.52,3.33V127c0,2,1,3.27,2.52,3.27s2.6-1,2.6-3.27Z"/><path d="M240.34,122.6v9.28h-1.69l-.16-1.3a3.49,3.49,0,0,1-3.12,1.64,4,4,0,0,1-4.26-4.24c0-2.7,1.84-4.16,4.83-4.16h2.34v-1.19c0-1.8-.75-2.78-2.31-2.78a2.17,2.17,0,0,0-2.39,2.1h-2.06c.11-2.49,1.85-4.08,4.5-4.08S240.34,119.64,240.34,122.6Zm-2.06,3h-2.36c-1.77,0-2.73.84-2.73,2.37s1,2.31,2.57,2.31a2.31,2.31,0,0,0,2.52-2.41Z"/><path d="M251.2,120.11H248v11.77h-2V120.11h-3.25v-1.9h8.52Z"/><path d="M253,127.13v-4.19c0-3.28,1.85-5.07,4.71-5.07s4.68,1.79,4.68,5.07v4.19c0,3.27-1.82,5.07-4.68,5.07S253,130.4,253,127.13Zm7.34,0v-4.19c0-2.13-1-3.07-2.63-3.07s-2.63.94-2.63,3.07v4.19c0,2.13,1,3.09,2.63,3.09S260.36,129.26,260.36,127.13Z"/><path d="M275.31,123.17V127c0,3.35-1.67,5.2-4.32,5.2a3.87,3.87,0,0,1-2.89-1.3v5.66h-2V118.18h1.53l.21,1.28A4,4,0,0,1,271,117.9C273.54,117.9,275.31,119.77,275.31,123.17Zm-2.08,0c0-2.36-1-3.38-2.61-3.38-1.42,0-2.52,1.1-2.52,3.33V127c0,2,1,3.27,2.52,3.27,1.72,0,2.61-1,2.61-3.27Z"/><path d="M287.47,122.6v9.28h-1.69l-.15-1.3a3.49,3.49,0,0,1-3.12,1.64,4,4,0,0,1-4.27-4.24c0-2.7,1.85-4.16,4.84-4.16h2.34v-1.19c0-1.8-.75-2.78-2.31-2.78a2.19,2.19,0,0,0-2.4,2.1h-2c.1-2.49,1.85-4.08,4.5-4.08S287.47,119.64,287.47,122.6Zm-2.05,3h-2.37c-1.76,0-2.73.84-2.73,2.37s1,2.31,2.58,2.31a2.31,2.31,0,0,0,2.52-2.41Z"/></svg>