<svg xmlns="http://www.w3.org/2000/svg" viewBox="0 0 300 165"><defs><style>.cls-1{fill:none;stroke:#000;stroke-miterlimit:10;}</style></defs><title>konfig</title><g id="Слой_1" data-name="Слой 1"><path d="M58.13,113.48v14h-2v-6.14h-4v6.14h-2v-14h2v6h4v-6Z"/><path d="M66.58,117.66a4.1,4.1,0,0,1,.87,2.82v7H65.87l-.14-1a2.56,2.56,0,0,1-.93.92,2.73,2.73,0,0,1-1.41.34,3.06,3.06,0,0,1-3.24-3.26,2.93,2.93,0,0,1,1-2.41,4.33,4.33,0,0,1,2.8-.83h1.54v-.76c0-1.29-.51-1.94-1.52-1.94a1.65,1.65,0,0,0-1.09.36,1.51,1.51,0,0,0-.51,1H60.45a3.31,3.31,0,0,1,1-2.39,3.64,3.64,0,0,1,2.54-.87A3.24,3.24,0,0,1,66.58,117.66Zm-1.07,5.2H64a2,2,0,0,0-1.38.42,1.51,1.51,0,0,0-.48,1.2,1.48,1.48,0,0,0,.44,1.13,1.77,1.77,0,0,0,1.24.41,1.67,1.67,0,0,0,1.26-.48,1.78,1.78,0,0,0,.46-1.3Z"/><path d="M70.48,126.69a4,4,0,0,1-1-2.85v-3.32a4,4,0,0,1,1-2.83,3.41,3.41,0,0,1,2.61-1,3.52,3.52,0,0,1,2.68,1,4.09,4.09,0,0,1,1,2.84H74.83c0-1.32-.63-2-1.72-2a1.49,1.49,0,0,0-1.2.5,2.25,2.25,0,0,0-.42,1.48v3.32a2.28,2.28,0,0,0,.42,1.5,1.49,1.49,0,0,0,1.2.5c1.11,0,1.69-.67,1.74-2h1.94a4.08,4.08,0,0,1-1,2.85,3.57,3.57,0,0,1-2.68,1A3.41,3.41,0,0,1,70.48,126.69Z"/><path d="M84.29,118.76H81.87v8.72H80v-8.72h-2.4v-1.82h6.74Z"/><path d="M92,117.79a4.51,4.51,0,0,1,.92,3v2.9a4.41,4.41,0,0,1-.91,3,3.06,3.06,0,0,1-2.45,1.07,2.78,2.78,0,0,1-1.11-.22,2.63,2.63,0,0,1-.91-.62v4.2h-1.9V116.92H87l.14,1a3.2,3.2,0,0,1,1-.86,2.8,2.8,0,0,1,1.33-.34A3,3,0,0,1,92,117.79Zm-1.06,3c0-1.51-.57-2.26-1.7-2.26a1.51,1.51,0,0,0-1.24.57,2.6,2.6,0,0,0-.46,1.67v2.92a2.63,2.63,0,0,0,.45,1.63,1.5,1.5,0,0,0,1.25.59,1.52,1.52,0,0,0,1.28-.54,2.73,2.73,0,0,0,.42-1.68Z"/><path d="M95.72,126.68a4.12,4.12,0,0,1-1-3v-3a4.12,4.12,0,0,1,1-3,4.08,4.08,0,0,1,5.44,0,4.12,4.12,0,0,1,1,3v3a4.12,4.12,0,0,1-1,3,4.08,4.08,0,0,1-5.44,0Zm4.47-3v-3c0-1.41-.59-2.12-1.76-2.12s-1.74.71-1.74,2.12v3c0,1.41.58,2.12,1.74,2.12S100.19,125.13,100.19,123.72Z"/><path d="M104.23,116.94h1.88v4.44c0,1.19,0,2.16,0,2.92l.06,0c.16-.52.53-1.51,1.1-3l2-4.42h2v10.54h-1.88v-4c0-1.09,0-2.23.1-3.4l-.06,0a14.34,14.34,0,0,1-.48,1.49c-.27.75-.5,1.34-.7,1.75l-2,4.22h-2Zm1.82-2.28a2.48,2.48,0,0,1-.7-1.76h1.38a1.11,1.11,0,0,0,.29.79,1,1,0,0,0,.73.27,1,1,0,0,0,.74-.27,1.08,1.08,0,0,0,.3-.79h1.38a2.51,2.51,0,0,1-.69,1.77,2.63,2.63,0,0,1-3.43,0Z"/><path d="M116.19,123l-.7.76v3.76h-1.92V116.94h1.92v4.48l1.24-1.94,1.74-2.54h2.3l-3.32,4.5,3.82,6h-2.22Z"/><path d="M122.39,116.94h1.88v4.44c0,1.19,0,2.16,0,2.92l.06,0c.16-.52.53-1.51,1.1-3l2-4.42h2v10.54h-1.88v-4c0-1.09,0-2.23.1-3.4l-.06,0a14.34,14.34,0,0,1-.48,1.49c-.27.75-.5,1.34-.7,1.75l-2,4.22h-2Z"/><path d="M138.65,123l-.7.76v3.76H136V116.94H138v4.48l1.24-1.94,1.74-2.54h2.3l-3.32,4.5,3.82,6h-2.22Z"/><path d="M145.12,126.68a4.12,4.12,0,0,1-1-3v-3a4.12,4.12,0,0,1,1-3,4.08,4.08,0,0,1,5.44,0,4.12,4.12,0,0,1,1,3v3a4.12,4.12,0,0,1-1,3,4.08,4.08,0,0,1-5.44,0Zm4.47-3v-3c0-1.41-.59-2.12-1.76-2.12s-1.74.71-1.74,2.12v3c0,1.41.58,2.12,1.74,2.12S149.59,125.13,149.59,123.72Z"/><path d="M160.31,116.94v10.54h-1.94V123h-2.94v4.5h-1.94V116.94h1.94v4.24h2.94v-4.24Z"/><path d="M171.93,117.87a4.13,4.13,0,0,1,1.08,3v2.54a4.17,4.17,0,0,1-1.09,3.07,3.84,3.84,0,0,1-2.87,1.11h-.42v3.46h-1.88v-3.46h-.4a3.84,3.84,0,0,1-2.87-1.11,4.17,4.17,0,0,1-1.09-3.07V120.9a4.13,4.13,0,0,1,1.08-3,3.86,3.86,0,0,1,2.88-1.09h.4V113h1.88v3.74h.42A3.86,3.86,0,0,1,171.93,117.87Zm-5.18,7.85v-7.06h-.4a2,2,0,0,0-1.46.56,2.32,2.32,0,0,0-.54,1.68v2.54a2.37,2.37,0,0,0,.55,1.7,1.9,1.9,0,0,0,1.45.58Zm4.3-4.82a2.32,2.32,0,0,0-.54-1.68,2,2,0,0,0-1.46-.56h-.42v7.06h.42a1.9,1.9,0,0,0,1.45-.58,2.37,2.37,0,0,0,.55-1.7Z"/><path d="M175.09,116.94H177v4.44c0,1.19,0,2.16,0,2.92l.06,0c.16-.52.53-1.51,1.1-3l2-4.42h2v10.54h-1.88v-4c0-1.09,0-2.23.1-3.4l-.06,0a14.34,14.34,0,0,1-.48,1.49c-.27.75-.5,1.34-.7,1.75l-2,4.22h-2Z"/><path d="M189.91,118.78h-3.52v8.7h-2V116.92h5.48Z"/><path d="M198.57,116.94l-3.42,11.36a6.23,6.23,0,0,1-1.09,2.21,2.22,2.22,0,0,1-1.79.77h-1V129.4h.66a1.17,1.17,0,0,0,.91-.36,2.86,2.86,0,0,0,.55-1.08l.44-1.5-3.38-9.52h2.08l1.34,4,.8,2.58.76-2.56,1.2-4.06Z"/><path d="M206.17,117.79a4.51,4.51,0,0,1,.92,3v2.9a4.47,4.47,0,0,1-.91,3,3.08,3.08,0,0,1-2.45,1.07,2.78,2.78,0,0,1-1.11-.22,2.54,2.54,0,0,1-.91-.62v4.2h-1.9V116.92h1.4l.14,1a3.1,3.1,0,0,1,1.05-.86,2.77,2.77,0,0,1,1.33-.34A3,3,0,0,1,206.17,117.79Zm-1.06,3c0-1.51-.57-2.26-1.7-2.26a1.5,1.5,0,0,0-1.24.57,2.6,2.6,0,0,0-.46,1.67v2.92a2.63,2.63,0,0,0,.45,1.63,1.48,1.48,0,0,0,1.25.59,1.52,1.52,0,0,0,1.28-.54,2.73,2.73,0,0,0,.42-1.68Z"/><path d="M215,117.66a4.1,4.1,0,0,1,.87,2.82v7h-1.58l-.14-1a2.56,2.56,0,0,1-.93.92,2.78,2.78,0,0,1-1.41.34,3.06,3.06,0,0,1-3.24-3.26,2.93,2.93,0,0,1,1-2.41,4.33,4.33,0,0,1,2.8-.83H214v-.76c0-1.29-.51-1.94-1.52-1.94a1.63,1.63,0,0,0-1.09.36,1.51,1.51,0,0,0-.51,1h-1.94a3.31,3.31,0,0,1,1-2.39,3.63,3.63,0,0,1,2.54-.87A3.24,3.24,0,0,1,215,117.66Zm-1.07,5.2h-1.54a2,2,0,0,0-1.38.42,1.51,1.51,0,0,0-.48,1.2,1.44,1.44,0,0,0,.44,1.13,1.75,1.75,0,0,0,1.24.41,1.67,1.67,0,0,0,1.26-.48,1.82,1.82,0,0,0,.46-1.3Z"/><path d="M223.73,118.76h-2.42v8.72h-1.92v-8.72H217v-1.82h6.74Z"/><path d="M225.5,126.68a4.12,4.12,0,0,1-1-3v-3a4.12,4.12,0,0,1,1-3,4.08,4.08,0,0,1,5.44,0,4.12,4.12,0,0,1,1,3v3a4.12,4.12,0,0,1-1,3,4.08,4.08,0,0,1-5.44,0Zm4.47-3v-3c0-1.41-.59-2.12-1.76-2.12s-1.74.71-1.74,2.12v3c0,1.41.58,2.12,1.74,2.12S230,125.13,230,123.72Z"/><path d="M240.37,117.79a4.51,4.51,0,0,1,.92,3v2.9a4.47,4.47,0,0,1-.91,3,3.08,3.08,0,0,1-2.45,1.07,2.78,2.78,0,0,1-1.11-.22,2.54,2.54,0,0,1-.91-.62v4.2H234V116.92h1.4l.14,1a3,3,0,0,1,1-.86,2.77,2.77,0,0,1,1.33-.34A3,3,0,0,1,240.37,117.79Zm-1.06,3c0-1.51-.57-2.26-1.7-2.26a1.5,1.5,0,0,0-1.24.57,2.6,2.6,0,0,0-.46,1.67v2.92a2.63,2.63,0,0,0,.45,1.63,1.48,1.48,0,0,0,1.25.59,1.52,1.52,0,0,0,1.28-.54,2.73,2.73,0,0,0,.42-1.68Z"/><path d="M249.24,117.66a4.1,4.1,0,0,1,.87,2.82v7h-1.58l-.14-1a2.56,2.56,0,0,1-.93.92,2.78,2.78,0,0,1-1.41.34,3.06,3.06,0,0,1-3.24-3.26,2.93,2.93,0,0,1,1-2.41,4.33,4.33,0,0,1,2.8-.83h1.54v-.76c0-1.29-.51-1.94-1.52-1.94a1.63,1.63,0,0,0-1.09.36,1.51,1.51,0,0,0-.51,1h-1.94a3.31,3.31,0,0,1,1-2.39,3.63,3.63,0,0,1,2.54-.87A3.24,3.24,0,0,1,249.24,117.66Zm-1.07,5.2h-1.54a2,2,0,0,0-1.38.42,1.51,1.51,0,0,0-.48,1.2,1.44,1.44,0,0,0,.44,1.13,1.75,1.75,0,0,0,1.24.41,1.67,1.67,0,0,0,1.26-.48,1.82,1.82,0,0,0,.46-1.3Z"/></g><g id="главная_страница" data-name="главная страница"><path class="cls-1" d="M163.13,75.48c-.54-.3-1-.52-1.46-.82-.88-.6-1.68-1.6-2.63-1.76s-1.9.69-2.9.89A2.35,2.35,0,0,0,154,76.41a10.32,10.32,0,0,1-.34,1.88A1.74,1.74,0,0,1,151.73,80c-1.24,0-2.48,0-3.71,0s-1.65-.48-1.89-1.68c-.21-1-.32-2.12-.57-3.16a1.52,1.52,0,0,0-.7-.89,16.15,16.15,0,0,1-2-.77,2.39,2.39,0,0,0-3.49.33,10.3,10.3,0,0,1-1.47,1,1.69,1.69,0,0,1-2.58-.18c-.87-.84-1.71-1.7-2.54-2.58a1.68,1.68,0,0,1-.16-2.51c.61-.88,1.29-1.72,1.85-2.63a1.56,1.56,0,0,0,.08-1.13c-.39-1.1-.84-2.18-1.33-3.24a1.41,1.41,0,0,0-.79-.69c-1-.25-2.1-.39-3.15-.58a1.86,1.86,0,0,1-1.81-2.11c0-1.17,0-2.34,0-3.52a1.81,1.81,0,0,1,1.74-2c1-.16,1.91-.31,2.87-.44a1.26,1.26,0,0,0,1.2-1c.32-1,.85-2,1.2-3.07a1.48,1.48,0,0,0-.09-1.15c-.57-.94-1.26-1.81-1.88-2.73a1.63,1.63,0,0,1,.18-2.42c.86-.9,1.74-1.77,2.65-2.62a1.69,1.69,0,0,1,2.51-.14c.85.6,1.7,1.2,2.51,1.84a1,1,0,0,0,1.25.14c1-.5,2.07-.92,3.13-1.32a1,1,0,0,0,.83-.95c.12-1.06.36-2.11.56-3.16A1.73,1.73,0,0,1,148.07,35c1.23,0,2.47,0,3.71,0s1.65.48,1.9,1.68c.2,1,.3,2.06.55,3.06a1.6,1.6,0,0,0,.75,1,31.82,31.82,0,0,0,3.41,1.42,1.38,1.38,0,0,0,1.05-.11c.9-.56,1.75-1.23,2.63-1.83a1.74,1.74,0,0,1,2.59.2c.86.85,1.71,1.71,2.54,2.58a1.64,1.64,0,0,1,.19,2.43c-.62.92-1.32,1.78-1.9,2.72a1.51,1.51,0,0,0-.07,1.13,31.28,31.28,0,0,0,1.3,3.24,1.58,1.58,0,0,0,.89.74c1.07.26,2.17.39,3.25.61a1.73,1.73,0,0,1,1.61,1.85q.06,1.86,0,3.72a1.77,1.77,0,0,1-1.7,1.88c-1.09.18-2.19.33-3.26.58a1.37,1.37,0,0,0-.79.67c-.5,1.06-.87,2.17-1.39,3.22a1.07,1.07,0,0,0,.13,1.26c.64.86,1.24,1.74,1.83,2.64a1.63,1.63,0,0,1-.22,2.42c-.86.89-1.73,1.77-2.64,2.61A7.06,7.06,0,0,1,163.13,75.48ZM150,68.17a10.69,10.69,0,1,0-10.64-10.72A10.79,10.79,0,0,0,150,68.17Z"/></g></svg>