<svg xmlns="http://www.w3.org/2000/svg" viewBox="0 0 100 100"><defs><style>.cls-1{fill:none;}.cls-1,.cls-2{stroke:#000;stroke-miterlimit:10;stroke-width:0.25px;}</style></defs><g id="Тарировка"><path class="cls-1" d="M19.34,48.24c-.87,0-.68,0-1,.37-.19.22-.36.28-.37.67a5.12,5.12,0,0,0,.56-.07h.07a8.1,8.1,0,0,1,2.2.36c.89.22,1.45.49,1.95.61a1.44,1.44,0,0,0,.55-1l-1.8-.61A8.32,8.32,0,0,0,19.34,48.24Z"/><path class="cls-1" d="M17.88,50c-.22.08-.1,0-.23.18a1.25,1.25,0,0,1-.09.12c-.18.24-.43.41-.44.81,1.46-.35,3.74.42,4.92.69.1-.19.19-.29.29-.47s.1-.37.19-.57l-1.39-.41A9.13,9.13,0,0,0,17.88,50Z"/><path class="cls-1" d="M16.9,51.9l-.1.11c-.28.32-.23.5-.37.8a5.49,5.49,0,0,1,1.45,0c.43,0,.72.1,1.16.16a15,15,0,0,0,2.37.33c.1-.37.35-.3.35-1a22.61,22.61,0,0,0-2.93-.61C18.35,51.66,17.24,51.57,16.9,51.9Z"/><path class="cls-1" d="M23.11,47.24a6.29,6.29,0,0,0-1.83-.59c-.45-.08-1.7-.34-2,.1l-.11.23c-.14.2-.38.28-.47.63.74-.35,2.68.21,3.34.47s1.06.34,1.5.57a1.35,1.35,0,0,0,.48-1,3.19,3.19,0,0,0-.55-.35A3.49,3.49,0,0,0,23.11,47.24Z"/><path class="cls-1" d="M27.23,35.22l-.18-.09c-1.29-.48-3.94-1.22-5.42-1.72-.66-.22-1.48-.69-1.74-.75,0,.91,0,1.15,1.14,1.63C22,34.7,26,35.8,26.33,36A2.65,2.65,0,0,1,27.23,35.22Z"/><path class="cls-1" d="M24.27,45.8a11.3,11.3,0,0,0-2.79-.88c-1.13,0-1-.12-1.68.66-.16.19-.16.09-.18.37.88-.42,2.41.25,3,.4a1.91,1.91,0,0,1,.46.17l1.39.68c.08-.29.1-.14.24-.38C25.1,46.16,24.75,46.11,24.27,45.8Z"/><path class="cls-1" d="M32.69,32.74a2,2,0,0,0-1.06,0,.56.56,0,0,0-.31.17,4.66,4.66,0,0,1,1.79.71,4.09,4.09,0,0,1,.41.42,5.83,5.83,0,0,1,.68,1,2.44,2.44,0,0,1,.44,1.31c.44-.3.42-.43.42-.9a1.79,1.79,0,0,0-.41-1.26A3.2,3.2,0,0,0,32.69,32.74Z"/><path class="cls-1" d="M23.52,33.39l3,1c.14,0,1,.32,1.07.32a4.24,4.24,0,0,0,.72-.39,2.54,2.54,0,0,1,.91-.75,3.25,3.25,0,0,0,.91-.76l1.35-.87a2.55,2.55,0,0,1,.74-.36c.29-.12.47-.35.7-.41a6.55,6.55,0,0,1,.66-3c.15-.21.22-.32.36-.54a4.71,4.71,0,0,1,1.47-1.3l.07-1.79L21.06,30.57c-.45.24-1.09.47-1.1,1.05C20,32.48,22.46,33.05,23.52,33.39ZM25,31c1,0,1.89.42,1.89.93s-.85.93-1.89.93-1.89-.41-1.89-.93S24,31,25,31Z"/><path class="cls-1" d="M25.35,44.51A6.89,6.89,0,0,0,22,43.32a1.19,1.19,0,0,0-1.13.6,1.34,1.34,0,0,0-.25.37,3,3,0,0,1,1.37,0,9.11,9.11,0,0,1,2.89,1.2c.26.16.31.14.38.32a1.47,1.47,0,0,0,.51-.61C25.88,44.8,25.59,44.68,25.35,44.51Z"/><path class="cls-1" d="M37,32.79a3.36,3.36,0,0,0-.68-.77,2.73,2.73,0,0,0-2.23-.68,6.36,6.36,0,0,1,2,1.41,2.5,2.5,0,0,1,.62,1.09,2.83,2.83,0,0,1,.1,1.45C37.63,34.71,37.37,33.6,37,32.79Z"/><path class="cls-1" d="M34,36.19a3.29,3.29,0,0,0-.86-1.63,3.39,3.39,0,0,0-1.54-1c-.72-.19-.81,0-1.41,0,.06.08,0,0,.1.11l.38.23a4.88,4.88,0,0,1,1.58.92,4.09,4.09,0,0,1,.78.89,4.2,4.2,0,0,1,.42,1.31C33.84,37,34,36.36,34,36.19Z"/><path class="cls-1" d="M40.74,33.7a7.39,7.39,0,0,0-.28-1.8c-.29.21.37.93-.06,2.29a5.85,5.85,0,0,1-.68,1.4,3.23,3.23,0,0,1-2.22,1c-1.12-.26-.83-.87-1.89,0,.52,0,4.74,1.55,5.27,1.6C40.88,36.91,40.74,35,40.74,33.7Z"/><path class="cls-1" d="M31.73,35.22a2.52,2.52,0,0,0-1.4-.67c-.59-.1-1.34-.15-1.64.25a5.48,5.48,0,0,1,1.29.37,5.39,5.39,0,0,1,1.09.64,2.84,2.84,0,0,1,.8.83,6,6,0,0,1,.33.6c.1.24.12.4.23.61a1.43,1.43,0,0,0,.33-.36c.29-.4-.07-1.16-.35-1.59A2.4,2.4,0,0,0,31.73,35.22Z"/><path class="cls-1" d="M25.43,39.1a2.85,2.85,0,0,0-1.09.15,2.14,2.14,0,0,0-.57.47,4.37,4.37,0,0,1,2.61.72,5.19,5.19,0,0,1,1.82,1.5.76.76,0,0,0,.21-1.25A4.2,4.2,0,0,0,25.43,39.1Z"/><path class="cls-1" d="M56,44.89c-.34,0-.39,0-.67,0a10.39,10.39,0,0,1-3.65-.49c-.74-.19-6.18-1.8-6.18-1.8,0,.32.21,4.37.22,4.73.08,1.44,0,2.31,1.43,3.32a11.47,11.47,0,0,0,5,1.43c5.26.17,8.75-.71,10.11-1.91A2.46,2.46,0,0,0,63,48.36c.09-1.45.33-5.88.36-6.14l-3.74,1.59A10.36,10.36,0,0,1,56,44.89Z"/><path class="cls-1" d="M28.94,39a4.34,4.34,0,0,0-2.6-1.21,4.45,4.45,0,0,0-.76.15c-.31.11-.35.21-.49.47a4.47,4.47,0,0,1,2.46.79l.46.31a2.87,2.87,0,0,1,1.16,1.33c.73-.51.51-1.16,0-1.64Z"/><path class="cls-1" d="M35.91,35.58c.65-.66.21-1.72-.27-2.33A2.75,2.75,0,0,0,33.26,32a2.36,2.36,0,0,0-.76.07v.06a2.89,2.89,0,0,1,1.75.75,1.94,1.94,0,0,1,.21.2l.45.45a3.11,3.11,0,0,1,.77,2.27A1,1,0,0,0,35.91,35.58Z"/><path class="cls-1" d="M58.77,42.51a13.83,13.83,0,0,1-3.49.68H53.9c-1.66,0-19.54-5.72-19.74-5.82a7.69,7.69,0,0,0-1.11.69l.05,0s19.31,6.21,20.8,6.21h1.77a8.38,8.38,0,0,0,2.4-.46c1.7-.6,27.41-11.48,28.12-11.92s.6-.58.6-1.4Z"/><path class="cls-1" d="M23.49,41.87c-.87,0-1.42-.06-2.07.9a2.71,2.71,0,0,1,.83-.07,5.19,5.19,0,0,1,2.22.61l1.72,1.12c.36-.54,0,.19.56-.9L26.14,43A7.24,7.24,0,0,0,23.49,41.87Z"/><path class="cls-1" d="M25.53,40.74a5.59,5.59,0,0,0-1.34-.33,1.72,1.72,0,0,0-1.6.83,5.28,5.28,0,0,1,3.22.8,2.71,2.71,0,0,1,.25.17l.25.16a3.44,3.44,0,0,1,.46.38L27,43c.14.14.08.12.25.23.2-.29.6-.67.3-1.12A4.13,4.13,0,0,0,25.53,40.74Z"/><path class="cls-1" d="M30.1,35.89a2.93,2.93,0,0,0-1.34-.39,2.29,2.29,0,0,0-1,.11.64.64,0,0,0-.42.3,4.33,4.33,0,0,1,3,1.26l.28.27a3.55,3.55,0,0,1,.77,1.31l.33-.36a.81.81,0,0,0,.08-.74A3.62,3.62,0,0,0,30.1,35.89Z"/><path class="cls-1" d="M29.9,37.62a3.71,3.71,0,0,0-1.1-.71,4,4,0,0,0-1.57-.3,1.59,1.59,0,0,0-1.1.48,2.47,2.47,0,0,1,1.36.3,6.41,6.41,0,0,1,1.63.93,2.89,2.89,0,0,1,1.09,1.47,1.57,1.57,0,0,0,.41-.5C31.06,38.61,30.15,37.86,29.9,37.62Z"/><path class="cls-1" d="M34.71,27.6a3.28,3.28,0,0,1,1.6-.42,4.12,4.12,0,0,1,1.86.63l1.54,1.37A9.24,9.24,0,0,1,40.79,31a7.78,7.78,0,0,1,.57,3.3c0,.42.07.5.07.9l.07,3.11a3.54,3.54,0,0,0,1.77-.3c.56-.24,4.13-1.84,4.39-1.84,1.16,0,2.36.27,3.67.28.12,0,.4.07.7.07a7.48,7.48,0,0,1,.82,0c.76.08,2.2.05,3.06.05s3-.23,3.94-.27A35.41,35.41,0,0,0,65,35.41a17.33,17.33,0,0,0,6-2.51c.63-.47,1.76-1.52,1.83-2.46l-.13-6.3c0-.35-.07-.56-.07-.76V21.51a14.55,14.55,0,0,0-.24-2.74,8,8,0,0,0-.91-1.38.91.91,0,0,0-.45-.32,8.88,8.88,0,0,0,.5.75,2.78,2.78,0,0,1,.32.93,2.26,2.26,0,0,1-.42,2,5.82,5.82,0,0,1-2.73,2.33c-1.52.75-.77.38-1.07.8-.07.1,0,0-.15.13l-.26.08c-.66.21-1.28.42-1.94.62a9.92,9.92,0,0,1-1,.29,40.14,40.14,0,0,1-4.36.76L56.18,26c-1.68,0-2.4,0-4-.07-.3,0-.61,0-.91,0A41.56,41.56,0,0,1,47,25.43a17.44,17.44,0,0,1-2.4-.51c-.47-.27.38-.17-1.16-.57a21.64,21.64,0,0,1-2.5-1,10.28,10.28,0,0,1-2.2-1.2,3.65,3.65,0,0,1-.62-.56,4.27,4.27,0,0,1-1-1.3c-.23-.47-.15-.27-.21-.89a2.47,2.47,0,0,1,.42-1.74,1.58,1.58,0,0,1,.2-.36c.11-.15.18-.18.29-.33-.29.07-.48.36-.68.57l-.53.78c-.46.76-.3,1.17-.39,2.24L36,26c.91-.22,3.39-1.69,4.09-1.53.15.66-.34.55-.74.72l-.39.17-3.36,1.49A2.2,2.2,0,0,0,34.71,27.6Z"/><path class="cls-1" d="M16.41,53.55c-.28.09-.06-.11-.39.45a1.3,1.3,0,0,0-.21.68c1.11-.26,3.54.28,5,.28.1-.41.33-.41.35-1C20.51,53.92,17.24,53.28,16.41,53.55Z"/><path class="cls-1" d="M15.82,55.32c-.38.1-.57.65-.57,1.16a6,6,0,0,1,1.13,0l2.47.16h.63c.85,0,.83-.09,1-1l-.14-.06A33.73,33.73,0,0,0,15.82,55.32Z"/><path class="cls-1" d="M16.91,57.17H15.25c-.2,0-.29.21-.37.38s-.11.32-.11.72h1c.39,0,.48.07.89.07.57,0,2.62.28,3-.18l.11-.16a1.06,1.06,0,0,0,.28-.76H17.68A7.05,7.05,0,0,0,16.91,57.17Z"/><path class="cls-1" d="M15.8,59.05a2.39,2.39,0,0,0-.61-.07c-.27,0-.28.06-.63.07-.05.22-.13.26-.18.51s0,.35-.1.59h1a14,14,0,0,0,3.07,0c.42-.05,1.09-.06,1.08-1.12h-.2C18,59.09,17.13,59.05,15.8,59.05Z"/><path class="cls-1" d="M42.08,18.44a.57.57,0,0,1,.27.65c-.18.62-1.51,1-2.24,1A4.44,4.44,0,0,1,38,19.57l0,0-.31-.25a3.58,3.58,0,0,0,1.82,2.55,11.2,11.2,0,0,0,3,1.51,35.17,35.17,0,0,0,7.28,1.58,23,23,0,0,0,2.8.18c.49,0,.51.07,1.39.07.59,0,.9-.07,1.45-.07-1.48-1.26.59-1.75,1.59-1.8a4.05,4.05,0,0,1,2.34.5c.48.33.38.66.09,1.09a6.23,6.23,0,0,0,.91-.13l1-.14a26.81,26.81,0,0,0,5.33-1.32c1.71-.76,4.64-1.95,4.64-4.23-.23.09,0,0-.3.26a3.9,3.9,0,0,1-2,.58,6.16,6.16,0,0,1-1.39-.21c-.54-.14-.78-.17-1-.67-.54-1.24,2.31-1.38,3.29-1.21a3.28,3.28,0,0,1,1.17.49l-.29-.6A9.86,9.86,0,0,0,69,16.33l-1.68-.87a7.79,7.79,0,0,0-1-.37A32,32,0,0,0,60,13.66c-1-.14-3.7-.39-4.87-.39.14.19.91.51.33,1.15l-.11.1c-.87.76-3.87.71-4.4-.33-.22-.44,0-.5.17-.79a31.06,31.06,0,0,0-4.09.49c-.68.11-1.26.21-1.91.37a18.24,18.24,0,0,0-5.06,1.87,5.86,5.86,0,0,0-.7.41l-.63.54c-.34.32-.94.93-1,1.38A4.43,4.43,0,0,1,42.08,18.44Z"/><path class="cls-1" d="M14.62,62.73a7.48,7.48,0,0,0-.82,0,5.78,5.78,0,0,0-.14,1.17c.95,0,4.32.1,4.82-.65a2.27,2.27,0,0,0,.3-.94,8.55,8.55,0,0,1-1.73.35C16.33,62.65,14.84,62.75,14.62,62.73Z"/><path class="cls-1" d="M85.48,28.36c-1.08-.42-11.88-3.78-12.19-3.81,0,1.32.06,2.41.07,3.75,0,.41.07.5.07.89s0,.65,0,1A2.81,2.81,0,0,1,73,31.63c-2.12,3.36-8.43,4.67-12.12,5.2a55.11,55.11,0,0,1-7.7.4,5.5,5.5,0,0,0-.9-.07c-.83,0-3-.24-3.74-.28a2.4,2.4,0,0,0-1.86.3l-3.29,1.41a3.38,3.38,0,0,1-2,.37l6.21,2c2.8.83,5,1.64,7.16,1.64a15,15,0,0,0,6.67-1.78S86,30.4,86.56,29.93C87.39,29.29,86,28.58,85.48,28.36Zm-30.77,14c-1.21,0-2.18-.48-2.18-1.07s1-1.08,2.18-1.08,2.18.48,2.18,1.08S55.91,42.36,54.71,42.36ZM81.8,30.76c-1,0-1.89-.42-1.89-.94s.85-.93,1.89-.93,1.89.42,1.89.93S82.84,30.76,81.8,30.76Z"/><path class="cls-1" d="M14.76,60.84c-.31,0-.47,0-.61.15a2.05,2.05,0,0,0-.21.62V62a20.38,20.38,0,0,0,4.36-.21,1,1,0,0,0,.74-.7.84.84,0,0,0,.09-.47,13.38,13.38,0,0,0-1.34.18A18.13,18.13,0,0,1,14.76,60.84Z"/><path class="cls-1" d="M13.24,68.33c0,.3-.07.25-.07.76,0,.18.05.06.07.34a10.68,10.68,0,0,0,1.7,0,6.52,6.52,0,0,0,.74-.09c1.1-.25,2.37-.4,2.41-2a4.34,4.34,0,0,1-1,.47A10.62,10.62,0,0,1,13.24,68.33Z"/><path class="cls-1" d="M13.17,70.06c-.08.36-.12,1.17.28,1.17a7,7,0,0,0,3.38-.49A1.58,1.58,0,0,0,18,69.09a6.93,6.93,0,0,1-3.11,1A3.55,3.55,0,0,1,13.17,70.06Z"/><path class="cls-1" d="M18,70.75a6.38,6.38,0,0,1-1.47.74,5.53,5.53,0,0,1-1.85.37"/><path class="cls-1" d="M13.59,64.59l-.13.28a.63.63,0,0,0-.08.34l.07.55A23.06,23.06,0,0,0,16,65.7a4.09,4.09,0,0,0,1.34-.25c.78-.31.65,0,1-.77A1,1,0,0,0,18.5,64C16.92,64.73,15.21,64.58,13.59,64.59Z"/><path class="cls-1" d="M14.06,66.47a6.2,6.2,0,0,0-.75,0c0,.31-.06.24-.07.55a2.84,2.84,0,0,0,.07.55c.68.16,4.36.1,4.73-1.09a4.3,4.3,0,0,0,.19-.71,12.73,12.73,0,0,1-3.54.76A2.29,2.29,0,0,1,14.06,66.47Z"/><path class="cls-2" d="M87.35,29.12a1.64,1.64,0,0,0-.84-.88,12.66,12.66,0,0,0-2.54-1l-5.32-1.67c-.92-.27-1.74-.57-2.64-.82a20.53,20.53,0,0,0-2.72-.82c0-.35-.07-.43-.07-.83A22.39,22.39,0,0,0,73,18.66a7.06,7.06,0,0,0-.91-1.45,5.07,5.07,0,0,0-.75-.71l-1.11-.82a24.09,24.09,0,0,0-5.5-2.13l-3.14-.66c-1.1-.2-2.36-.22-3.45-.37-.58-.08-1.18,0-1.76-.11a16.33,16.33,0,0,0-1.89-.05,43.51,43.51,0,0,0-10.28,1.15,18.58,18.58,0,0,0-2.9.91A12.28,12.28,0,0,0,38.13,16a5.73,5.73,0,0,0-2.22,2.57A6.87,6.87,0,0,0,35.55,21c0,.29,0,.66,0,1,0,.72-.07,1.19-.07,1.87l-12.4,5.26A18.39,18.39,0,0,0,20,30.5a2.32,2.32,0,0,0-.3.26.86.86,0,0,0-.13.14A1.41,1.41,0,0,0,19.26,32c0,2.45.19,2.42,3.22,3.44.58.2,1.11.34,1.7.52a17.18,17.18,0,0,1,1.67.55c-.09.24-.38.31-.55.49l-.47.57c-.31.55-.48.32-.94,1.2a.75.75,0,0,1-.33.37,3.31,3.31,0,0,0-.41.35l-.54.84c-.23.36-.48.47-.67.79-.27.48-.18.48-.58.87a2.1,2.1,0,0,0-.59.86,4.77,4.77,0,0,1-.5.89c-.35.42-.48.93-.79,1.36a3.52,3.52,0,0,0-.32.37c-.17.25-.24.7-.42,1s-.38.53-.55.84-.16.69-.42,1c-.53.7-.46,1.23-.95,2a1.54,1.54,0,0,0-.39,1c-.08.47-.3.62-.46,1s-.2.8-.29,1.1c-.13.46-.36.49-.45,1-.3,1.61-.43.75-.62,2.22a3.13,3.13,0,0,1-.4,1.06c-.21.53,0,.79-.39,1.75-.17.37-.07,1-.38,1.77a1.08,1.08,0,0,0-.13.56,3.64,3.64,0,0,1,0,.74,4.17,4.17,0,0,0-.25,1.2,2.3,2.3,0,0,1-.2,1.19c-.19.58.08.7,0,1.28a2.37,2.37,0,0,0-.14,1.24,4.14,4.14,0,0,1-.09,1.3c-.07.52.1.66,0,1.24a2.85,2.85,0,0,0,0,1.25c0,.43.3.68,2,.68a5.25,5.25,0,0,0,1.85-.37A8.08,8.08,0,0,0,18,70.75a1.62,1.62,0,0,0,.38-.32,7.28,7.28,0,0,0,.3-1.5c.05-.41-.05-.41-.06-.74a5,5,0,0,1,.13-.71c.1-.65,0-1,.07-1.38a2.05,2.05,0,0,0,.15-.68c0-.39-.14-.22,0-.67a1.7,1.7,0,0,0,.19-.65,3.56,3.56,0,0,1,.22-1.44,2.4,2.4,0,0,0,0-.78c0-.56.33-.7.36-1.24a2.73,2.73,0,0,1,.29-1.37,3.51,3.51,0,0,0,.14-.69,1.91,1.91,0,0,1,.23-.6,9.43,9.43,0,0,0,.35-1.31,8.6,8.6,0,0,0,.39-1.21c.08-.35.41-.68.54-1.12a5,5,0,0,1,.14-.69c.21-.47.43-.49.53-1.13a1,1,0,0,1,.24-.6c.32-.48.46-1.1.81-1.6a8.91,8.91,0,0,0,.52-1.15,3.43,3.43,0,0,1,.36-.47c.27-.4.23-.7.55-1.11a4.12,4.12,0,0,0,.33-.43,5.64,5.64,0,0,0,.25-.58c.2-.44.51-.46.72-.95a2.52,2.52,0,0,1,.65-1c.23-.23.28-.53.51-.73.7-.63.48-.7.85-1.16a4.17,4.17,0,0,1,.47-.36c.41-.32.28-.59.75-.92s.47-.67.78-.88a2.87,2.87,0,0,0,.81-.78,1.87,1.87,0,0,1,.49-.34c1.2-.84.05-1.31,3.36-.19.85.29,1.63.5,2.48.78s1.68.52,2.53.8l4.38,1.37c.18.06.48.08.58.25s.33,5.72.38,6.2a3.32,3.32,0,0,0,1.12,2.13,6.27,6.27,0,0,0,2.2,1.12c0,3.08,0,10.48,0,20.74h.59c0-12.62,0-20.46,0-20.46,3,1.07,8.77.46,10.45-.07,0,2,0,9.47,0,20.53h.61c0-12.78,0-20.74,0-20.74a6.38,6.38,0,0,0,2.25-1.14c1.23-.92,1.09-2.47,1.21-3.92,0-.55.28-4.91.28-4.91C64.47,41.81,86.31,32.72,87,32c.41-.42.38-.59.4-1.34S87.63,29.74,87.35,29.12Zm-48.61-12,.63-.54a5.86,5.86,0,0,1,.7-.41,18.24,18.24,0,0,1,5.06-1.87c.65-.16,1.23-.26,1.91-.37a31.06,31.06,0,0,1,4.09-.49c-.2.29-.39.35-.17.79.53,1,3.53,1.09,4.4.33l.11-.1c.58-.64-.19-1-.33-1.15,1.17,0,3.87.25,4.87.39a32,32,0,0,1,6.4,1.43,7.79,7.79,0,0,1,1,.37l1.68.87a9.86,9.86,0,0,1,1.6,1.39l.29.6a3.28,3.28,0,0,0-1.17-.49c-1-.17-3.83,0-3.29,1.21.22.5.46.53,1,.67a6.16,6.16,0,0,0,1.39.21,3.9,3.9,0,0,0,2-.58c.3-.29.07-.17.3-.26,0,2.28-2.93,3.47-4.64,4.23a26.81,26.81,0,0,1-5.33,1.32l-1,.14a6.23,6.23,0,0,1-.91.13c.29-.43.39-.76-.09-1.09a4.05,4.05,0,0,0-2.34-.5c-1,.05-3.07.54-1.59,1.8-.55,0-.86.07-1.45.07-.88,0-.9-.06-1.39-.07a23,23,0,0,1-2.8-.18,35.17,35.17,0,0,1-7.28-1.58,11.2,11.2,0,0,1-3-1.51,3.58,3.58,0,0,1-1.82-2.55l.31.25,0,0a4.44,4.44,0,0,0,2.15.48c.73,0,2.06-.34,2.24-1a.57.57,0,0,0-.27-.65,4.43,4.43,0,0,0-4.32,0C37.8,18,38.4,17.4,38.74,17.08Zm-3.11,9.78L39,25.37l.39-.17c.4-.17.89-.06.74-.72-.7-.16-3.18,1.31-4.09,1.53l.2-5.41c.09-1.07-.07-1.48.39-2.24l.53-.78c.2-.21.39-.5.68-.57-.11.15-.18.18-.29.33a1.58,1.58,0,0,0-.2.36,2.47,2.47,0,0,0-.42,1.74c.06.62,0,.42.21.89a4.27,4.27,0,0,0,1,1.3,3.65,3.65,0,0,0,.62.56,10.28,10.28,0,0,0,2.2,1.2,21.64,21.64,0,0,0,2.5,1c1.54.4.69.3,1.16.57a17.44,17.44,0,0,0,2.4.51,41.56,41.56,0,0,0,4.26.51c.3,0,.61,0,.91,0,1.61.09,2.33.07,4,.07l3.74-.28A40.14,40.14,0,0,0,64.28,25a9.92,9.92,0,0,0,1-.29c.66-.2,1.28-.41,1.94-.62l.26-.08c.17-.09.08,0,.15-.13.3-.42-.45-.05,1.07-.8a5.82,5.82,0,0,0,2.73-2.33,2.26,2.26,0,0,0,.42-2,2.78,2.78,0,0,0-.32-.93,8.88,8.88,0,0,1-.5-.75.91.91,0,0,1,.45.32,8,8,0,0,1,.91,1.38,14.55,14.55,0,0,1,.24,2.74v1.87c0,.2.07.41.07.76l.13,6.3c-.07.94-1.2,2-1.83,2.46a17.33,17.33,0,0,1-6,2.51,35.41,35.41,0,0,1-5.11.92c-1,0-3,.27-3.94.27s-2.3,0-3.06-.05a7.48,7.48,0,0,0-.82,0c-.3,0-.58-.07-.7-.07-1.31,0-2.51-.28-3.67-.28-.26,0-3.83,1.6-4.39,1.84a3.54,3.54,0,0,1-1.77.3l-.07-3.11c0-.4-.07-.48-.07-.9a7.78,7.78,0,0,0-.57-3.3,9.24,9.24,0,0,0-1.08-1.84l-1.54-1.37a4.12,4.12,0,0,0-1.86-.63,3.28,3.28,0,0,0-1.6.42A2.2,2.2,0,0,1,35.63,26.86Zm-.72,6.64-.45-.45a1.94,1.94,0,0,0-.21-.2,2.89,2.89,0,0,0-1.75-.75V32a2.36,2.36,0,0,1,.76-.07,2.75,2.75,0,0,1,2.38,1.28c.48.61.92,1.67.27,2.33a1,1,0,0,1-.23.19A3.11,3.11,0,0,0,34.91,33.5Zm.15,1.93c0,.47,0,.6-.42.9A2.44,2.44,0,0,0,34.2,35a5.83,5.83,0,0,0-.68-1,4.09,4.09,0,0,0-.41-.42,4.66,4.66,0,0,0-1.79-.71.56.56,0,0,1,.31-.17,2,2,0,0,1,1.06,0,3.2,3.2,0,0,1,2,1.43A1.79,1.79,0,0,1,35.06,35.43Zm1.63-1.59a2.5,2.5,0,0,0-.62-1.09,6.36,6.36,0,0,0-2-1.41,2.73,2.73,0,0,1,2.23.68,3.36,3.36,0,0,1,.68.77c.37.81.63,1.92-.21,2.5A2.83,2.83,0,0,0,36.69,33.84Zm.81,2.75a3.23,3.23,0,0,0,2.22-1,5.85,5.85,0,0,0,.68-1.4c.43-1.36-.23-2.08.06-2.29a7.39,7.39,0,0,1,.28,1.8c0,1.33.14,3.21.14,4.5-.53-.05-4.75-1.55-5.27-1.6C36.67,35.72,36.38,36.33,37.5,36.59Zm-16.44-6,14.41-6.08-.07,1.79a4.71,4.71,0,0,0-1.47,1.3c-.14.22-.21.33-.36.54a6.55,6.55,0,0,0-.66,3c-.23.06-.41.29-.7.41a2.55,2.55,0,0,0-.74.36l-1.35.87a3.25,3.25,0,0,1-.91.76,2.54,2.54,0,0,0-.91.75,4.24,4.24,0,0,1-.72.39s-.93-.28-1.07-.32l-3-1c-1.06-.34-3.49-.91-3.56-1.77C20,31,20.61,30.81,21.06,30.57Zm0,3.72c-1.15-.48-1.14-.72-1.14-1.63.26.06,1.08.53,1.74.75,1.48.5,4.13,1.24,5.42,1.72l.18.09a2.65,2.65,0,0,0-.9.76C26,35.8,22,34.7,21,34.29Zm-4.2,36.45a7,7,0,0,1-3.38.49c-.4,0-.36-.81-.28-1.17a6.26,6.26,0,0,0,1.67.07,7,7,0,0,0,3.11-1A1.58,1.58,0,0,1,16.83,70.74Zm-1.15-1.43a6.52,6.52,0,0,1-.74.09,10.68,10.68,0,0,1-1.7,0c0-.28-.07-.16-.07-.34,0-.51.07-.46.07-.76a10.62,10.62,0,0,0,3.87-.5,4.34,4.34,0,0,0,1-.47C18.05,68.91,16.78,69.06,15.68,69.31ZM18,66.47c-.37,1.19-4,1.25-4.73,1.09a2.84,2.84,0,0,1-.07-.55c0-.31.06-.24.07-.55a6.2,6.2,0,0,1,.75,0,2.29,2.29,0,0,0,.63,0,12.73,12.73,0,0,0,3.54-.76A4.3,4.3,0,0,1,18,66.47Zm.28-1.79c-.32.51-.25.46-1,.77A4.09,4.09,0,0,1,16,65.7a23.06,23.06,0,0,1-2.5.06l-.07-.55a.63.63,0,0,1,.08-.34l.13-.28c1.62,0,3.33.14,4.91-.63A.91.91,0,0,1,18.32,64.68Zm.16-1.44c-.5.75-3.87.65-4.82.65a5.78,5.78,0,0,1,.14-1.17,7.48,7.48,0,0,1,.82,0c.22,0,1.71-.08,2.43-.08a8.55,8.55,0,0,0,1.73-.35A2.27,2.27,0,0,1,18.48,63.24ZM19,61.11a1,1,0,0,1-.74.7,20.38,20.38,0,0,1-4.36.21v-.41a2.05,2.05,0,0,1,.21-.62c.14-.18.3-.15.61-.15a18.13,18.13,0,0,0,3,0,13.38,13.38,0,0,1,1.34-.18A.84.84,0,0,1,19,61.11Zm-.65-1a14,14,0,0,1-3.07,0h-1c.12-.24,0-.3.1-.59s.13-.29.18-.51c.35,0,.36,0,.63-.07a2.39,2.39,0,0,1,.61.07c1.33,0,2.17,0,3.47-.07h.2C19.48,60,18.81,60.05,18.39,60.1ZM19.75,58l-.11.16c-.39.46-2.44.19-3,.18-.41,0-.5-.07-.89-.07h-1c0-.4,0-.41.11-.72s.17-.39.37-.38h1.66a7.05,7.05,0,0,1,.77.07H20A1.06,1.06,0,0,1,19.75,58Zm-.27-1.39h-.63l-2.47-.16a6,6,0,0,0-1.13,0c0-.51.19-1.06.57-1.16a33.73,33.73,0,0,1,4.55.27l.14.06C20.31,56.53,20.33,56.63,19.48,56.62ZM20.79,55c-1.44,0-3.87-.54-5-.28A1.3,1.3,0,0,1,16,54c.33-.56.11-.36.39-.45.83-.27,4.1.37,4.73.37C21.12,54.55,20.89,54.55,20.79,55Zm.62-1.66A15,15,0,0,1,19,53c-.44-.06-.73-.13-1.16-.16a5.49,5.49,0,0,0-1.45,0c.14-.3.09-.48.37-.8l.1-.11c.34-.33,1.45-.24,1.93-.18a22.61,22.61,0,0,1,2.93.61C21.76,53,21.51,52.93,21.41,53.3Zm.92-2c-.1.18-.19.28-.29.47-1.18-.27-3.46-1-4.92-.69,0-.4.26-.57.44-.81a1.25,1.25,0,0,0,.09-.12c.13-.17,0-.1.23-.18a9.13,9.13,0,0,1,3.25.35l1.39.41C22.43,50.93,22.44,51.09,22.33,51.3Zm.4-1.12c-.5-.12-1.06-.39-1.95-.61a8.1,8.1,0,0,0-2.2-.36h-.07a5.12,5.12,0,0,1-.56.07c0-.39.18-.45.37-.67.34-.39.15-.37,1-.37a8.32,8.32,0,0,1,2.14.29l1.8.61A1.44,1.44,0,0,1,22.73,50.18Zm.83-1.53c-.44-.23-1-.37-1.5-.57s-2.6-.82-3.34-.47c.09-.35.33-.43.47-.63l.11-.23c.28-.44,1.53-.18,2-.1a6.29,6.29,0,0,1,1.83.59,3.49,3.49,0,0,1,.38.1,3.19,3.19,0,0,1,.55.35A1.35,1.35,0,0,1,23.56,48.65Zm1.14-1.83c-.14.24-.16.09-.24.38l-1.39-.68a1.91,1.91,0,0,0-.46-.17c-.58-.15-2.11-.82-3-.4,0-.28,0-.18.18-.37.64-.78.55-.66,1.68-.66a11.3,11.3,0,0,1,2.79.88C24.75,46.11,25.1,46.16,24.7,46.82Zm1-1.61a1.47,1.47,0,0,1-.51.61c-.07-.18-.12-.16-.38-.32A9.11,9.11,0,0,0,22,44.3a3,3,0,0,0-1.37,0,1.34,1.34,0,0,1,.25-.37,1.19,1.19,0,0,1,1.13-.6,6.89,6.89,0,0,1,3.38,1.19C25.59,44.68,25.88,44.8,25.74,45.21Zm.45-.78-1.72-1.12a5.19,5.19,0,0,0-2.22-.61,2.71,2.71,0,0,0-.83.07c.65-1,1.2-.9,2.07-.9A7.24,7.24,0,0,1,26.14,43l.61.56C26.22,44.62,26.55,43.89,26.19,44.43Zm1-1.25c-.17-.11-.11-.09-.25-.23l-.21-.2a3.44,3.44,0,0,0-.46-.38l-.25-.16a2.71,2.71,0,0,0-.25-.17,5.28,5.28,0,0,0-3.22-.8,1.72,1.72,0,0,1,1.6-.83,5.59,5.59,0,0,1,1.34.33,4.13,4.13,0,0,1,2,1.32C27.83,42.51,27.43,42.89,27.23,43.18Zm1-1.24a5.19,5.19,0,0,0-1.82-1.5,4.37,4.37,0,0,0-2.61-.72,2.14,2.14,0,0,1,.57-.47,2.85,2.85,0,0,1,1.09-.15,4.2,4.2,0,0,1,3,1.59A.76.76,0,0,1,28.2,41.94Zm1-1.11A2.87,2.87,0,0,0,28,39.5l-.46-.31a4.47,4.47,0,0,0-2.46-.79c.14-.26.18-.36.49-.47a4.45,4.45,0,0,1,.76-.15A4.34,4.34,0,0,1,28.94,39l.21.2C29.68,39.67,29.9,40.32,29.17,40.83Zm1.45-1.54a1.57,1.57,0,0,1-.41.5,2.89,2.89,0,0,0-1.09-1.47,6.41,6.41,0,0,0-1.63-.93,2.47,2.47,0,0,0-1.36-.3,1.59,1.59,0,0,1,1.1-.48,4,4,0,0,1,1.57.3,3.71,3.71,0,0,1,1.1.71C30.15,37.86,31.06,38.61,30.62,39.29Zm1-.9-.33.36a3.55,3.55,0,0,0-.77-1.31l-.28-.27a4.33,4.33,0,0,0-3-1.26.64.64,0,0,1,.42-.3,2.29,2.29,0,0,1,1-.11,2.93,2.93,0,0,1,1.34.39,3.62,3.62,0,0,1,1.63,1.76A.81.81,0,0,1,31.65,38.39Zm1.11-.9a1.43,1.43,0,0,1-.33.36c-.11-.21-.13-.37-.23-.61a6,6,0,0,0-.33-.6,2.84,2.84,0,0,0-.8-.83A5.39,5.39,0,0,0,30,35.17a5.48,5.48,0,0,0-1.29-.37c.3-.4,1-.35,1.64-.25a2.52,2.52,0,0,1,1.4.67,2.4,2.4,0,0,1,.68.68C32.69,36.33,33.05,37.09,32.76,37.49Zm-.49-2.6A4.88,4.88,0,0,0,30.69,34l-.38-.23c-.11-.1,0,0-.1-.11.6-.05.69-.22,1.41,0a3.39,3.39,0,0,1,1.54,1A3.29,3.29,0,0,1,34,36.19c0,.17-.18.8-.55.9a4.2,4.2,0,0,0-.42-1.31A4.09,4.09,0,0,0,32.27,34.89ZM63,48.36a2.46,2.46,0,0,1-.74,1.84c-1.36,1.2-4.85,2.08-10.11,1.91a11.47,11.47,0,0,1-5-1.43c-1.45-1-1.35-1.88-1.43-3.32,0-.36-.19-4.41-.22-4.73,0,0,5.44,1.61,6.18,1.8a10.39,10.39,0,0,0,3.65.49c.28,0,.33,0,.67,0a10.36,10.36,0,0,0,3.63-1.08l3.74-1.59C63.29,42.48,63.05,46.91,63,48.36ZM86.19,31.91c-.71.44-26.42,11.32-28.12,11.92a8.38,8.38,0,0,1-2.4.46H53.9c-1.49,0-20.8-6.21-20.8-6.21l-.05,0a7.69,7.69,0,0,1,1.11-.69c.2.1,18.08,5.82,19.74,5.82h1.38a13.83,13.83,0,0,0,3.49-.68l28-12C86.79,31.33,86.91,31.46,86.19,31.91Zm.37-2C86,30.4,61.4,40.78,61.4,40.78a15,15,0,0,1-6.67,1.78c-2.14,0-4.36-.81-7.16-1.64l-6.21-2a3.38,3.38,0,0,0,2-.37l3.29-1.41a2.4,2.4,0,0,1,1.86-.3c.78,0,2.91.29,3.74.28a5.5,5.5,0,0,1,.9.07,55.11,55.11,0,0,0,7.7-.4c3.69-.53,10-1.84,12.12-5.2a2.81,2.81,0,0,0,.47-1.46c0-.33,0-.66,0-1s-.07-.48-.07-.89c0-1.34-.07-2.43-.07-3.75.31,0,11.11,3.39,12.19,3.81C86,28.58,87.39,29.29,86.56,29.93Z"/><path class="cls-2" d="M25,32.89c1,0,1.89-.41,1.89-.93S26.06,31,25,31s-1.89.42-1.89.93S24,32.89,25,32.89Z"/><path class="cls-2" d="M54.71,40.21c-1.21,0-2.18.48-2.18,1.08s1,1.07,2.18,1.07,2.18-.48,2.18-1.07S55.91,40.21,54.71,40.21Z"/><ellipse class="cls-2" cx="81.8" cy="29.82" rx="1.89" ry="0.93"/><path d="M30.55,85.21v8.4h-.9V89.17c0-.84,0-1.64.09-2.38h-.06c-.08.21-.29.65-.6,1.29l-.43.92-1.24,2.64h-.9L25.28,89l-.44-.92c-.31-.64-.51-1.08-.6-1.29h-.06c.06.74.09,1.54.09,2.38v4.44h-.9v-8.4h1l1.8,3.62c.23.48.49,1.1.8,1.87H27c.31-.77.58-1.39.81-1.87l1.8-3.62Z"/><path d="M33.4,93a2.7,2.7,0,0,1-.77-2V87.81a2.7,2.7,0,0,1,.77-2,3,3,0,0,1,2.13-.74,2.94,2.94,0,0,1,2.12.74,2.66,2.66,0,0,1,.77,2V91a2.66,2.66,0,0,1-.77,2,2.94,2.94,0,0,1-2.12.74A3,3,0,0,1,33.4,93ZM37,92.51A2.07,2.07,0,0,0,37.52,91V87.81A2.07,2.07,0,0,0,37,86.3a2,2,0,0,0-1.48-.53A2,2,0,0,0,34,86.3a2.12,2.12,0,0,0-.5,1.51V91a2.12,2.12,0,0,0,.5,1.51,1.94,1.94,0,0,0,1.49.53A1.92,1.92,0,0,0,37,92.51Z"/><path d="M40.51,85.21h2.26a3.38,3.38,0,0,1,2.21.64,2.2,2.2,0,0,1,.79,1.82v3.49A2.21,2.21,0,0,1,45,93a3.42,3.42,0,0,1-2.21.65H40.51Zm2.26,7.69a2.42,2.42,0,0,0,1.56-.45,1.63,1.63,0,0,0,.54-1.33V87.7a1.65,1.65,0,0,0-.54-1.34,2.38,2.38,0,0,0-1.56-.45H41.4v7Z"/><path d="M52.71,92.92v.69H47.85v-8.4h4.7v.68h-3.8V89H52.3v.68H48.75v3.24Z"/><path d="M59.12,92.9v.71H54.54v-8.4h.89V92.9Z"/><path d="M65.71,85.21v8.4h-.86V86.15l-1.66,1.16v-.92l1.66-1.18Z"/><path d="M68.48,93.13a2,2,0,0,1-.68-1.59V87.28a2,2,0,0,1,.67-1.59,2.94,2.94,0,0,1,3.56,0,2.08,2.08,0,0,1,.67,1.59v4.26A2,2,0,0,1,72,93.13a2.91,2.91,0,0,1-3.54,0Zm2.94-.49a1.44,1.44,0,0,0,.43-1.1V87.28a1.43,1.43,0,0,0-.42-1.1,1.94,1.94,0,0,0-2.36,0,1.43,1.43,0,0,0-.42,1.1v4.26a1.43,1.43,0,0,0,.42,1.1,1.7,1.7,0,0,0,1.18.39A1.65,1.65,0,0,0,71.42,92.64Z"/><path d="M76.48,85.21v8.4h-.86V86.15L74,87.31v-.92l1.66-1.18Z"/></g></svg>