<svg xmlns="http://www.w3.org/2000/svg" viewBox="0 0 83 71"><defs><style>.cls-1,.cls-2{fill:none;stroke:#000;stroke-miterlimit:10;}.cls-1{fill-rule:evenodd;}</style></defs><g id="Тарировка"><path class="cls-1" d="M18.62,17.74c-.33,1,3,3.42,4.44,3.64"/><line class="cls-2" x1="64.81" y1="12.98" x2="64.56" y2="13.02"/><line class="cls-2" x1="36" y1="50.4" x2="36.21" y2="65.54"/><line class="cls-2" x1="47.7" y1="65.54" x2="47.63" y2="50.32"/><polyline class="cls-1" points="66.17 26.88 66.02 22.38 65.99 21.64"/><line class="cls-2" x1="17.17" y1="22.72" x2="17.11" y2="27.22"/><path class="cls-1" d="M46,5c5.64.71,12.12,1.37,16.41,5.4,2,2,2.74,2.76,3.11,5.39L66,21.64"/><path class="cls-1" d="M21.7,16.46,20,16.83a2.12,2.12,0,0,0-1.73,1.92l-.44,4.47"/><path class="cls-1" d="M24.61,9.92c-3.19,1.84-3.79,4.09-4.12,6.81"/><path class="cls-1" d="M17.76,23.82a2.11,2.11,0,0,0,.09-.6"/><path class="cls-1" d="M18.22,19.4c-.35.05-1,2.76-1,3.32"/><path class="cls-1" d="M66.3,23.78l-.1-5.37a11.81,11.81,0,0,0-1.79-5.74l-.22-.24"/><path class="cls-1" d="M21.54,12.86l.25-2.26c.09-1,.58-1.17,1.37-1.62a23.2,23.2,0,0,1,6.45-2.57"/><path class="cls-1" d="M44.49,6A46,46,0,0,0,31.72,7.06"/><line class="cls-2" x1="31.5" y1="7.03" x2="30.32" y2="6.53"/><path class="cls-1" d="M31.5,7a.36.36,0,0,0,.22,0"/><path class="cls-1" d="M30.32,6.53a1.49,1.49,0,0,0-.71-.12"/><path class="cls-1" d="M44.49,6c.22,0,.59-.49.75-.65"/><path class="cls-1" d="M45.24,5.32A.93.93,0,0,1,46,5"/><line class="cls-2" x1="31.65" y1="37.27" x2="32.15" y2="46.36"/><line class="cls-2" x1="51.41" y1="46.23" x2="51.75" y2="37.11"/><path class="cls-1" d="M32.15,46.36a4.07,4.07,0,0,0,2,3.07c3.73,2.48,9.77,2.3,13.59.87,1.92-.88,3.49-1.84,3.72-4.1"/><path class="cls-1" d="M53.94,11.65a17.54,17.54,0,0,0-8-2.91,31.05,31.05,0,0,0-12,.77c-11.61,3.7-4.94,8.93,1.52,10.45a31.47,31.47,0,0,0,12.46-.09c3.51-.89,8.48-2.62,7.57-6A4.29,4.29,0,0,0,53.94,11.65Z"/><line class="cls-2" x1="23.37" y1="9.36" x2="24.61" y2="9.91"/><line class="cls-2" x1="59.19" y1="18.27" x2="61.49" y2="18.5"/><path class="cls-1" d="M49.18,22.42a21.38,21.38,0,0,0,10-4.15"/><line class="cls-2" x1="39.73" y1="23.09" x2="40.06" y2="24.18"/><path class="cls-1" d="M26.41,20.09a32.26,32.26,0,0,0,13.32,3"/><line class="cls-2" x1="24.24" y1="20.61" x2="26.41" y2="20.09"/><polyline class="cls-1" points="46.01 21.85 46.23 22.13 46.17 22.44 45.92 22.72 45.46 22.94 44.84 23.09 44.15 23.13 43.47 23.06 42.91 22.88 42.48 22.66 42.29 22.35 42.32 22.04 42.6 21.76 43.07 21.54 43.69 21.42 44.37 21.39 45.05 21.45 45.61 21.61 46.01 21.85"/><polyline class="cls-1" points="27.27 16.93 27.48 17.2 27.42 17.52 27.17 17.8 26.71 18.01 26.09 18.17 25.41 18.2 24.72 18.14 24.17 17.95 23.73 17.73 23.55 17.42 23.58 17.11 23.86 16.83 24.32 16.62 24.94 16.49 25.62 16.46 26.31 16.52 26.86 16.68 27.27 16.93"/><polyline class="cls-1" points="60.75 15.74 60.96 16.05 60.93 16.33 60.65 16.61 60.22 16.83 59.6 16.95 58.95 16.98 58.27 16.92 57.71 16.77 57.3 16.55 57.09 16.24 57.12 15.96 57.37 15.68 57.83 15.46 58.42 15.34 59.1 15.31 59.75 15.37 60.34 15.53 60.75 15.74"/><polyline class="cls-1" points="50.26 6.97 50.45 7.25 50.42 7.53 50.17 7.8 49.7 7.99 49.12 8.15 48.46 8.18 47.81 8.12 47.26 7.96 46.85 7.71 46.66 7.46 46.7 7.15 46.95 6.91 47.41 6.69 48 6.56 48.65 6.53 49.3 6.59 49.86 6.75 50.26 6.97"/><polyline class="cls-1" points="30.88 8.61 31.07 8.89 31 9.17 30.72 9.45 30.29 9.67 29.67 9.79 29.02 9.82 28.37 9.76 27.81 9.6 27.44 9.39 27.25 9.11 27.28 8.83 27.56 8.55 28.03 8.33 28.61 8.21 29.3 8.18 29.95 8.24 30.48 8.39 30.88 8.61"/><polyline class="cls-1" points="63.32 27 63.2 27.25 63.07 27.47 62.92 27.65 62.76 27.81"/><path class="cls-1" d="M23.81,30A1.68,1.68,0,0,1,23,29.3"/><path class="cls-1" d="M23.82,30a39.7,39.7,0,0,0,13.86,3.2"/><path class="cls-1" d="M38.85,33a3,3,0,0,1-1.17.26"/><path class="cls-1" d="M53.07,32a1.42,1.42,0,0,1-1.1-.06"/><path class="cls-1" d="M53.07,32a26.23,26.23,0,0,0,9.72-4.22"/><path class="cls-1" d="M66.17,26.88c-.21,3.18-2.12,4.83-4.49,6.51-6,3.44-11.79,4.37-18.52,4.72-6.55.08-25.58-1.39-26-10.89"/><path class="cls-1" d="M52,31.93a1.68,1.68,0,0,1-.9-1.24"/><path class="cls-1" d="M40.12,26.75l-.37,4.81a1.58,1.58,0,0,1-.9,1.4"/><path class="cls-1" d="M40.15,25.36a22.87,22.87,0,0,0,10.05-.93"/><path class="cls-1" d="M40.06,24.18a12.28,12.28,0,0,1,.06,2.57"/><path class="cls-1" d="M26.38,20.12a4.53,4.53,0,0,0-.59,1.7"/><path class="cls-1" d="M26.43,28.41A35,35,0,0,0,38.14,31"/><path class="cls-1" d="M25.79,21.82l0,5.43a1.27,1.27,0,0,0,.67,1.16"/><path class="cls-1" d="M39.16,30.23c0-2.35.35-4.76.56-7.1"/><path class="cls-1" d="M39.16,30.23c0,.47-.48.77-1,.77"/><line class="cls-2" x1="26.19" y1="28.25" x2="23.16" y2="29.48"/><path class="cls-1" d="M51.07,30.69A62.49,62.49,0,0,0,50,23.22"/><path class="cls-1" d="M46.1,22.56a2.85,2.85,0,0,0-3.65,0"/><path class="cls-1" d="M27.36,17.63a2.87,2.87,0,0,0-3.66,0"/><polyline class="cls-1" points="60.06 19.9 60.03 19.68 59.94 19.43 59.75 19.06 59.57 18.75 59.48 18.6 59.38 18.47 59.29 18.38 59.2 18.29"/><path class="cls-1" d="M51.84,29.91a23.48,23.48,0,0,0,8-3.4"/><polyline class="cls-1" points="59.88 26.51 59.97 26.45 60.06 26.32 60.13 26.17 60.19 26.01 60.25 25.86 60.28 25.67 60.31 25.48 60.31 25.3 60.06 19.9"/><path class="cls-1" d="M53.92,12.08C50.79,9.54,44.1,9,42.4,9a39.71,39.71,0,0,0-8.54.95c-2.31.71-6,2.34-6.17,5.15"/><path class="cls-1" d="M55.52,14.85a3.72,3.72,0,0,0-1.6-2.77"/><path class="cls-1" d="M23,29.3a3,3,0,0,1-.49-1.68l0-4.87a2.23,2.23,0,0,1,1.67-2.14"/><path class="cls-1" d="M61.49,18.5a2.21,2.21,0,0,1,1.89,2"/><polyline class="cls-1" points="63.38 20.46 63.6 25.3 63.6 25.73 63.54 26.17 63.45 26.6 63.32 27"/><path class="cls-1" d="M60.83,16.47a2.9,2.9,0,0,0-3.61,0"/><path class="cls-1" d="M22.33,16.24a2.22,2.22,0,0,1-.63.22"/><path class="cls-1" d="M66.2,18.41h.1a.09.09,0,0,0-.1-.09.09.09,0,1,0,0,.18.09.09,0,0,0,.1-.09Z"/><path class="cls-1" d="M30.91,9.31a2.88,2.88,0,0,0-3.51,0"/><path class="cls-1" d="M66.3,23.78a.24.24,0,0,1-.21.24"/><path class="cls-1" d="M50.31,7.65a2.85,2.85,0,0,0-3.5,0"/><polyline class="cls-1" points="45.36 43.13 45.55 43.26 45.77 43.32 45.98 43.32 46.23 43.29 46.45 43.22 46.66 43.1 46.85 42.95 47.04 42.73 47.16 42.54 47.29 42.29 47.35 42.08 47.38 41.83 47.35 41.61 47.29 41.42 47.19 41.24 47.07 41.12 46.88 41.02 46.7 40.96 46.48 40.96 46.26 40.99 46.01 41.05 45.8 41.18 45.58 41.33 45.39 41.52 45.24 41.7 45.12 41.92 45.05 42.14 45.02 42.39 45.05 42.6 45.12 42.82 45.21 42.98 45.36 43.13"/><path class="cls-1" d="M66,22.38a6.8,6.8,0,0,1-2.08,4.56c-6.67,5.91-17.39,6.69-25.68,6.48C32.46,33,27.31,32.05,22,29.24c-2.43-1.64-4.68-3.28-4.84-6.52"/><path class="cls-1" d="M49.18,22.44c.27,0,.65.56.77.78"/><path class="cls-1" d="M51,29.51c.1.44.48.45.83.41"/><path class="cls-1" d="M62.79,19.16a5.42,5.42,0,0,0,2.14-5.58"/><path class="cls-1" d="M17.41,24.06a.42.42,0,0,0,.36-.25"/><path class="cls-1" d="M66.2,18.41c0,.23-.32.28-.47.31"/><path class="cls-1" d="M23.37,9.36a1,1,0,0,0-1,.09"/></g></svg>