<svg xmlns="http://www.w3.org/2000/svg" viewBox="0 0 100 100"><defs><style>.cls-1,.cls-2{fill:none;stroke:#fff;stroke-linecap:round;stroke-linejoin:round;stroke-width:0.75px;}.cls-2{fill-rule:evenodd;}.cls-3{fill:#fff;}</style></defs><g id="Тарировка"><line class="cls-1" x1="47.7" y1="45.05" x2="47.75" y2="48.24"/><line class="cls-1" x1="63.41" y1="48.35" x2="63.64" y2="43.91"/><polyline class="cls-2" points="47.81 48.3 47.81 48.53 47.87 48.75 47.92 48.98 48.04 49.21 48.27 49.61 48.61 49.95 48.95 50.29 49.41 50.58 49.86 50.86 50.43 51.09 50.83 51.26 51.28 51.37 51.74 51.49 52.2 51.6 53.22 51.83 54.25 51.94 55.33 52 56.41 52 57.49 51.88 58.52 51.77 59.48 51.54 59.94 51.43 60.4 51.26 60.79 51.15 61.19 50.97 61.53 50.8 61.88 50.58 62.22 50.35 62.5 50.12 62.73 49.89 62.96 49.61 63.13 49.32 63.3 49.04 63.41 48.7 63.41 48.53 63.41 48.35"/><polyline class="cls-2" points="34.66 21.14 34.54 21.19 32.24 22.29"/><line class="cls-1" x1="77.82" y1="21.42" x2="75.03" y2="19.88"/><polyline class="cls-2" points="36.76 32.01 36.94 31.95 37.16 31.95 37.39 32.01 37.62 32.07 37.85 32.18 38.13 32.35 38.36 32.58 38.59 32.81 38.81 33.09 38.98 33.44 39.16 33.78 39.33 34.12 39.44 34.52 39.5 34.86 39.55 35.26 39.55 35.6 39.27 41.52"/><polyline class="cls-2" points="36.59 25.58 36.54 25.64 36.37 25.75 36.14 25.86 35.85 25.98 33.41 27 33.18 27.17 33.01 27.4 32.89 27.91 32.72 30.82 32.55 31.61 32.4 31.84"/><polyline class="cls-2" points="31.75 25.07 31.7 25.18 31.58 25.35 31.41 25.58 31.3 25.75 31.01 26.15 30.9 26.32 30.79 26.43 30.56 26.72 30.33 26.89 30.05 27.11 29.76 27.4 29.42 27.68 28.79 28.2 28.11 28.71 27.77 28.88 27.43 29.11"/><polyline class="cls-2" points="82.2 28.48 81.81 28.31 81.41 28.14 80.72 27.63 80.04 27.11 79.41 26.55 78.84 25.92 78.28 25.24 77.88 24.55 77.48 23.87"/><line class="cls-1" x1="77.99" y1="21.53" x2="77.76" y2="21.42"/><line class="cls-1" x1="27.43" y1="29.11" x2="26.12" y2="29.73"/><path class="cls-2" d="M26.16,29.69a.57.57,0,0,0-.32.44"/><line class="cls-1" x1="25.83" y1="30.19" x2="25.72" y2="30.87"/><line class="cls-1" x1="36.02" y1="22.33" x2="36.06" y2="22.56"/><line class="cls-1" x1="83.46" y1="29.11" x2="82.2" y2="28.48"/><polyline class="cls-2" points="75.2 20 74.92 19.83 74.57 19.71"/><path class="cls-2" d="M83.81,29.51a.63.63,0,0,0-.35-.47"/><polyline class="cls-2" points="23.89 27.8 23.55 27.91 23.27 28.08 22.98 28.25 22.76 28.48 22.53 28.71 22.41 28.94 22.3 29.22 22.24 29.51"/><line class="cls-1" x1="83.86" y1="30.08" x2="83.81" y2="29.51"/><line class="cls-1" x1="22.24" y1="29.51" x2="21.85" y2="33.55"/><polyline class="cls-2" points="84.03 30.19 83.97 30.19 83.91 30.19 83.86 30.13 83.86 30.08"/><line class="cls-1" x1="73.49" y1="21.25" x2="73.49" y2="20.97"/><polyline class="cls-2" points="87.5 32.92 87.22 28.94 87.16 28.6 87.05 28.31 86.87 28.08 86.65 27.86 86.42 27.63 86.14 27.4 85.79 27.23 85.45 27.11"/><line class="cls-1" x1="74.57" y1="19.71" x2="59.54" y2="13.62"/><line class="cls-1" x1="27.25" y1="24.78" x2="26" y2="25.35"/><polyline class="cls-2" points="25.6 26.38 25.55 26.6 25.43 26.77 25.32 26.94 25.2 27.06 25.09 27.17 24.94 27.26 24.69 27.4 23.89 27.8"/><path class="cls-2" d="M26,25.35a.59.59,0,0,0-.33.46"/><line class="cls-1" x1="25.66" y1="25.81" x2="25.6" y2="26.38"/><line class="cls-1" x1="83.34" y1="24.67" x2="82.09" y2="23.98"/><polyline class="cls-2" points="85.45 27.11 84.6 26.77 84.37 26.6 84.08 26.38 83.97 26.26 83.86 26.09 83.78 25.9 83.74 25.75"/><path class="cls-2" d="M83.63,25.09a.57.57,0,0,0-.31-.44"/><line class="cls-1" x1="83.74" y1="25.75" x2="83.63" y2="25.09"/><line class="cls-1" x1="52.82" y1="13.56" x2="52.65" y2="13.62"/><line class="cls-1" x1="59.54" y1="13.62" x2="59.37" y2="13.51"/><line class="cls-1" x1="50.32" y1="51.03" x2="50.32" y2="72.19"/><line class="cls-1" x1="60.79" y1="72.24" x2="60.79" y2="51.09"/><polyline class="cls-2" points="13.99 48.64 13.82 48.87 13.65 49.04 13.47 49.32 13.36 49.55"/><polyline class="cls-2" points="15.18 47.05 14.96 47.27 14.79 47.44 14.61 47.73 14.44 47.96"/><polyline class="cls-2" points="16.44 45.51 16.21 45.73 15.98 45.91 15.81 46.13 15.7 46.36"/><polyline class="cls-2" points="17.69 44.08 17.46 44.26 17.23 44.43 17.06 44.65 16.89 44.94"/><polyline class="cls-2" points="19.05 42.72 18.54 43.06 18.37 43.29 18.2 43.52"/><polyline class="cls-2" points="20.42 41.41 20.14 41.58 19.91 41.75 19.74 41.98 19.51 42.2"/><polyline class="cls-2" points="21.84 40.21 21.56 40.38 21.28 40.55 21.05 40.73 20.88 40.95"/><polyline class="cls-2" points="23.27 39.13 22.98 39.24 22.76 39.41 22.53 39.59 22.3 39.81"/><polyline class="cls-2" points="24.75 38.1 24.46 38.22 24.24 38.39 23.95 38.56 23.72 38.79"/><polyline class="cls-2" points="26.29 37.25 26 37.37 25.72 37.48 25.43 37.59 25.2 37.82"/><polyline class="cls-2" points="27.82 36.45 27.54 36.57 27.25 36.63 26.97 36.8 26.74 36.97"/><polyline class="cls-2" points="29.42 35.83 29.08 35.88 28.73 35.94 28.45 36.05 28.17 36.28"/><polyline class="cls-2" points="29.76 41.35 30.16 41.24 30.33 41.12 30.44 41.01"/><polyline class="cls-2" points="28.56 41.98 28.79 41.92 29.02 41.75 29.25 41.64 29.42 41.41"/><polyline class="cls-2" points="27.31 42.72 27.54 42.66 27.71 42.55 28.05 42.26"/><polyline class="cls-2" points="26.06 43.57 26.34 43.46 26.57 43.29 26.74 43.12 26.91 42.89"/><polyline class="cls-2" points="24.92 44.48 25.32 44.26 25.49 44.08 25.6 43.91"/><polyline class="cls-2" points="23.72 45.51 23.95 45.34 24.18 45.17 24.35 44.99 24.46 44.77"/><polyline class="cls-2" points="22.59 46.59 22.93 46.3 23.21 45.96"/><polyline class="cls-2" points="21.39 47.84 21.62 47.67 21.79 47.44 21.96 47.22 22.13 46.99"/><polyline class="cls-2" points="20.36 49.04 20.54 48.87 20.71 48.7 20.99 48.24"/><polyline class="cls-2" points="19.28 50.35 19.57 50.06 19.8 49.66"/><polyline class="cls-2" points="18.2 51.83 18.54 51.43 18.66 51.26 18.77 51.03"/><polyline class="cls-2" points="17.75 52.51 18.03 52.17 18.14 51.94 18.26 51.77"/><polyline class="cls-2" points="18.77 51.03 19.05 50.75 19.28 50.35"/><polyline class="cls-2" points="19.8 49.72 20.02 49.49 20.14 49.32 20.42 48.87"/><polyline class="cls-2" points="20.88 48.41 21.22 48.07 21.5 47.73"/><polyline class="cls-2" points="22.02 47.16 22.36 46.87 22.47 46.76 22.59 46.53"/><polyline class="cls-2" points="23.16 46.02 23.5 45.79 23.67 45.62 23.78 45.39"/><polyline class="cls-2" points="24.35 44.99 24.69 44.71 25.03 44.37"/><polyline class="cls-2" points="25.49 44.03 25.89 43.8 26.12 43.52"/><polyline class="cls-2" points="26.74 43.12 26.91 43 27.14 42.89 27.43 42.6"/><polyline class="cls-2" points="27.88 42.38 28.28 42.2 28.45 42.09 28.62 41.92"/><polyline class="cls-2" points="29.13 41.69 29.42 41.58 29.65 41.47 30.05 41.12"/><polyline class="cls-2" points="30.33 41.07 30.61 41.01 30.84 40.9 31.07 40.78 31.3 40.61"/><polyline class="cls-2" points="28.62 36.11 28.28 36.17 27.94 36.28 27.65 36.45 27.37 36.63"/><polyline class="cls-2" points="27.08 36.85 26.74 36.91 26.46 37.02 26.17 37.19 25.95 37.37"/><polyline class="cls-2" points="25.55 37.65 25.26 37.76 24.98 37.88 24.69 38.05 24.46 38.28"/><polyline class="cls-2" points="24.01 38.62 23.72 38.73 23.44 38.9 23.21 39.07 22.98 39.3"/><polyline class="cls-2" points="22.53 39.64 22.3 39.81 22.02 39.93 21.79 40.16 21.62 40.38"/><polyline class="cls-2" points="21.11 40.78 20.82 40.95 20.59 41.12 20.36 41.35 20.19 41.58"/><polyline class="cls-2" points="19.74 42.03 19.45 42.2 19.23 42.38 19.05 42.6 18.83 42.83"/><polyline class="cls-2" points="18.37 43.4 18.14 43.57 17.92 43.74 17.75 43.97 17.57 44.2"/><polyline class="cls-2" points="17.06 44.77 16.61 45.17 16.44 45.39 16.27 45.62"/><polyline class="cls-2" points="15.81 46.25 15.58 46.48 15.35 46.65 15.24 46.93 15.07 47.16"/><polyline class="cls-2" points="14.56 47.84 14.33 48.07 14.16 48.3 13.99 48.53 13.87 48.81"/><polyline class="cls-2" points="13.42 49.44 13.25 49.66 13.08 49.89 12.9 50.12 12.79 50.41"/><polyline class="cls-2" points="35.4 33.32 35.06 33.38 34.77 33.44 34.54 33.55 34.26 33.66"/><polyline class="cls-2" points="34.03 33.89 33.75 33.89 33.46 34.01 33.18 34.12 32.95 34.23"/><polyline class="cls-2" points="32.66 34.46 32.38 34.46 32.09 34.52 31.87 34.63 31.58 34.8"/><polyline class="cls-2" points="31.36 35.03 31.07 35.03 30.79 35.09 30.5 35.2 30.27 35.37"/><polyline class="cls-2" points="29.99 35.54 29.7 35.6 29.42 35.66 29.19 35.77 28.91 35.94"/><polyline class="cls-2" points="36.99 38.28 37.28 38.22 37.56 38.1 37.79 37.93 38.02 37.76"/><polyline class="cls-2" points="35.68 38.84 35.97 38.79 36.2 38.67 36.48 38.5 36.71 38.33"/><polyline class="cls-2" points="34.32 39.41 34.6 39.36 34.88 39.24 35.11 39.07 35.34 38.9"/><polyline class="cls-2" points="32.95 39.98 33.23 39.93 33.52 39.81 33.75 39.64 33.97 39.47"/><polyline class="cls-2" points="31.64 40.55 31.92 40.44 32.15 40.38 32.44 40.21 32.66 40.04"/><polyline class="cls-2" points="38.36 37.71 38.64 37.65 38.93 37.54 39.16 37.37 39.38 37.19"/><polyline class="cls-2" points="36.76 32.75 36.42 32.81 36.14 32.87 35.85 32.98 35.63 33.09"/><polyline class="cls-2" points="36.31 38.56 36.59 38.5 36.88 38.39 37.11 38.22 37.39 38.05"/><polyline class="cls-2" points="35 39.13 35.28 39.07 35.57 38.96 35.8 38.79 36.02 38.62"/><polyline class="cls-2" points="33.63 39.7 33.92 39.64 34.2 39.53 34.43 39.36 34.66 39.19"/><polyline class="cls-2" points="32.32 40.27 32.61 40.21 32.84 40.1 33.12 39.93 33.35 39.76"/><polyline class="cls-2" points="30.96 40.84 31.24 40.73 31.53 40.61 31.75 40.5 31.98 40.27"/><polyline class="cls-2" points="36.02 33.04 35.74 33.09 35.45 33.15 35.23 33.27 35 33.38"/><polyline class="cls-2" points="34.66 33.61 34.37 33.66 34.09 33.72 33.86 33.83 33.58 33.95"/><polyline class="cls-2" points="33.29 34.18 33.01 34.18 32.78 34.29 32.49 34.4 32.27 34.52"/><polyline class="cls-2" points="31.98 34.75 31.7 34.75 31.41 34.86 31.13 34.97 30.9 35.09"/><polyline class="cls-2" points="30.61 35.31 30.33 35.31 30.05 35.37 29.82 35.49 29.59 35.66"/><polyline class="cls-2" points="37.56 32.41 37.22 32.47 36.88 32.52 36.59 32.64 36.31 32.87"/><polyline class="cls-2" points="39.44 38.33 39.1 38.39 38.76 38.39 38.42 38.33 38.07 38.16 37.73 37.99 38.02 37.93 38.24 37.82 38.47 37.65 38.7 37.48"/><line class="cls-1" x1="39.33" y1="40.21" x2="36.08" y2="38.9"/><polyline class="cls-2" points="27.25 24.78 28.05 24.38 28.85 24.04 29.53 23.7 30.22 23.36 30.84 23.02 31.41 22.73 31.87 22.5 32.27 22.27 32.38 22.22"/><polyline class="cls-2" points="77.99 21.54 78.39 21.82 78.84 22.1 79.3 22.39 79.81 22.67 80.33 23.02 80.89 23.36 81.46 23.64 82.09 23.98"/><line class="cls-1" x1="59.03" y1="39.53" x2="83.46" y2="29.28"/><polyline class="cls-2" points="74.92 22.56 74.75 22.62 56.92 30.08 56.65 30.19 56.01 30.36 55.21 30.48 54.36 30.59 53.45 30.59 52.59 30.59 51.68 30.53 50.89 30.42 50.15 30.25 49.86 30.13 48.1 29.45"/><polyline class="cls-2" points="52.82 13.56 53.16 13.39 53.51 13.28 53.9 13.16 54.3 13.11 55.21 12.99 56.07 12.94 56.98 12.99 57.83 13.11 58.23 13.16 58.69 13.28 59.03 13.39 59.2 13.45 59.37 13.51"/><polyline class="cls-2" points="34.49 21.22 34.66 21.14 34.83 21.08 52.65 13.62"/><polyline class="cls-2" points="36.65 24.72 34.88 24.04 34.66 23.93"/><polyline class="cls-2" points="59.03 38.39 59.03 37.88 58.97 37.37 58.86 36.91 58.69 36.4 58.52 35.88 58.29 35.37 58 34.92 57.72 34.4 57.43 33.95 57.09 33.49 56.69 33.04 56.3 32.64 55.84 32.24 55.33 31.95 55.04 31.84 54.76 31.73 54.47 31.67 54.19 31.61 53.9 31.61 53.62 31.61 53.34 31.67 53.05 31.79 52.77 31.9 52.48 32.01 52.25 32.18 52.02 32.35 51.63 32.75 51.23 33.15 50.89 33.66 50.6 34.18 50.37 34.63 50.15 35.14 49.98 35.66 49.8 36.23 49.63 36.74 49.58 37.25 49.52 37.76 49.52 38.28"/><polyline class="cls-2" points="49.52 38.28 49.58 39.53 49.69 39.13 49.98 38.73 50.43 38.39 51.11 38.05 51.85 37.82 52.77 37.65 53.73 37.59 54.7 37.59 55.67 37.65 56.58 37.82 57.38 38.05 58.06 38.39 58.57 38.73 58.86 39.13 58.97 39.53"/><polyline class="cls-2" points="50.6 46.25 51.11 46.42 51.68 46.59 52.31 46.7 52.99 46.82 53.62 46.87 54.3 46.87 54.99 46.87 55.67 46.82 56.3 46.7 56.92 46.59 57.49 46.42 58 46.25"/><polyline class="cls-2" points="25.72 30.87 25.6 31.21 25.27 31.41 24.92 31.5 24.46 31.39 23.78 31.16"/><line class="cls-1" x1="39.44" y1="41.69" x2="50.6" y2="46.25"/><line class="cls-1" x1="23.44" y1="35.14" x2="27.14" y2="36.68"/><polyline class="cls-2" points="33.97 39.47 34.15 39.53 34.6 39.7"/><polyline class="cls-2" points="51.06 41.41 51.51 41.58 52.02 41.75 52.54 41.86 53.16 41.92 53.73 41.98 54.36 41.98 54.93 41.98 55.55 41.92 56.13 41.86 56.64 41.75 57.16 41.62 57.6 41.47"/><polyline class="cls-2" points="53.11 40.5 53.56 40.67 54.08 40.73 54.64 40.73 55.16 40.61 55.55 40.5 55.84 40.27 55.95 40.04 55.9 39.81 55.61 39.64 55.21 39.47 54.76 39.36 54.19 39.3 53.62 39.36 53.16 39.47 52.82 39.64 52.59 39.87 52.59 40.1 52.77 40.33 53.11 40.5"/><line class="cls-1" x1="57.61" y1="41.46" x2="58.4" y2="41.07"/><line class="cls-1" x1="50.2" y1="41.07" x2="51.06" y2="41.41"/><line class="cls-1" x1="58" y1="46.25" x2="86.02" y2="34.52"/><polyline class="cls-2" points="48.1 29.45 47.87 29.34 47.64 29.28 47.07 29.22 46.45 29.22 45.88 29.28 45.36 29.39 44.85 29.51 44.4 29.62 43.94 29.79 42.29 30.48"/><line class="cls-1" x1="33.92" y1="27.06" x2="42" y2="30.36"/><path class="cls-2" d="M51,29.41a7.29,7.29,0,0,0,4.94,0"/><polyline class="cls-2" points="55.84 29.45 73.66 21.99 74.12 21.76 74.4 21.54 74.63 21.25 74.69 20.96 74.57 20.68 74.4 20.4 74.06 20.17 73.62 19.87 58.64 13.77"/><path class="cls-2" d="M58.68,13.77a7.4,7.4,0,0,0-5,.08"/><polyline class="cls-2" points="53.68 13.85 35.85 21.31 35.45 21.54 35.11 21.76 34.94 22.05 34.88 22.33 34.94 22.62 35.17 22.9 35.51 23.13 35.91 23.36 50.94 29.45"/><polyline class="cls-2" points="49.6 40.09 49.63 40.33 49.73 40.56 49.84 40.74 49.98 40.9 50.09 41.01 50.2 41.07"/><polyline class="cls-2" points="58.4 41.07 58.52 41.01 58.63 40.9 58.85 40.63 58.95 40.33 58.97 40.21 58.97 40.1"/><polyline class="cls-2" points="49.58 39.47 49.6 40.16 49.58 39.53"/><polyline class="cls-2" points="59.03 39.47 59.03 38.56 59.03 38.39"/><polyline class="cls-2" points="58.95 40.35 58.99 39.95 58.97 39.45"/><polyline class="cls-2" points="42.69 34.63 42.63 35.26 42.63 35.6 42.63 35.88 42.69 36.23 42.8 36.51 42.97 36.74 43.09 36.85 43.14 36.91"/><polyline class="cls-2" points="42.69 34.63 42.86 31.79 42.74 31.16 42.57 30.82 42.46 30.65 42.17 30.42 42 30.36"/><line class="cls-1" x1="53.68" y1="14.08" x2="35.85" y2="21.59"/><path class="cls-2" d="M58.68,14.05a7.35,7.35,0,0,0-4.94,0"/><line class="cls-1" x1="73.61" y1="20.23" x2="58.63" y2="14.08"/><path class="cls-2" d="M74.69,21.12a1.52,1.52,0,0,0-1-.91"/><path class="cls-2" d="M35.86,21.52a1.48,1.48,0,0,0-1,.88"/><path class="cls-2" d="M72.87,21.91a.9.9,0,0,0,.66-.67"/><path class="cls-2" d="M36.06,22.56a.93.93,0,0,0,.73.67"/><line class="cls-1" x1="36.76" y1="23.24" x2="51.74" y2="29.39"/><path class="cls-2" d="M51.78,29.33a4.74,4.74,0,0,0,3.28,0"/><line class="cls-1" x1="55.04" y1="29.39" x2="72.87" y2="21.93"/><path class="cls-2" d="M51.74,29.11a4.92,4.92,0,0,0,3.3,0"/><line class="cls-1" x1="55.04" y1="29.11" x2="72.87" y2="21.65"/><polyline class="cls-2" points="54.53 14.19 36.71 21.65 36.42 21.76 36.2 21.93 36.08 22.16 36.02 22.33 36.1 22.52 36.25 22.67 36.42 22.84 36.76 23.02 51.74 29.11"/><path class="cls-2" d="M57.85,14.19a4.86,4.86,0,0,0-3.28,0"/><polyline class="cls-2" points="72.87 21.65 73.15 21.48 73.32 21.36 73.49 21.14 73.49 20.96 73.44 20.8 73.32 20.62 73.09 20.45 72.81 20.28 57.83 14.19"/><polyline class="cls-2" points="37.05 31.95 36.82 32.13 36.65 32.35 36.48 32.64"/><polyline class="cls-2" points="39.27 41.52 39.27 41.58 39.33 41.64 39.38 41.64 39.44 41.69"/><polyline class="cls-2" points="34.6 39.7 34.77 39.76 34.88 39.76 35.11 39.76 35.23 39.76 35.34 39.76 35.45 39.7 36.02 39.47 36.08 38.73"/><polyline class="cls-2" points="26.4 29.62 26.23 29.56 26 29.34 25.89 29.11 26 28.88 26.29 28.71 26.68 28.54 27.2 28.43 27.77 28.43 28.28 28.48 28.34 28.54"/><line class="cls-1" x1="27.57" y1="27.4" x2="24.84" y2="27.46"/><polyline class="cls-2" points="83.06 27.97 83.34 28.14 83.51 28.37 83.51 28.6 83.34 28.82 83.12 28.94"/><path class="cls-2" d="M83,28a3.62,3.62,0,0,0-2-.12"/><line class="cls-1" x1="84.6" y1="26.77" x2="81.78" y2="26.72"/><line class="cls-1" x1="84.54" y1="30.19" x2="85.34" y2="29.85"/><polyline class="cls-2" points="21.84 33.55 21.86 33.78 21.96 34.06 22.13 34.29 22.36 34.52 22.64 34.75 23.04 34.97 23.44 35.14"/><polyline class="cls-2" points="86.02 34.52 86.42 34.29 86.76 34.12 87.05 33.89 87.27 33.66 87.44 33.44 87.5 33.15 87.5 32.92"/><polyline class="cls-2" points="13.42 49.49 13.47 49.44 13.53 49.38 13.7 49.38 13.82 49.32 14.16 49.38 14.5 49.44 14.9 49.55 15.35 49.72 15.81 49.89 16.27 50.12 16.66 50.35 17.06 50.63 17.46 50.86 17.75 51.09 17.97 51.32 18.14 51.54 18.2 51.6 18.26 51.66 18.26 51.77"/><polyline class="cls-2" points="14.56 47.9 14.73 47.78 14.84 47.73 15.01 47.73 15.3 47.73 15.7 47.78 16.09 47.9 16.55 48.07 17 48.3 17.4 48.53 17.86 48.81 18.2 49.09 18.54 49.32 18.83 49.61 19.05 49.84 19.23 50.06 19.28 50.18 19.34 50.23 19.28 50.29 19.28 50.35"/><polyline class="cls-2" points="15.75 46.3 15.87 46.25 15.92 46.19 16.27 46.13 16.61 46.13 16.95 46.25 17.35 46.36 17.8 46.53 18.2 46.76 18.66 47.05 19.05 47.33 19.4 47.62 19.74 47.9 20.02 48.18 20.19 48.47 20.36 48.7 20.36 48.75 20.36 48.87 20.36 48.98"/><polyline class="cls-2" points="17.06 44.83 17.23 44.71 17.4 44.65 17.52 44.65 17.86 44.65 18.26 44.77 18.66 44.88 19.11 45.11 19.51 45.34 19.91 45.62 20.31 45.91 20.65 46.19 20.93 46.53 21.22 46.82 21.39 47.1 21.5 47.39 21.5 47.5 21.56 47.62 21.5 47.67 21.45 47.73"/><polyline class="cls-2" points="18.26 43.46 18.37 43.34 18.49 43.29 18.83 43.23 19.17 43.29 19.51 43.34 19.91 43.46 20.36 43.69 20.76 43.91 21.16 44.2 21.56 44.54 21.9 44.88 22.19 45.22 22.41 45.56 22.59 45.85 22.7 46.13 22.7 46.25 22.7 46.36 22.64 46.53"/><line class="cls-1" x1="22.59" y1="46.53" x2="22.59" y2="46.59"/><polyline class="cls-2" points="19.68 42.09 19.8 41.98 19.97 41.92 20.08 41.92 20.25 41.92 20.65 41.98 20.99 42.09 21.45 42.2 21.84 42.43 22.24 42.72 22.59 43 22.93 43.34 23.27 43.69 23.5 44.08 23.72 44.43 23.84 44.71 23.89 44.99 23.89 45.11 23.89 45.22 23.84 45.34 23.78 45.39"/><polyline class="cls-2" points="20.93 40.95 20.93 40.9 20.99 40.9"/><polyline class="cls-2" points="21.11 40.84 21.39 40.73 21.56 40.73 21.73 40.73 22.07 40.78 22.47 40.9 22.93 41.07 23.33 41.29 23.72 41.64 24.07 41.98 24.41 42.32 24.64 42.72 24.86 43.06 25.03 43.46 25.09 43.74 25.15 44.03 25.15 44.2 25.09 44.31 25.03 44.37 24.98 44.43"/><polyline class="cls-2" points="22.53 39.7 22.64 39.59 22.81 39.59 23.16 39.59 23.55 39.64 23.95 39.76 24.29 39.98 24.69 40.21 25.09 40.5 25.43 40.84 25.72 41.24 25.95 41.58 26.17 41.98 26.29 42.38 26.4 42.72 26.4 43 26.4 43.17 26.34 43.29 26.29 43.34 26.23 43.46"/><polyline class="cls-2" points="24.01 38.67 24.18 38.62 24.29 38.56 24.52 38.56 24.69 38.56 25.09 38.62 25.43 38.79 25.83 39.02 26.23 39.3 26.57 39.64 26.91 39.98 27.14 40.38 27.37 40.78 27.54 41.18 27.65 41.58 27.65 41.92 27.65 42.2 27.65 42.38 27.6 42.49 27.48 42.6 27.43 42.66"/><polyline class="cls-2" points="25.32 37.76 25.49 37.65 25.66 37.65 25.83 37.59 26 37.65 26.4 37.71 26.8 37.82 27.2 38.05 27.54 38.33 27.88 38.67 28.22 39.02 28.51 39.41 28.73 39.87 28.85 40.27 28.96 40.67 28.96 41.07 28.96 41.41 28.91 41.52 28.85 41.64 28.68 41.86"/><polyline class="cls-2" points="27.03 36.85 27.2 36.8 27.37 36.8 27.54 36.8 27.77 36.85 28.11 36.97 28.51 37.19 28.85 37.42 29.19 37.71 29.53 38.1 29.76 38.45 29.99 38.9 30.16 39.3 30.27 39.7 30.33 40.1 30.27 40.44 30.22 40.78 30.16 40.95 30.1 41.07 29.99 41.18 29.93 41.24"/><polyline class="cls-2" points="28.62 36.17 28.79 36.11 29.02 36.11 29.25 36.17 29.48 36.23 29.93 36.45 30.33 36.74 30.73 37.14 31.07 37.59 31.3 38.1 31.53 38.62"/><polyline class="cls-2" points="30.44 41.01 30.56 40.95 30.67 40.84 30.79 40.73 30.84 40.55 30.9 40.27 30.96 39.93 30.96 39.53 30.9 39.07 30.73 38.67 30.56 38.22 30.27 37.82 29.99 37.48 29.65 37.14 29.3 36.85 28.91 36.63 28.56 36.51 28.34 36.45 28.17 36.45 28 36.45 27.82 36.51"/><polyline class="cls-2" points="29.3 41.52 29.42 41.47 29.48 41.35 29.53 41.24 29.59 41.07 29.65 40.73 29.65 40.38 29.59 39.98 29.42 39.53 29.25 39.13 28.96 38.73 28.68 38.33 28.39 37.99 28 37.71 27.65 37.48 27.25 37.31 26.86 37.25 26.68 37.19 26.52 37.19 26.34 37.19 26.17 37.31"/><polyline class="cls-2" points="27.94 42.32 28.05 42.26 28.17 42.2 28.22 42.03 28.28 41.92 28.34 41.64 28.34 41.29 28.28 40.9 28.11 40.44 27.94 40.04 27.65 39.64 27.37 39.24 27.03 38.9 26.63 38.62 26.23 38.39 25.83 38.22 25.43 38.1 25.26 38.05 25.09 38.1 24.75 38.16"/><polyline class="cls-2" points="26.86 43 26.91 42.95 26.97 42.83 27.03 42.72 27.03 42.55 27.03 42.26 26.97 41.92 26.86 41.52 26.63 41.12 26.4 40.78 26.12 40.38 25.77 40.04 25.43 39.7 25.03 39.47 24.69 39.24 24.29 39.13 23.89 39.07 23.72 39.02 23.55 39.07 23.38 39.07 23.27 39.19"/><polyline class="cls-2" points="25.6 43.91 25.72 43.69 25.77 43.57 25.77 43.46 25.72 43.12 25.6 42.77 25.49 42.43 25.26 42.03 24.98 41.64 24.64 41.29 24.24 40.95 23.84 40.67 23.44 40.44 23.04 40.27 22.64 40.16 22.3 40.1 22.13 40.16 21.96 40.16 21.79 40.21 21.67 40.33"/><polyline class="cls-2" points="24.41 44.88 24.46 44.83 24.52 44.71 24.52 44.6 24.52 44.48 24.46 44.2 24.35 43.86 24.18 43.52 23.89 43.17 23.61 42.77 23.27 42.43 22.93 42.15 22.53 41.86 22.13 41.64 21.73 41.47 21.33 41.35 20.99 41.29 20.82 41.29 20.65 41.35 20.42 41.47"/><polyline class="cls-2" points="23.21 45.96 23.27 45.79 23.33 45.68 23.27 45.56 23.21 45.28 23.04 44.99 22.87 44.65 22.59 44.31 22.3 43.97 21.9 43.63 21.5 43.34 21.11 43.06 20.71 42.83 20.31 42.72 19.91 42.6 19.57 42.55 19.4 42.55 19.23 42.6 19.11 42.66 19 42.72"/><polyline class="cls-2" points="22.07 47.1 22.07 46.93 22.07 46.7 22.02 46.59 21.96 46.48 21.79 46.19 21.56 45.85 21.28 45.56 20.93 45.22 20.59 44.88 20.14 44.65 19.74 44.37 19.34 44.2 18.94 44.03 18.54 43.97 18.2 43.91 18.03 43.97 17.92 43.97 17.69 44.08"/><polyline class="cls-2" points="20.88 48.35 20.93 48.18 20.93 48.13 20.93 48.01 20.76 47.78 20.59 47.5 20.36 47.22 20.02 46.87 19.68 46.59 19.28 46.3 18.88 46.02 18.43 45.79 18.03 45.62 17.57 45.51 17.23 45.39 16.89 45.39 16.72 45.39 16.61 45.39 16.49 45.45 16.38 45.56"/><polyline class="cls-2" points="19.85 49.66 19.85 49.61 19.85 49.55 19.8 49.38 19.62 49.15 19.4 48.87 19.11 48.58 18.77 48.3 18.43 48.01 17.97 47.73 17.52 47.5 17.12 47.27 16.66 47.1 16.27 46.99 15.87 46.93 15.7 46.93 15.58 46.93 15.41 46.93 15.3 46.99 15.13 47.1"/><polyline class="cls-2" points="18.71 51.03 18.77 50.97 18.77 50.92 18.77 50.86 18.71 50.8 18.54 50.58 18.32 50.35 18.03 50.12 17.63 49.84 17.23 49.55 16.83 49.32 16.38 49.09 15.92 48.87 15.47 48.7 15.07 48.58 14.73 48.53 14.39 48.53 14.27 48.53 14.16 48.58 14.04 48.64 13.99 48.7"/><polyline class="cls-2" points="17.64 52.17 17.63 52.12 17.62 52.06 17.55 51.96 17.36 51.81 17.11 51.67 16.74 51.49 16.38 51.31 15.94 51.08 15.46 50.91 14.98 50.74 14.5 50.58 14.03 50.53 13.56 50.47 13.21 50.41 13.04 50.43 12.87 50.45 12.76 50.46 12.65 50.54 12.5 50.67"/><polyline class="cls-2" points="32.21 38.33 31.98 37.82 31.75 37.31 31.41 36.85 31.01 36.45 30.61 36.17 30.39 36.05 30.22 35.94 29.99 35.88 29.76 35.83 29.3 35.83"/><polyline class="cls-2" points="31.53 38.62 31.64 39.24 31.64 39.59 31.58 39.87 31.53 40.1 31.47 40.38 31.36 40.55 31.18 40.67"/><polyline class="cls-2" points="38.59 37.59 38.76 37.37 38.87 37.25 38.93 37.14 38.98 36.8 39.04 36.45 39.04 36.05 38.93 35.6 38.81 35.2 38.64 34.75 38.36 34.35 38.13 34.01 37.79 33.66 37.45 33.44 37.11 33.21 36.71 33.04 36.54 32.98 36.37 32.98 36.02 33.04"/><polyline class="cls-2" points="37.22 38.1 37.33 38.05 37.45 37.99 37.51 37.82 37.56 37.71 37.67 37.37 37.67 37.02 37.67 36.63 37.62 36.17 37.45 35.77 37.28 35.31 37.05 34.92 36.76 34.58 36.42 34.23 36.08 33.95 35.74 33.78 35.4 33.61 35 33.55 34.66 33.61"/><polyline class="cls-2" points="35.85 38.67 36.08 38.5 36.14 38.39 36.2 38.28 36.31 37.93 36.37 37.54 36.31 37.14 36.25 36.74 36.14 36.34 35.91 35.88 35.68 35.49 35.4 35.14 35.11 34.8 34.77 34.52 34.37 34.35 34.03 34.18 33.86 34.12 33.69 34.12 33.35 34.18"/><polyline class="cls-2" points="34.54 39.24 34.66 39.19 34.71 39.07 34.83 38.96 34.88 38.84 34.94 38.5 35 38.1 35 37.71 34.88 37.31 34.77 36.91 34.6 36.45 34.37 36.05 34.09 35.71 33.75 35.37 33.41 35.09 33.06 34.92 32.66 34.75 32.32 34.69 31.98 34.69"/><polyline class="cls-2" points="33.18 39.81 33.35 39.64 33.46 39.53 33.52 39.36 33.63 39.07 33.63 38.67 33.63 38.28 33.58 37.88 33.41 37.42 33.23 37.02 33.01 36.63 32.72 36.28 32.38 35.94 32.04 35.66 31.7 35.43 31.36 35.31 31.13 35.26 30.96 35.26 30.61 35.31"/><polyline class="cls-2" points="31.81 40.38 31.98 40.27 32.15 40.1 32.21 39.81 32.27 39.59 32.32 39.3 32.32 38.96 32.15 38.33"/><polyline class="cls-2" points="29.99 35.54 30.16 35.49 30.33 35.49 30.67 35.6 31.07 35.77 31.41 35.94 31.75 36.23 32.04 36.51 32.32 36.91 32.55 37.31 32.72 37.71 32.89 38.1 32.95 38.5 33.01 38.9 32.95 39.3 32.89 39.59 32.72 39.87 32.55 40.1"/><polyline class="cls-2" points="31.36 35.03 31.7 34.97 31.87 34.97 32.04 35.03 32.44 35.2 32.78 35.43 33.12 35.66 33.41 36 33.69 36.4 33.92 36.8 34.09 37.19 34.26 37.59 34.32 38.05 34.32 38.45 34.32 38.79 34.2 39.13 34.15 39.24 34.03 39.36 33.86 39.53"/><polyline class="cls-2" points="32.66 34.4 32.84 34.4 33.01 34.4 33.41 34.46 33.75 34.63 34.09 34.8 34.43 35.09 34.71 35.43 35 35.77 35.23 36.17 35.45 36.57 35.57 36.97 35.63 37.37 35.68 37.76 35.63 38.16 35.57 38.45 35.45 38.73 35.28 38.96"/><polyline class="cls-2" points="34.03 33.89 34.37 33.83 34.54 33.89 34.77 33.89 35.11 34.06 35.45 34.29 35.8 34.58 36.14 34.86 36.37 35.26 36.59 35.66 36.82 36.05 36.94 36.51 36.99 36.91 37.05 37.31 36.99 37.65 36.88 37.99 36.82 38.1 36.76 38.22 36.54 38.39"/><polyline class="cls-2" points="35.4 33.27 35.51 33.27 35.74 33.27 36.08 33.32 36.42 33.49 36.76 33.72 37.11 33.95 37.45 34.29 37.67 34.63 37.96 35.03 38.13 35.43 38.24 35.83 38.36 36.23 38.36 36.63 38.36 37.02 38.24 37.31 38.13 37.59 37.96 37.82"/><polyline class="cls-2" points="36.76 32.75 36.94 32.75 37.11 32.7 37.51 32.81 37.56 32.81"/><line class="cls-1" x1="39.38" y1="37.19" x2="39.5" y2="37.02"/><polyline class="cls-2" points="39.44 34.69 39.1 34.06 38.93 33.78 38.7 33.49 38.42 33.27 38.13 33.09 37.56 32.81"/><path class="cls-2" d="M38.31,32.47a1.57,1.57,0,0,0-.76.29"/><polyline class="cls-2" points="38.24 33.15 38.24 32.52 37.56 32.47"/><polyline class="cls-2" points="32.21 22.31 32.51 22.2 32.84 22.16 32.95 22.45 32.78 23.07 32.44 23.87 31.64 25.29 31.47 25.52"/><polyline class="cls-2" points="77.48 23.87 77.02 22.79 76.85 22.16 76.8 21.65 76.85 21.36 77.02 21.19 77.31 21.19 77.71 21.36 77.99 21.54"/><polyline class="cls-2" points="75.2 20 75.6 20.23 76.06 20.85 76 21.48 75.48 22.16 74.92 22.56"/><polyline class="cls-2" points="34.66 23.93 34.37 23.76 34.15 23.59 33.92 23.41 33.75 23.24 33.63 23.02 33.52 22.84 33.46 22.67 33.46 22.5 33.46 22.33 33.52 22.16 33.58 21.93 33.69 21.76 33.83 21.61 34.03 21.48 34.51 21.21"/><polyline class="cls-2" points="36.76 32.01 36.48 32.18 36.25 32.35 36.02 32.64 35.85 32.98"/><polyline class="cls-2" points="33.92 27.06 33.75 27 33.58 27 33.41 27"/><line class="cls-1" x1="35.45" y1="38.96" x2="35.45" y2="39.7"/><polyline class="cls-2" points="36.65 24.72 36.82 24.89 36.84 25.14 36.74 25.36 36.59 25.58"/><polyline class="cls-2" points="31.7 32.24 31.81 32.24 31.92 32.24 32.15 32.18 32.28 32.01 32.42 31.81"/><path class="cls-2" d="M29.5,27.6a8.91,8.91,0,0,0-1.93-.2"/><polyline class="cls-2" points="83.46 29.11 83.46 29.16 83.46 29.28"/><polyline class="cls-2" points="22.24 29.51 22.24 29.79 22.3 30.02 22.47 30.3 22.7 30.53 22.98 30.76 23.38 30.99 23.78 31.16"/><path class="cls-2" d="M81.84,26.72a8.5,8.5,0,0,0-2,.2"/><polyline class="cls-2" points="84.03 30.19 84.2 30.19 84.37 30.19 84.54 30.19"/><polyline class="cls-2" points="85.34 29.85 85.73 29.62 86.08 29.39 86.42 29.16 86.59 28.94 86.76 28.65 86.82 28.37 86.82 28.14 86.65 27.86"/><line class="cls-1" x1="48.72" y1="39.19" x2="49.58" y2="39.53"/><line class="cls-1" x1="31.7" y1="32.24" x2="26.12" y2="29.96"/><line class="cls-1" x1="48.72" y1="39.19" x2="43.14" y2="36.91"/><path class="cls-3" d="M29.65,85.21v8.4h-.9V89.17c0-.84,0-1.64.09-2.38h-.06c-.08.22-.29.65-.6,1.29l-.44.92-1.23,2.64h-.9L24.38,89l-.44-.92q-.47-1-.6-1.29h-.06c.06.74.09,1.54.09,2.38v4.44h-.9v-8.4h1l1.79,3.62c.24.48.5,1.1.81,1.87h.06c.31-.77.57-1.39.8-1.87l1.81-3.62Z"/><path class="cls-3" d="M32.5,93a2.7,2.7,0,0,1-.77-2V87.81a2.7,2.7,0,0,1,.77-2,3.42,3.42,0,0,1,4.25,0,2.7,2.7,0,0,1,.77,2V91a2.7,2.7,0,0,1-.77,2,3.42,3.42,0,0,1-4.25,0Zm3.61-.51a2.07,2.07,0,0,0,.5-1.51V87.81a2.09,2.09,0,0,0-.5-1.51,2.35,2.35,0,0,0-3,0,2.13,2.13,0,0,0-.5,1.51V91a2.12,2.12,0,0,0,.5,1.51,2.35,2.35,0,0,0,3,0Z"/><path class="cls-3" d="M39.61,85.21h2.26a3.38,3.38,0,0,1,2.21.64,2.23,2.23,0,0,1,.79,1.82v3.49a2.19,2.19,0,0,1-.8,1.8,3.37,3.37,0,0,1-2.2.65H39.61Zm2.26,7.69a2.42,2.42,0,0,0,1.56-.45A1.63,1.63,0,0,0,44,91.12V87.7a1.65,1.65,0,0,0-.54-1.34,2.38,2.38,0,0,0-1.56-.45H40.5v7Z"/><path class="cls-3" d="M51.81,92.92v.69H47v-8.4h4.7v.68h-3.8V89H51.4v.68H47.85v3.24Z"/><path class="cls-3" d="M58.22,92.9v.71H53.64v-8.4h.89V92.9Z"/><path class="cls-3" d="M62.38,93a3,3,0,0,1,.3-1.34,4.8,4.8,0,0,1,.74-1.08,15.52,15.52,0,0,1,1.14-1.11q.6-.56.93-.9a3.67,3.67,0,0,0,.55-.76,1.7,1.7,0,0,0,.22-.84,1.1,1.1,0,0,0-.4-.88,1.62,1.62,0,0,0-1.09-.34,1.51,1.51,0,0,0-1.07.36,1.45,1.45,0,0,0-.4,1.07h-.87a2.22,2.22,0,0,1,.7-1.53,2.34,2.34,0,0,1,1.64-.57,2.86,2.86,0,0,1,1.24.25,2,2,0,0,1,.83.68,1.72,1.72,0,0,1,.29,1A2.28,2.28,0,0,1,66.87,88a3.66,3.66,0,0,1-.64.9c-.26.27-.6.6-1,1s-.78.73-1,1a3.88,3.88,0,0,0-.65.91,2.28,2.28,0,0,0-.27,1.08h4v.68H62.38Z"/><path class="cls-3" d="M69.37,93.13a2,2,0,0,1-.67-1.59V87.28a2,2,0,0,1,.67-1.59,2.56,2.56,0,0,1,1.78-.6,2.53,2.53,0,0,1,1.77.6,2,2,0,0,1,.67,1.59v4.26a2,2,0,0,1-.67,1.59,2.56,2.56,0,0,1-1.77.6A2.61,2.61,0,0,1,69.37,93.13Zm2.95-.49a1.43,1.43,0,0,0,.42-1.1V87.28a1.46,1.46,0,0,0-.41-1.1,1.64,1.64,0,0,0-1.18-.4,1.61,1.61,0,0,0-1.18.4,1.43,1.43,0,0,0-.42,1.1v4.26a1.43,1.43,0,0,0,.42,1.1,1.7,1.7,0,0,0,1.18.39A1.67,1.67,0,0,0,72.32,92.64Z"/><path class="cls-3" d="M77.38,85.21v8.4h-.86V86.15l-1.66,1.16v-.92l1.66-1.18Z"/></g></svg>