<svg xmlns="http://www.w3.org/2000/svg" viewBox="0 0 100 100"><defs><style>.cls-1,.cls-2{fill:none;stroke:#fff;stroke-miterlimit:10;stroke-width:0.75px;}.cls-1{fill-rule:evenodd;}.cls-3{fill:#fff;}</style></defs><g id="Тарировка"><path class="cls-1" d="M27.11,25.09c-.33,1,2.93,3.39,4.4,3.61"/><line class="cls-2" x1="72.92" y1="20.37" x2="72.67" y2="20.41"/><line class="cls-2" x1="44.34" y1="57.48" x2="44.56" y2="72.5"/><line class="cls-2" x1="55.95" y1="72.5" x2="55.88" y2="57.4"/><polyline class="cls-1" points="74.27 34.16 74.11 29.7 74.08 28.96"/><line class="cls-2" x1="25.67" y1="30.03" x2="25.61" y2="34.49"/><path class="cls-1" d="M54.21,12.5c5.59.7,12,1.36,16.28,5.35,2,2,2.71,2.74,3.08,5.35L74.08,29"/><path class="cls-1" d="M30.16,23.82l-1.66.37a2.1,2.1,0,0,0-1.72,1.91l-.43,4.43"/><path class="cls-1" d="M33,17.33c-3.16,1.83-3.75,4.06-4.08,6.76"/><path class="cls-1" d="M26.25,31.12a2,2,0,0,0,.1-.59"/><path class="cls-1" d="M26.72,26.74c-.36,0-1,2.74-1,3.29"/><path class="cls-1" d="M74.39,31.08l-.09-5.32a11.68,11.68,0,0,0-1.78-5.69l-.22-.25"/><path class="cls-1" d="M30,20.25,30.25,18c.09-1,.57-1.16,1.36-1.6A22.88,22.88,0,0,1,38,13.85"/><path class="cls-1" d="M52.77,13.42A45.67,45.67,0,0,0,40.1,14.5"/><line class="cls-2" x1="39.88" y1="14.47" x2="38.71" y2="13.98"/><path class="cls-1" d="M39.88,14.47a.36.36,0,0,0,.22,0"/><path class="cls-1" d="M38.71,14a1.4,1.4,0,0,0-.71-.13"/><path class="cls-1" d="M52.77,13.42c.22,0,.58-.48.74-.64"/><path class="cls-1" d="M53.51,12.78a.87.87,0,0,1,.7-.28"/><line class="cls-2" x1="40.03" y1="44.46" x2="40.53" y2="53.47"/><line class="cls-2" x1="59.63" y1="53.35" x2="59.97" y2="44.31"/><path class="cls-1" d="M40.53,53.47a4,4,0,0,0,1.93,3.05c3.69,2.46,9.69,2.28,13.48.86,1.9-.87,3.46-1.82,3.69-4.06"/><path class="cls-1" d="M62.13,19.05c-2.56-1.8-4.83-2.36-8-2.89a30.93,30.93,0,0,0-11.93.77c-11.51,3.67-4.9,8.86,1.51,10.37a31.15,31.15,0,0,0,12.36-.1c3.47-.88,8.4-2.59,7.51-5.9A4.23,4.23,0,0,0,62.13,19.05Z"/><line class="cls-2" x1="31.82" y1="16.78" x2="33.05" y2="17.33"/><line class="cls-2" x1="67.34" y1="25.61" x2="69.62" y2="25.85"/><path class="cls-1" d="M57.41,29.74a21.38,21.38,0,0,0,9.93-4.13"/><line class="cls-2" x1="48.04" y1="30.4" x2="48.37" y2="31.48"/><path class="cls-1" d="M34.83,27.42A31.94,31.94,0,0,0,48,30.4"/><line class="cls-2" x1="32.68" y1="27.94" x2="34.83" y2="27.42"/><polyline class="cls-1" points="54.27 29.17 54.49 29.45 54.43 29.76 54.18 30.03 53.72 30.25 53.11 30.4 52.43 30.43 51.75 30.37 51.2 30.19 50.77 29.97 50.58 29.66 50.62 29.36 50.89 29.08 51.35 28.86 51.97 28.74 52.65 28.71 53.32 28.77 53.88 28.93 54.27 29.17"/><polyline class="cls-1" points="35.68 24.28 35.9 24.56 35.84 24.87 35.59 25.15 35.13 25.36 34.51 25.52 33.84 25.55 33.16 25.48 32.61 25.3 32.18 25.08 31.99 24.78 32.02 24.47 32.3 24.19 32.76 23.98 33.38 23.85 34.05 23.82 34.73 23.88 35.28 24.04 35.68 24.28"/><polyline class="cls-1" points="68.89 23.11 69.1 23.42 69.07 23.7 68.79 23.97 68.36 24.19 67.75 24.31 67.1 24.34 66.42 24.28 65.87 24.13 65.47 23.91 65.26 23.6 65.29 23.33 65.53 23.05 65.99 22.84 66.58 22.71 67.26 22.68 67.9 22.74 68.49 22.9 68.89 23.11"/><polyline class="cls-1" points="58.49 14.41 58.67 14.69 58.64 14.96 58.4 15.24 57.94 15.42 57.35 15.58 56.7 15.61 56.06 15.55 55.51 15.39 55.11 15.15 54.92 14.9 54.95 14.59 55.2 14.35 55.66 14.13 56.24 14.01 56.89 13.98 57.54 14.04 58.09 14.19 58.49 14.41"/><polyline class="cls-1" points="39.27 16.04 39.45 16.32 39.39 16.59 39.11 16.87 38.68 17.08 38.07 17.21 37.42 17.24 36.77 17.18 36.22 17.02 35.85 16.81 35.67 16.53 35.7 16.25 35.97 15.98 36.44 15.76 37.02 15.64 37.7 15.61 38.34 15.67 38.87 15.82 39.27 16.04"/><polyline class="cls-1" points="71.44 34.28 71.32 34.52 71.19 34.74 71.04 34.92 70.89 35.08"/><path class="cls-1" d="M32.25,37.26a1.66,1.66,0,0,1-.77-.71"/><path class="cls-1" d="M32.26,37.27A39.58,39.58,0,0,0,46,40.45"/><path class="cls-1" d="M47.17,40.18a3.13,3.13,0,0,1-1.16.27"/><path class="cls-1" d="M61.28,39.23a1.51,1.51,0,0,1-1.1-.06"/><path class="cls-1" d="M61.28,39.23A26,26,0,0,0,70.91,35"/><path class="cls-1" d="M74.27,34.15c-.21,3.16-2.1,4.8-4.46,6.46C63.84,44,58.12,45,51.45,45.29c-6.5.08-25.37-1.38-25.84-10.8"/><path class="cls-1" d="M60.18,39.17a1.69,1.69,0,0,1-.89-1.23"/><path class="cls-1" d="M48.43,34l-.37,4.77a1.52,1.52,0,0,1-.89,1.38"/><path class="cls-1" d="M48.46,32.65a22.67,22.67,0,0,0,10-.92"/><path class="cls-1" d="M48.37,31.48A12.07,12.07,0,0,1,48.43,34"/><path class="cls-1" d="M34.81,27.45a4.48,4.48,0,0,0-.59,1.69"/><path class="cls-1" d="M34.86,35.67a34.84,34.84,0,0,0,11.61,2.58"/><path class="cls-1" d="M34.22,29.14l0,5.38a1.25,1.25,0,0,0,.67,1.15"/><path class="cls-1" d="M47.48,37.48c0-2.33.34-4.73.55-7"/><path class="cls-1" d="M47.48,37.48c0,.46-.48.77-1,.77"/><line class="cls-2" x1="34.62" y1="35.51" x2="31.61" y2="36.74"/><path class="cls-1" d="M59.29,37.94a61.49,61.49,0,0,0-1.11-7.41"/><path class="cls-1" d="M54.37,29.87a2.85,2.85,0,0,0-3.63,0"/><path class="cls-1" d="M35.77,25a2.82,2.82,0,0,0-3.62,0"/><polyline class="cls-1" points="68.21 27.23 68.18 27.02 68.09 26.77 67.9 26.4 67.72 26.1 67.63 25.94 67.53 25.82 67.44 25.73 67.35 25.64"/><path class="cls-1" d="M60.05,37.16a23.18,23.18,0,0,0,8-3.37"/><polyline class="cls-1" points="68.03 33.79 68.12 33.72 68.21 33.6 68.27 33.45 68.33 33.29 68.39 33.14 68.42 32.95 68.45 32.77 68.45 32.59 68.21 27.23"/><path class="cls-1" d="M62.12,19.48C59,17,52.37,16.43,50.69,16.38a39.69,39.69,0,0,0-8.47.95c-2.29.7-5.94,2.31-6.11,5.1"/><path class="cls-1" d="M63.7,22.22a3.68,3.68,0,0,0-1.58-2.74"/><path class="cls-1" d="M31.48,36.55A3,3,0,0,1,31,34.89l0-4.83a2.22,2.22,0,0,1,1.66-2.12"/><path class="cls-1" d="M69.62,25.85a2.19,2.19,0,0,1,1.88,1.94"/><polyline class="cls-1" points="71.5 27.79 71.72 32.59 71.72 33.02 71.65 33.45 71.56 33.88 71.44 34.28"/><path class="cls-1" d="M69,23.83a2.83,2.83,0,0,0-3.57,0"/><path class="cls-1" d="M30.79,23.6a2.22,2.22,0,0,1-.63.22"/><path class="cls-1" d="M74.3,25.76h.09a.09.09,0,1,0-.09.09.09.09,0,0,0,.09-.09Z"/><path class="cls-1" d="M39.3,16.73a2.84,2.84,0,0,0-3.48.05"/><path class="cls-1" d="M74.39,31.08a.25.25,0,0,1-.2.24"/><path class="cls-1" d="M58.54,15.08a2.87,2.87,0,0,0-3.48,0"/><polyline class="cls-1" points="53.63 50.27 53.81 50.4 54.03 50.46 54.24 50.46 54.49 50.43 54.71 50.36 54.92 50.24 55.11 50.09 55.29 49.87 55.41 49.69 55.54 49.44 55.6 49.23 55.63 48.98 55.6 48.77 55.54 48.58 55.44 48.4 55.32 48.27 55.14 48.18 54.95 48.12 54.74 48.12 54.52 48.15 54.27 48.21 54.06 48.33 53.84 48.49 53.66 48.67 53.51 48.86 53.38 49.07 53.32 49.29 53.29 49.53 53.32 49.75 53.38 49.97 53.48 50.12 53.63 50.27"/><path class="cls-1" d="M74.11,29.69a6.75,6.75,0,0,1-2.06,4.53c-6.61,5.86-17.24,6.63-25.46,6.42-5.76-.44-10.86-1.36-16.12-4.15-2.41-1.62-4.64-3.25-4.8-6.46"/><path class="cls-1" d="M57.41,29.76c.27,0,.65.54.77.77"/><path class="cls-1" d="M59.2,36.77c.1.43.48.44.83.4"/><path class="cls-1" d="M70.91,26.5A5.37,5.37,0,0,0,73,21"/><path class="cls-1" d="M25.91,31.36a.42.42,0,0,0,.35-.25"/><path class="cls-1" d="M74.3,25.76c0,.22-.32.27-.47.3"/><path class="cls-1" d="M31.82,16.78a1,1,0,0,0-1,.09"/><path class="cls-3" d="M18,85.21v8.4h-.89V89.17c0-.84,0-1.64.09-2.38h-.06c-.09.22-.29.65-.61,1.29l-.43.92-1.24,2.64H14L12.76,89l-.43-.92c-.32-.64-.52-1.07-.61-1.29h-.05c.05.74.08,1.54.08,2.38v4.44h-.89v-8.4h1l1.8,3.62c.23.48.5,1.1.81,1.87h.06c.3-.77.57-1.39.8-1.87l1.8-3.62Z"/><path class="cls-3" d="M20.89,93a2.7,2.7,0,0,1-.77-2V87.81a2.7,2.7,0,0,1,.77-2A2.94,2.94,0,0,1,23,85.05a3,3,0,0,1,2.13.74,2.7,2.7,0,0,1,.77,2V91a2.7,2.7,0,0,1-.77,2,3,3,0,0,1-2.13.74A2.94,2.94,0,0,1,20.89,93Zm3.61-.51A2.12,2.12,0,0,0,25,91V87.81a2.13,2.13,0,0,0-.5-1.51A2,2,0,0,0,23,85.77a2,2,0,0,0-1.48.53,2.13,2.13,0,0,0-.5,1.51V91a2.12,2.12,0,0,0,.5,1.51A1.93,1.93,0,0,0,23,93,1.94,1.94,0,0,0,24.5,92.51Z"/><path class="cls-3" d="M28,85.21h2.26a3.38,3.38,0,0,1,2.21.64,2.22,2.22,0,0,1,.78,1.82v3.49a2.18,2.18,0,0,1-.79,1.8,3.39,3.39,0,0,1-2.2.65H28Zm2.26,7.69a2.37,2.37,0,0,0,1.55-.45,1.6,1.6,0,0,0,.55-1.33V87.7a1.65,1.65,0,0,0-.54-1.34,2.38,2.38,0,0,0-1.56-.45H28.89v7Z"/><path class="cls-3" d="M40.19,92.92v.69H35.34v-8.4H40v.68H36.23V89h3.56v.68H36.23v3.24Z"/><path class="cls-3" d="M46.6,92.9v.71H42v-8.4h.9V92.9Z"/><path class="cls-3" d="M54.86,89.25a2,2,0,0,1,.63,1.56v.61a2.17,2.17,0,0,1-.67,1.71,2.5,2.5,0,0,1-1.78.61,2.64,2.64,0,0,1-1.79-.6,2.2,2.2,0,0,1-.69-1.75h.87a1.75,1.75,0,0,0,.46,1.27A1.56,1.56,0,0,0,53,93a1.43,1.43,0,0,0,1.62-1.62v-.61a1.38,1.38,0,0,0-.46-1.12,2.06,2.06,0,0,0-1.29-.37H52v-.6l2.14-2.84H50.91v-.67h4.33v.51L53,88.7h0A2.79,2.79,0,0,1,54.86,89.25Z"/><path class="cls-3" d="M57.82,93.13a2,2,0,0,1-.68-1.59V87.28a2.08,2.08,0,0,1,.67-1.59,2.94,2.94,0,0,1,3.56,0A2.08,2.08,0,0,1,62,87.28v4.26a2,2,0,0,1-.68,1.59,2.91,2.91,0,0,1-3.54,0Zm2.94-.49a1.4,1.4,0,0,0,.43-1.1V87.28a1.43,1.43,0,0,0-.42-1.1,1.94,1.94,0,0,0-2.36,0,1.43,1.43,0,0,0-.42,1.1v4.26a1.4,1.4,0,0,0,.43,1.1,1.95,1.95,0,0,0,2.34,0Z"/><path class="cls-3" d="M65.83,85.21v8.4H65V86.15L63.3,87.31v-.92L65,85.21Z"/><path class="cls-3" d="M76.63,89.94a2.29,2.29,0,0,1-.3,3.08,3.37,3.37,0,0,1-2.11.59H71.63v-8.4H74a3,3,0,0,1,2,.57,2,2,0,0,1,.71,1.61,2,2,0,0,1-.35,1.24,1.65,1.65,0,0,1-1,.62A2.12,2.12,0,0,1,76.63,89.94Zm-4.11-4v3H74q1.74,0,1.74-1.56a1.39,1.39,0,0,0-.43-1.13A2.06,2.06,0,0,0,74,85.9Zm3.18,6.62a1.68,1.68,0,0,0-.09-2.44,2.5,2.5,0,0,0-1.55-.43H72.52v3.26h1.7A2.34,2.34,0,0,0,75.7,92.52Z"/><path class="cls-3" d="M83.31,92.9v.71H78.73v-8.4h.89V92.9Z"/><path class="cls-3" d="M89.53,92.92v.69H84.67v-8.4h4.7v.68h-3.8V89h3.56v.68H85.57v3.24Z"/></g></svg>